<!-- Generated by IcoMoon.io -->
<svg version="1.1" xmlns="http://www.w3.org/2000/svg" width="64" height="64" viewBox="0 0 63 64">
<title>alexa</title>
<path fill="#fff" d="M31.554 1.104c-17.063 0-30.896 13.832-30.896 30.896s13.832 30.896 30.896 30.896 30.896-13.833 30.896-30.896c0-17.063-13.833-30.896-30.896-30.896zM27.506 62.329c0-0.037 0-0.072 0-0.107 0-1.945 0.006-3.89-0.002-5.835-0.006-1.199-0.443-2.224-1.318-3.051-0.459-0.435-1.009-0.711-1.604-0.917-2.669-0.926-5.071-2.316-7.189-4.188-3.006-2.658-5.122-5.897-6.335-9.723-0.313-0.989-0.542-1.997-0.711-3.022-0.185-1.121-0.27-2.25-0.271-3.384-0.001-0.766 0.037-1.532 0.115-2.297 0.283-2.765 1.070-5.374 2.361-7.833 0.836-1.592 1.861-3.053 3.069-4.386 1.705-1.883 3.682-3.414 5.929-4.597 1.777-0.935 3.651-1.605 5.617-2.009 0.649-0.133 1.305-0.237 1.962-0.317 0.94-0.114 1.886-0.13 2.834-0.124 0.691 0.004 1.381 0.042 2.066 0.123 3.624 0.428 6.949 1.663 9.929 3.778 3.997 2.836 6.73 6.604 8.208 11.276 0.313 0.988 0.539 1.999 0.691 3.026 0.092 0.623 0.184 1.247 0.2 1.877 0.021 0.801 0.060 1.603 0.035 2.403-0.021 0.671-0.111 1.34-0.191 2.007-0.148 1.243-0.435 2.456-0.804 3.652-0.745 2.415-1.861 4.653-3.247 6.76-0.863 1.312-1.823 2.551-2.855 3.735-1.409 1.618-2.945 3.108-4.572 4.503-2.165 1.857-4.47 3.523-6.883 5.042-2.011 1.266-4.080 2.43-6.226 3.452-0.143 0.068-0.288 0.135-0.441 0.206-0.123-0.015-0.246-0.031-0.369-0.048z"></path>
</svg>
