<!-- Generated by IcoMoon.io -->
<svg version="1.1" xmlns="http://www.w3.org/2000/svg" width="64" height="64" viewBox="0 0 64 64">
<title>android</title>
<path fill="#fff" d="M31.944 21.318c5.556 0 11.113 0 16.67 0 0.042 0 0.084-0 0.126 0.001 0.548 0.012 0.554 0.012 0.554 0.555 0.002 2.526 0.001 5.052 0.001 7.577 0 5.789 0.003 11.577-0.002 17.365-0.001 1.197-0.344 2.274-1.205 3.155-0.759 0.777-1.671 1.191-2.753 1.22-0.757 0.019-1.515 0.011-2.273 0.016-0.772 0.005-0.774 0.006-0.774 0.751-0.001 2.505-0.032 5.010 0.013 7.514 0.024 1.305-0.386 2.363-1.302 3.29-1.214 1.23-3.457 1.485-4.769 0.396-1.051-0.873-1.725-1.978-1.715-3.423 0.019-2.547 0.010-5.093 0.003-7.64-0.003-1.010 0.144-0.869-0.858-0.876-1.158-0.008-2.315-0.005-3.473-0.001-0.829 0.003-0.76-0.103-0.76 0.794-0.002 2.505-0.027 5.010 0.010 7.514 0.019 1.278-0.377 2.325-1.281 3.235-1.199 1.208-3.371 1.494-4.716 0.437-1.067-0.838-1.779-1.932-1.77-3.386 0.017-2.61 0.005-5.219 0.005-7.829 0-0.147-0.008-0.295 0-0.442 0.013-0.24-0.092-0.339-0.334-0.335-0.736 0.012-1.473 0.002-2.209 0.022-0.575 0.015-1.129-0.058-1.673-0.251-1.682-0.597-2.691-2.017-2.737-3.858-0.063-2.566-0.031-5.135-0.035-7.703-0.007-5.304-0.010-10.608-0.016-15.912-0.001-0.568-0.017-1.136-0.018-1.704-0-0.464 0.006-0.472 0.494-0.479 0.989-0.013 1.978-0.023 2.968-0.023 4.609-0.002 9.219-0.001 13.829-0.001-0.001 0.006-0.001 0.014-0.001 0.021z"></path>
<path fill="#fff" d="M31.944 19.89c-5.535 0-11.071 0.002-16.606-0.002-0.717-0-0.772 0.153-0.687-0.747 0.189-2.003 0.58-3.948 1.437-5.784 1.041-2.228 2.47-4.152 4.433-5.648 0.864-0.658 1.646-1.43 2.624-1.932 0.216-0.111 0.25-0.23 0.129-0.443-0.363-0.64-0.715-1.286-1.059-1.937-0.441-0.835-0.877-1.674-1.302-2.518-0.247-0.491-0.206-0.765 0.103-0.941 0.342-0.194 0.625-0.077 0.892 0.415 0.721 1.329 1.429 2.664 2.142 3.997 0.069 0.13 0.141 0.258 0.215 0.386 0.226 0.39 0.228 0.394 0.671 0.218 2.478-0.987 5.051-1.43 7.715-1.338 2.143 0.074 4.214 0.501 6.214 1.273 0.118 0.045 0.241 0.081 0.35 0.142 0.186 0.102 0.303 0.067 0.405-0.126 0.534-1.023 1.075-2.043 1.617-3.062 0.297-0.557 0.592-1.115 0.908-1.66 0.189-0.325 0.514-0.408 0.809-0.253 0.292 0.153 0.366 0.43 0.175 0.817-0.39 0.79-0.791 1.575-1.204 2.353-0.383 0.725-0.789 1.438-1.18 2.159-0.19 0.351-0.181 0.348 0.158 0.573 1.666 1.102 3.266 2.297 4.577 3.814 1.895 2.192 3.115 4.723 3.574 7.598 0.119 0.746 0.175 1.503 0.266 2.254 0.038 0.311-0.097 0.421-0.393 0.394-0.146-0.014-0.295-0.002-0.442-0.002-5.514 0-11.028 0-16.543 0zM25.561 12.038c-0.063-1.117-0.623-1.553-1.433-1.566-0.833-0.014-1.419 0.462-1.455 1.603-0.025 0.776 0.66 1.407 1.463 1.409 0.79 0.001 1.421-0.64 1.424-1.445zM39.872 13.483c0.788-0.007 1.497-0.676 1.439-1.441-0.076-0.997-0.486-1.549-1.506-1.576-0.841-0.022-1.403 0.67-1.386 1.605 0.016 0.816 0.635 1.418 1.453 1.411z"></path>
<path fill="#fff" d="M50.587 32.655c0-2.715-0.003-5.429 0.001-8.143 0.003-1.77 0.853-2.959 2.453-3.698 0.717-0.331 1.433-0.52 2.172-0.287 0.794 0.251 1.537 0.649 2.123 1.273 0.519 0.552 0.839 1.207 0.944 1.957 0.052 0.374 0.082 0.754 0.083 1.131 0.005 5.282-0.005 10.564 0.010 15.846 0.004 1.249-0.402 2.288-1.278 3.179-1.245 1.267-3.35 1.546-4.76 0.479-1.076-0.815-1.719-1.943-1.745-3.342-0.019-1.010-0.013-2.020-0.014-3.030-0.002-1.789-0.001-3.578-0.001-5.366 0.004-0 0.008-0 0.012-0z"></path>
<path fill="#fff" d="M13.369 32.464c0 2.335-0.001 4.669 0.001 7.004 0 0.63 0.047 1.263 0.002 1.889-0.072 1.003-0.541 1.811-1.23 2.554-0.931 1.004-2.059 1.18-3.323 1.058-1.55-0.15-3.156-2.028-3.181-3.665-0.004-0.231-0.015-0.462-0.014-0.694 0.003-5.406 0.007-10.812 0.011-16.218 0.001-1.655 0.863-2.749 2.268-3.501 0.683-0.366 1.397-0.602 2.158-0.402 1.622 0.427 3.305 1.697 3.292 3.834-0.016 2.713-0.004 5.427-0.004 8.141 0.007-0 0.013-0 0.020 0z"></path>
</svg>
