<!-- Generated by IcoMoon.io -->
<svg version="1.1" xmlns="http://www.w3.org/2000/svg" width="64" height="64" viewBox="0 0 64 64">
<title>android</title>
<path fill="#fff" d="M46.73 40.88c-0.003 0-0.007 0-0.010 0-1.475 0-2.67-1.195-2.67-2.67s1.195-2.67 2.67-2.67c1.475 0 2.67 1.195 2.67 2.67v0c0 0 0 0 0 0 0 1.471-1.19 2.664-2.659 2.67h-0.001zM17.27 40.88c-1.475 0-2.67-1.195-2.67-2.67s1.195-2.67 2.67-2.67c1.475 0 2.67 1.195 2.67 2.67v0c0 0.003 0 0.007 0 0.010 0 1.469-1.191 2.66-2.66 2.66-0.003 0-0.007 0-0.011 0h0.001zM47.68 24.83l5.32-9.23c0.095-0.159 0.151-0.351 0.151-0.557 0-0.405-0.219-0.76-0.546-0.951l-0.005-0.003c-0.16-0.095-0.354-0.152-0.56-0.152-0.407 0-0.764 0.22-0.957 0.547l-0.003 0.005-5.38 9.34c-4.027-1.851-8.738-2.93-13.7-2.93s-9.673 1.079-13.909 3.016l0.209-0.086-5.39-9.34c-0.204-0.28-0.531-0.46-0.9-0.46-0.613 0-1.11 0.497-1.11 1.11 0 0.167 0.037 0.325 0.103 0.467l-0.003-0.007 5.33 9.23c-9.153 5.047-15.453 14.286-16.323 25.059l-0.007 0.111h64c-0.875-10.883-7.171-20.121-16.158-25.088l-0.162-0.082z"></path>
</svg>
