<!-- Generated by IcoMoon.io -->
<svg version="1.1" xmlns="http://www.w3.org/2000/svg" width="64" height="64" viewBox="0 0 64 64">
<title>atv</title>
<path fill="#fff" d="M24.635 26.894c-2.223 1.558-3.539 3.574-3.348 6.363 0.19 2.766 1.715 4.61 4.125 5.832-0.041 0.157-0.066 0.295-0.112 0.425-0.588 1.663-1.401 3.207-2.447 4.63-0.5 0.681-0.984 1.372-1.606 1.952-0.653 0.608-1.37 1.097-2.279 1.221-0.753 0.103-1.492 0.022-2.203-0.245-0.506-0.19-0.991-0.448-1.508-0.594-0.599-0.17-1.222-0.331-1.838-0.349-0.842-0.024-1.669 0.171-2.462 0.493-0.62 0.252-1.249 0.491-1.891 0.675-0.971 0.278-1.881 0.092-2.718-0.479-0.522-0.356-0.989-0.768-1.4-1.249-1.779-2.080-3.15-4.391-3.963-7.013-0.612-1.975-0.987-3.99-0.886-6.071 0.115-2.359 0.758-4.53 2.43-6.274 1.274-1.328 2.823-2.143 4.695-2.321 1.022-0.097 1.979 0.078 2.925 0.416 0.723 0.259 1.441 0.53 2.162 0.794 0.433 0.159 0.865 0.161 1.3-0.001 0.801-0.297 1.604-0.587 2.408-0.877 2.033-0.733 4.027-0.59 5.95 0.352 1.070 0.524 1.99 1.259 2.664 2.318z"></path>
<path fill="#fff" d="M52.394 43.811c2.187-7.175 4.799-14.116 7.181-21.133 1.481 0 2.918 0 4.425 0-3.053 8.193-6.097 16.36-9.145 24.539-1.627 0-3.246 0-4.888 0-2.963-8.173-5.925-16.342-8.896-24.538 1.499 0 2.947 0 4.422 0 0.194 0.558 0.394 1.116 0.582 1.678 1.547 4.613 3.108 9.222 4.631 13.842 0.565 1.714 1.041 3.457 1.558 5.187 0.036 0.119 0.074 0.237 0.132 0.425z"></path>
<path fill="#fff" d="M31.678 18.828c1.36-0.555 2.678-1.093 4.045-1.651 0 1.857 0 3.668 0 5.515 1.514 0 2.99 0 4.493 0 0 1.014 0 1.991 0 3.006-1.474 0-2.951 0-4.459 0-0.008 0.16-0.019 0.286-0.019 0.412-0.001 4.546-0.001 9.093-0 13.639 0 0.628-0.027 1.258 0.020 1.883 0.036 0.48 0.137 0.961 0.269 1.425 0.17 0.601 0.613 0.945 1.209 1.11 0.675 0.187 1.349 0.142 2.028 0.032 0.447-0.072 0.895-0.131 1.37-0.199 0 1.019 0 2.009 0 3.034-0.107 0.037-0.224 0.088-0.346 0.117-1.577 0.385-3.177 0.576-4.794 0.387-1.318-0.154-2.435-0.72-3.123-1.907-0.494-0.854-0.757-1.797-0.761-2.789-0.024-5.552-0.038-11.105-0.055-16.658-0-0.14 0-0.281 0-0.468-0.935 0-1.858 0-2.796 0 0-1.037 0-2.027 0-3.047 0.972 0 1.93 0 2.921 0-0-1.29-0-2.55-0-3.843z"></path>
<path fill="#fff" d="M12.713 23.491c-0.159-0.672-0.073-1.311 0.091-1.923 0.716-2.664 2.429-4.367 5.071-5.139 0.247-0.072 0.507-0.105 0.763-0.143 0.093-0.014 0.191 0.009 0.337 0.019 0.013 0.256 0.053 0.502 0.034 0.743-0.208 2.587-1.379 4.582-3.674 5.853-0.798 0.442-1.674 0.622-2.621 0.589z"></path>
</svg>
