<!-- Generated by IcoMoon.io -->
<svg version="1.1" xmlns="http://www.w3.org/2000/svg" width="64" height="64" viewBox="0 0 64 64">
<title>chrome</title>
<path fill="#fff" d="M36.915 47.676c-0.537 0.909-1.014 1.71-1.485 2.515-2.474 4.235-4.95 8.469-7.414 12.709-0.237 0.407-0.481 0.665-1.007 0.57-5.054-0.909-9.721-2.729-13.811-5.885-6.239-4.815-10.285-11.035-11.829-18.794-1.319-6.628-0.564-13.027 2.373-19.14 0.386-0.803 0.805-1.589 1.253-2.472 0.403 0.677 0.754 1.259 1.097 1.846 4.232 7.234 8.392 14.511 12.716 21.688 3.332 5.53 8.361 8.019 14.812 7.544 0.867-0.064 1.72-0.298 2.58-0.454 0.199-0.036 0.399-0.071 0.714-0.127z"></path>
<path fill="#fff" d="M32.125 63.797c0.095-0.181 0.184-0.367 0.287-0.544 4.095-7.016 8.191-14.032 12.289-21.047 1.11-1.901 2.18-3.834 2.73-5.974 1.371-5.335 0.128-10.033-3.619-14.068-0.318-0.343-0.657-0.667-0.984-1.001-0.012-0.012-0.008-0.039-0.021-0.115 0.184-0.013 0.364-0.038 0.544-0.038 5.74-0.002 11.479 0.005 17.219-0.013 0.484-0.002 0.705 0.156 0.884 0.599 1.897 4.695 2.496 9.557 1.821 14.56-1.083 8.030-4.746 14.687-10.825 20.025-4.352 3.822-9.377 6.262-15.089 7.226-1.709 0.289-3.448 0.401-5.174 0.594-0.021-0.068-0.042-0.135-0.062-0.203z"></path>
<path fill="#fff" d="M16.683 29.45c-0.658-1.12-1.239-2.11-1.819-3.1-2.393-4.085-4.781-8.173-7.188-12.249-0.217-0.368-0.223-0.595 0.062-0.937 5.199-6.226 11.706-10.195 19.792-11.338 12.918-1.826 24.674 4.296 30.968 14.71 0.095 0.157 0.167 0.328 0.296 0.583-0.315 0-0.54-0-0.765 0-8.771 0.005-17.541 0.011-26.312 0.013-6.922 0.002-13.185 4.898-14.846 11.609-0.046 0.184-0.097 0.368-0.188 0.71z"></path>
<path fill="#fff" d="M31.98 21.084c6.62 0 11.591 5.010 11.649 11.618 0.060 6.833-5.527 11.861-11.985 11.705-5.304-0.128-11.356-4.097-11.387-11.819-0.026-6.511 5.123-11.504 11.723-11.504z"></path>
</svg>
