<!-- Generated by IcoMoon.io -->
<svg version="1.1" xmlns="http://www.w3.org/2000/svg" width="64" height="64" viewBox="0 0 64 64">
<title>chromecast</title>
<path fill="#fff" d="M37.855 58.198c0-1.95 0-3.841 0-5.807 6.758 0 13.504 0 20.283 0 0-13.609 0-27.142 0-40.719-17.417 0-34.831 0-52.303 0 0 2.88 0 5.745 0 8.644-1.962 0-3.867 0-5.806 0-0.009-0.197-0.024-0.373-0.024-0.549-0.001-2.658-0.004-5.316 0-7.973 0.006-3.458 2.536-5.991 5.995-5.991 17.339-0.002 34.678-0.002 52.017 0 3.452 0 5.98 2.539 5.981 6.005 0.003 13.47 0.003 26.939-0 40.409-0.001 3.431-2.536 5.978-5.951 5.981-6.545 0.005-13.090 0.002-19.635 0.002-0.176 0-0.352 0-0.556 0z"></path>
<path fill="#fff" d="M0.018 31.982c0-1.953 0-3.831 0-5.809 7.428 0.072 14.093 2.304 19.858 6.954 7.939 6.403 11.872 14.809 12.165 25.025-1.967 0-3.872 0-5.839 0-0.124-7.142-2.607-13.361-7.678-18.446-5.076-5.090-11.288-7.596-18.505-7.723z"></path>
<path fill="#fff" d="M0.032 43.628c0-1.932 0-3.824 0-5.808 4.732 0.047 8.962 1.496 12.662 4.441 5.523 4.395 7.709 10.679 7.651 15.89-1.904 0-3.808 0-5.777 0-0.091-3.951-1.465-7.415-4.291-10.24-2.814-2.813-6.257-4.193-10.245-4.283z"></path>
<path fill="#fff" d="M0.048 49.537c4.157-0.28 8.758 3.539 8.643 8.624-2.865 0-5.732 0-8.643 0 0-2.867 0-5.746 0-8.624z"></path>
</svg>
