<!-- Generated by IcoMoon.io -->
<svg version="1.1" xmlns="http://www.w3.org/2000/svg" width="64" height="64" viewBox="0 0 64 64">
<title>cloudsync</title>
<path fill="#fff" d="M29.725 11.603c2-4.421 5.2-6.886 10.15-6.57 3.57 0.228 7.396 1.805 9.26 7.961 0.441-0.078 0.887-0.169 1.338-0.232 2.972-0.417 5.33 0.656 7.129 3.004 1.755 2.291 2.080 4.797 1.011 7.477-0.398 0.997-0.435 1.031 0.456 1.686 2.408 1.771 3.811 4.105 4.219 7.076 0.714 5.199-3.32 10.421-8.531 10.979-0.587 0.063-1.18 0.097-1.77 0.099-4.716 0.008-9.433-0.001-14.149 0.018-0.352 0.002-0.486-0.164-0.64-0.404-1.906-2.972-3.816-5.942-5.725-8.912-0.148-0.231-0.298-0.461-0.491-0.759-0.318 0.487-0.598 0.911-0.874 1.339-1.783 2.766-3.571 5.528-5.338 8.304-0.208 0.326-0.431 0.427-0.802 0.426-4.809-0.011-9.618-0.007-14.426-0.007-4.883-0-9.114-3.656-9.821-8.486-0.718-4.903 1.795-9.26 6.415-11.049 0.613-0.237 0.635-0.601 0.55-1.119-0.7-4.263 0.512-7.944 3.471-11.042 4.571-4.785 12.259-4.874 16.659-1.312 0.616 0.498 1.237 0.988 1.912 1.526z"></path>
<path fill="#fff" d="M36.561 52.21c0 2.174 0 4.244-0 6.314-0 0.74-0.001 0.742-0.738 0.742-2.534 0.001-5.067-0.014-7.601 0.012-0.539 0.005-0.738-0.105-0.724-0.696 0.042-1.886 0.015-3.773 0.015-5.659 0-0.201 0-0.402 0-0.691-2.259 0-4.477 0-6.817 0 3.777-5.9 7.478-11.681 11.284-17.626 3.83 5.888 7.523 11.679 11.235 17.604-2.273-0-4.424-0-6.653-0z"></path>
</svg>
