<!-- Generated by IcoMoon.io -->
<svg version="1.1" xmlns="http://www.w3.org/2000/svg" width="64" height="64" viewBox="0 0 64 64">
<title>dlna</title>
<path fill="#fff" d="M48.116 30.41c-3.431 0-6.862 0.002-10.293-0.001-1.199-0.001-2.403 0.050-3.597-0.030-2.812-0.189-5.041-1.506-6.822-3.656-1.746-2.108-4.007-3.188-6.743-3.17-4.461 0.029-8.152 3.653-8.406 8.199-0.243 4.348 3.055 8.345 7.39 8.861 3.086 0.367 5.737-0.575 7.729-3.014 2.086-2.555 4.731-3.743 8.021-3.729 8.472 0.038 16.945 0.013 25.418 0.013 0.193 0 0.386-0.005 0.579 0.002 1.742 0.058 2.609 1.163 2.245 2.877-1.64 7.71-5.906 13.573-12.52 17.781-6.351 4.040-13.29 5.85-20.798 5.374-7.691-0.487-14.603-2.991-20.453-8.13-0.627-0.551-1.244-1.121-1.809-1.735-0.83-0.902-0.552-1.684 0.653-1.909 0.334-0.063 0.683-0.057 1.026-0.057 5.362-0.003 10.725 0.008 16.087-0.006 3.234-0.008 5.854 1.23 7.895 3.739 2.837 3.487 7.859 4.176 11.509 1.598 3.059-2.161 4.399-6.182 3.229-9.69-1.206-3.617-4.666-6.066-8.454-5.906-2.473 0.104-4.566 1.085-6.16 3.015-1.476 1.786-3.249 3.107-5.553 3.596-0.583 0.124-1.187 0.21-1.782 0.211-6.392 0.015-12.784 0.017-19.176 0.006-2.616-0.004-4.11-1.047-5.048-3.474-0.301-0.778-0.638-1.549-0.85-2.352-1.432-5.43-1.174-10.783 0.894-16.014 0.87-2.2 2.619-3.235 4.934-3.245 6.434-0.027 12.869-0.043 19.303 0.006 2.9 0.022 5.225 1.337 7.044 3.569 1.553 1.905 3.534 3.043 5.995 3.225 4.403 0.327 8.218-2.506 9.086-6.856 0.697-3.495-0.451-6.456-3.306-8.547-2.862-2.095-6.042-2.366-9.192-0.63-1.020 0.562-1.876 1.484-2.684 2.355-1.582 1.706-3.417 2.913-5.737 3.298-0.505 0.084-1.022 0.126-1.534 0.132-1.566 0.017-3.132 0.002-4.697 0.007-4.010 0.012-8.021 0.034-12.031 0.031-0.393-0-0.805-0.104-1.175-0.245-0.697-0.266-0.842-0.629-0.511-1.31 0.164-0.337 0.421-0.647 0.692-0.912 4.675-4.576 10.228-7.526 16.642-8.767 6.795-1.315 13.499-0.922 19.971 1.634 6.588 2.602 11.939 6.764 15.553 12.959 1.435 2.459 2.425 5.098 2.967 7.9 0.352 1.815-0.446 2.929-2.276 2.982-2.4 0.070-4.803 0.046-7.205 0.053-2.016 0.007-4.032 0.001-6.049 0.001-0.001-0.014-0.001-0.027-0.001-0.042z"></path>
</svg>
