<!-- Generated by IcoMoon.io -->
<svg version="1.1" xmlns="http://www.w3.org/2000/svg" width="64" height="64" viewBox="0 0 64 64">
<title>firefox</title>
<path fill="#fff" d="M0.706 32.886c-0.1 0.599-0.201 1.199-0.301 1.798-0.224-3.461-0.143-6.897 0.775-10.275-0.050-0.012-0.1-0.025-0.15-0.037-0.344 0.755-0.687 1.51-1.031 2.264 0.434-2.65 1.043-5.25 2.156-7.698 0.494-1.087 1.134-2.106 1.66-3.179 0.138-0.281 0.15-0.65 0.134-0.975-0.135-2.716 0.145-5.364 1.371-7.831 0.37-0.745 0.895-1.414 1.365-2.107 0.116-0.171 0.297-0.298 0.524-0.519 0.18 2.197 1.261 3.809 2.638 5.286 0.586 0.629 1.303 0.717 2.027 0.58 1.98-0.374 3.937-0.333 5.9 0.085 0.197 0.042 0.51 0.014 0.626-0.113 1.731-1.896 3.971-2.775 6.415-3.241 0.59-0.112 1.197-0.136 1.796-0.2 0.012 0.054 0.023 0.108 0.035 0.162-0.174 0.118-0.346 0.239-0.522 0.353-1.965 1.271-3.176 3.063-3.674 5.34-0.044 0.2-0.049 0.458 0.040 0.63 0.825 1.593 1.968 2.685 3.936 2.618 1.277-0.044 2.561 0.024 3.838 0.092 0.668 0.036 0.776 0.21 0.753 0.886-0.036 1.071-0.46 1.9-1.4 2.495-1.453 0.919-2.865 1.901-4.296 2.855-0.54 0.36-0.74 0.777-0.528 1.468 0.364 1.185 0.476 2.419 0.329 3.667-0.707-0.248-1.391-0.521-2.096-0.727-0.907-0.264-2.172 0.295-2.6 1.133s-0.533 1.712-0.145 2.601c0.104 0.237 0.225 0.471 0.367 0.686 1.895 2.877 5.744 4.104 8.954 2.888 1.136-0.43 2.272-0.932 3.454-1.152 1.921-0.358 3.635 0.257 5.071 1.595 0.16 0.149 0.307 0.32 0.421 0.506 0.246 0.4 0.312 0.831 0.048 1.247-0.264 0.415-0.682 0.578-1.145 0.481-0.655-0.137-1.243 0.018-1.782 0.344-0.838 0.506-1.683 1.013-2.462 1.602-1.706 1.291-3.665 1.867-5.742 2.051-1.207 0.107-2.432 0.020-3.653 0.020 0 0.051-0.014 0.104 0.002 0.115 2.294 1.621 4.675 3.082 7.365 3.966 5.588 1.835 10.231 0.271 14.066-4.001 0.945-1.052 1.727-2.251 2.583-3.383 0.103-0.136 0.202-0.276 0.365-0.389-0.040 1.665-0.66 3.212-0.923 4.824 0.040 0.030 0.080 0.060 0.12 0.089 0.387-0.414 0.824-0.793 1.153-1.249 1.070-1.479 1.521-3.205 1.823-4.967 0.421-2.46 0.494-4.934 0.171-7.415-0.007-0.057 0.012-0.117 0.023-0.219 1.149 0.469 1.687 1.431 2.128 2.489 0.49-0.764 0.898-3.296 0.975-6.149 0.056-2.081-0.048-4.15-0.63-6.233 0.72 0.188 1.167 0.641 1.569 1.127 0.404 0.488 0.756 1.018 1.174 1.485-1.829-7.324-6.85-11.234-14.034-12.963 2.107-0.584 4.155-0.835 6.231-0.912 0.016-0.042 0.033-0.083 0.049-0.125-0.279-0.206-0.531-0.481-0.842-0.606-1.332-0.534-2.662-1.084-4.030-1.511-1.236-0.386-2.519-0.619-3.795-0.994 0.325-0.035 0.65-0.088 0.976-0.101 3.101-0.128 6.073 0.547 9.031 1.386 4.281 1.213 7.129 4.033 9.092 7.893 0.098 0.192 0.193 0.386 0.29 0.579 0.059-0.011 0.118-0.022 0.178-0.033-0.126-0.803-0.211-1.614-0.388-2.405s-0.447-1.562-0.581-2.417c0.243 0.291 0.528 0.558 0.724 0.878 1.284 2.096 2.261 4.334 2.732 6.747 0.552 2.824 0.986 5.672 1.472 8.509 0.026 0.148 0.064 0.294 0.19 0.437 0.192-1.209 0.383-2.419 0.575-3.628 0.026-0.005 0.052-0.009 0.078-0.013 0.026 0.077 0.074 0.153 0.076 0.23 0.198 8.041-0.999 15.806-4.781 23.006-4.207 8.008-10.85 12.868-19.647 14.788-5.411 1.181-10.839 1.284-16.23-0.162-6.983-1.873-12.432-5.923-16.515-11.837-2.568-3.719-4.496-7.739-5.42-12.196-0.158-0.761-0.263-1.533-0.393-2.3-0.037-0.007-0.074-0.013-0.11-0.020z"></path>
</svg>
