<!-- Generated by IcoMoon.io -->
<svg version="1.1" xmlns="http://www.w3.org/2000/svg" width="64" height="64" viewBox="0 0 64 64">
<title>gtv</title>
<path fill="#fff" d="M24.931 15.701c-0.244-0.337-0.388-0.548-0.544-0.751-3.097-4.013-6.201-8.021-9.291-12.039-0.705-0.916-0.574-1.667 0.334-2.234 0.571-0.356 1.315-0.232 1.978 0.412 1.171 1.136 2.325 2.289 3.46 3.46 3.435 3.546 6.857 7.105 10.286 10.657 0.656 0.679 0.677 0.676 1.337-0.003 4.455-4.583 8.909-9.168 13.37-13.746 0.306-0.314 0.644-0.606 1-0.861 0.831-0.597 1.188-0.564 1.911 0.117 0.56 0.526 0.635 1.085 0.152 1.841-0.462 0.723-0.969 1.42-1.495 2.097-2.676 3.447-5.365 6.884-8.049 10.325-0.16 0.205-0.313 0.416-0.566 0.755 0.595 0.033 1.063 0.057 1.53 0.085 4.464 0.267 8.938 0.428 13.387 0.85 2.062 0.195 4.094 0.834 6.105 1.394 1.599 0.445 2.155 1.332 2.155 2.98 0.001 12.036 0.002 24.073-0.004 36.109-0.001 0.77-0.045 1.542-0.1 2.311-0.095 1.347-0.675 2.137-2.006 2.45-1.885 0.443-3.787 0.831-5.699 1.138-5.174 0.833-10.403 0.95-15.624 0.946-7.249-0.006-14.499-0.143-21.747-0.274-4.316-0.078-8.555-0.728-12.702-1.95-1.495-0.441-2.074-1.173-2.075-2.715-0.011-12.631-0.021-25.262-0.030-37.893-0-0.33 0.012-0.661 0.029-0.991 0.059-1.152 0.65-1.944 1.753-2.208 1.882-0.451 3.781-0.841 5.685-1.194 4.31-0.798 8.685-0.758 13.042-0.943 0.747-0.032 1.494-0.078 2.416-0.126zM31.843 20.822c-8.488 0-16.975-0-25.463 0.001-0.331 0-0.661 0.015-0.992 0.016-0.471 0.001-0.678 0.249-0.676 0.703 0.001 0.198-0.006 0.397-0.006 0.595-0 11.861-0 23.721-0 35.582 0 0.154 0.004 0.309 0 0.463-0.011 0.469 0.246 0.683 0.685 0.713 0.22 0.015 0.441 0.011 0.661 0.011 17.086 0.001 34.171 0.001 51.257 0 0.198 0 0.397 0.004 0.595-0.004 1.026-0.042 1.073-0.091 1.073-1.118 0-11.949 0-23.898 0-35.847 0-0.132-0.006-0.265 0-0.397 0.022-0.477-0.24-0.682-0.68-0.707-0.242-0.014-0.485-0.012-0.727-0.012-8.576-0.001-17.152-0-25.728-0z"></path>
<path fill="#fff" d="M17.475 36.303c1.541 0 3.083-0.004 4.624 0.002 0.822 0.003 1.009 0.189 1.012 1.016 0.007 1.629 0.008 3.259-0 4.888-0.004 0.776-0.208 0.997-0.976 1-3.127 0.010-6.254 0.009-9.38 0.001-0.733-0.002-0.963-0.219-0.97-0.944-0.017-1.695-0.002-3.391-0.008-5.086-0.002-0.644 0.325-0.909 0.944-0.906 1.585 0.007 3.17 0.002 4.755 0.002-0 0.010-0 0.019-0 0.029z"></path>
<path fill="#fff" d="M17.492 26.798c1.544-0 3.087-0.006 4.63 0.002 0.782 0.004 0.983 0.2 0.988 0.978 0.010 1.654 0.010 3.307-0 4.961-0.005 0.733-0.225 0.961-0.947 0.963-3.153 0.008-6.306-0.005-9.459 0.011-0.589 0.003-0.886-0.267-0.893-0.813-0.023-1.807-0.028-3.614-0.011-5.422 0.005-0.528 0.377-0.686 0.863-0.684 1.61 0.009 3.219 0.004 4.829 0.003z"></path>
<path fill="#fff" d="M32.044 43.213c-1.541 0-3.081 0.004-4.622-0.002-0.796-0.003-0.987-0.159-1-0.961-0.027-1.716-0.009-3.433-0.020-5.15-0.004-0.708 0.454-0.828 1.011-0.826 1.584 0.004 3.169 0.016 4.753 0.021 1.519 0.005 3.037 0.001 4.556 0.008 0.814 0.004 0.978 0.159 0.982 0.965 0.009 1.673-0.012 3.346 0.010 5.018 0.008 0.658-0.293 0.913-0.916 0.91-1.585-0.008-3.169-0.003-4.754-0.003 0 0.007 0 0.013 0 0.018z"></path>
<path fill="#fff" d="M46.297 43.213c-1.542 0-3.084 0.006-4.626-0.002-0.807-0.004-0.973-0.172-0.975-0.969-0.005-1.696 0.015-3.392-0.010-5.088-0.009-0.635 0.278-0.882 0.869-0.88 3.216 0.011 6.432 0.022 9.647 0.029 0.527 0.001 0.761 0.273 0.761 0.78 0.001 1.784 0 3.568 0.001 5.353 0.001 0.616-0.375 0.78-0.91 0.778-1.586-0.005-3.172-0.002-4.758-0.001z"></path>
<path fill="#fff" d="M17.41 53.033c-1.541 0-3.082 0.007-4.623-0.002-0.844-0.005-0.938-0.104-0.951-0.962-0.025-1.628-0.048-3.257-0.055-4.885-0.004-0.87 0.182-1.055 1.041-1.056 3.082-0.005 6.164-0.006 9.246 0.001 0.84 0.002 1.041 0.214 1.044 1.066 0.006 1.607 0.006 3.214-0 4.821-0.003 0.825-0.181 1.009-1.013 1.014-1.563 0.010-3.126 0.003-4.689 0.003z"></path>
<path fill="#fff" d="M32.049 26.798c1.565 0 3.131-0.005 4.696 0.002 0.779 0.004 0.952 0.163 0.958 0.924 0.012 1.675 0.012 3.351-0.001 5.027-0.006 0.749-0.208 0.951-0.948 0.952-3.153 0.008-6.306-0.003-9.459 0.009-0.589 0.002-0.85-0.255-0.853-0.829-0.009-1.763-0.023-3.526-0.039-5.29-0.006-0.606 0.327-0.802 0.883-0.798 1.587 0.010 3.175 0.004 4.762 0.003z"></path>
<path fill="#fff" d="M32.034 53.033c-1.563 0-3.126-0.015-4.689 0.008-0.644 0.010-0.913-0.234-0.908-0.891 0.011-1.695-0.026-3.389-0.031-5.084-0.002-0.742 0.192-0.935 0.946-0.936 3.126-0.007 6.252-0.007 9.378 0 0.784 0.002 0.97 0.194 0.974 0.987 0.009 1.651 0.009 3.302 0 4.953-0.004 0.809-0.152 0.955-0.981 0.961-1.563 0.011-3.126 0.003-4.689 0.003z"></path>
<path fill="#fff" d="M46.301 53.033c-1.541 0-3.081 0.008-4.622-0.003-0.836-0.005-0.974-0.134-0.983-0.953-0.018-1.672-0.023-3.345-0.014-5.017 0.004-0.741 0.204-0.93 0.956-0.931 3.125-0.006 6.25-0.006 9.376 0 0.759 0.002 0.946 0.186 0.95 0.929 0.008 1.695 0.009 3.389 0 5.084-0.004 0.728-0.159 0.882-0.909 0.888-1.584 0.012-3.169 0.004-4.754 0.004z"></path>
<path fill="#fff" d="M46.35 26.798c1.541-0 3.082-0.003 4.623 0.001 0.828 0.002 0.988 0.148 0.992 0.942 0.008 1.673 0.008 3.346-0 5.020-0.004 0.764-0.178 0.942-0.934 0.943-3.126 0.006-6.252 0.006-9.378 0-0.752-0.001-0.95-0.195-0.954-0.93-0.009-1.717 0.007-3.434-0.008-5.151-0.005-0.596 0.264-0.832 0.84-0.828 1.606 0.011 3.213 0.004 4.82 0.003z"></path>
</svg>
