<!-- Generated by IcoMoon.io -->
<svg version="1.1" xmlns="http://www.w3.org/2000/svg" width="64" height="64" viewBox="0 0 64 64">
<title>ie</title>
<path fill="#fff" d="M22.139 14.902c-5.793 2.901-10.218 7.408-14.648 11.997 0.074-0.309 0.13-0.624 0.223-0.927 3.407-11.028 10.715-17.929 21.97-20.489 2.203-0.501 4.542-0.394 6.817-0.589 0.386-0.033 0.788-0.12 1.141-0.276 3.648-1.617 7.405-2.914 11.342-3.573 3.075-0.514 6.161-0.49 9.122 0.694 3.075 1.229 4.676 3.544 4.902 6.83 0.159 2.318-0.242 4.563-0.965 6.751-0.432 1.305-0.962 2.578-1.409 3.879-0.088 0.256-0.089 0.624 0.032 0.855 2.089 3.983 3.219 8.217 3.306 12.712 0.028 1.457-0.084 2.917-0.135 4.435-13.703 0-27.292 0-41.020 0 0.080 0.766 0.096 1.468 0.232 2.147 1.049 5.203 5.624 9.304 10.914 9.888 4.525 0.5 8.439-0.718 11.646-3.996 0.524-0.536 0.927-1.188 1.415-1.762 0.153-0.18 0.401-0.395 0.607-0.396 4.844-0.019 9.688-0.010 14.532-0.005 0.039 0 0.078 0.032 0.228 0.099-0.538 1.186-1.004 2.41-1.624 3.551-4.335 7.982-10.911 13.036-19.834 14.867-6.056 1.242-11.935 0.511-17.563-2.070-0.498-0.229-0.882-0.217-1.364 0.023-3.436 1.709-7.006 3.036-10.823 3.599-1.791 0.264-3.582 0.322-5.357-0.15-3.042-0.809-4.895-3.079-5.37-6.495-0.455-3.274 0.096-6.454 0.727-9.647 0.657-3.324 2.19-6.283 3.743-9.221 4.455-8.43 10.003-16.049 17.036-22.537 0.065-0.059 0.119-0.13 0.178-0.196zM48.558 29.316c-0.396-6.993-6.557-12.209-13.839-11.666-7.66 0.571-11.906 6.7-11.888 11.666 8.563 0 17.125 0 25.727 0zM20.695 58.147c-5.879-3.615-9.97-8.607-12.373-15.090-1.284 2.542-2.283 5.017-2.861 7.622-0.343 1.546-0.576 3.162-0.537 4.739 0.077 3.127 2.051 5.155 5.161 5.52 0.851 0.1 1.733 0.096 2.586 0.004 2.843-0.307 5.425-1.391 8.026-2.795zM45.778 6.815c5.917 2.413 10.466 6.216 13.894 11.525 0.856-2.378 1.575-4.618 1.77-7.011 0.355-4.358-2.945-7.089-6.808-6.979-3.076 0.088-5.892 1.161-8.856 2.465z"></path>
</svg>
