<!-- Generated by IcoMoon.io -->
<svg version="1.1" xmlns="http://www.w3.org/2000/svg" width="64" height="64" viewBox="0 0 64 64">
<title>ios</title>
<path fill="#fff" d="M23.38 27.263c-0.233 0.174-0.451 0.339-0.672 0.502-0.264 0.194-0.49 0.429-0.718 0.662-0.35 0.358-0.652 0.755-0.909 1.183-0.268 0.447-0.488 0.919-0.635 1.42-0.097 0.33-0.171 0.666-0.212 1.011-0.040 0.334-0.068 0.668-0.051 1.002 0.015 0.289 0.053 0.578 0.083 0.866 0.043 0.411 0.152 0.806 0.286 1.195 0.157 0.454 0.371 0.878 0.626 1.283 0.307 0.488 0.683 0.92 1.108 1.306 0.358 0.325 0.744 0.617 1.169 0.853 0.223 0.124 0.45 0.239 0.692 0.366-0.003 0.018-0.007 0.054-0.018 0.089-0.181 0.577-0.391 1.142-0.652 1.688-0.168 0.35-0.334 0.702-0.516 1.045-0.308 0.581-0.655 1.138-1.038 1.673-0.267 0.373-0.528 0.751-0.803 1.117-0.157 0.209-0.335 0.403-0.509 0.599-0.15 0.168-0.3 0.338-0.464 0.492-0.383 0.357-0.797 0.673-1.282 0.883-0.309 0.134-0.626 0.241-0.966 0.257-0.263 0.013-0.529 0.045-0.79 0.023-0.414-0.035-0.818-0.133-1.21-0.281-0.578-0.217-1.127-0.507-1.725-0.676-0.283-0.080-0.567-0.151-0.861-0.165-0.379-0.018-0.759-0.035-1.138-0.026-0.226 0.005-0.451 0.052-0.675 0.095-0.606 0.116-1.169 0.362-1.733 0.601-0.365 0.155-0.735 0.295-1.12 0.39-0.418 0.103-0.845 0.126-1.268 0.089-0.467-0.040-0.893-0.226-1.296-0.465-0.542-0.321-0.988-0.755-1.405-1.214-0.343-0.379-0.668-0.777-0.955-1.203-0.304-0.451-0.626-0.889-0.928-1.341-0.165-0.247-0.308-0.509-0.455-0.767-0.138-0.243-0.279-0.485-0.398-0.737-0.262-0.554-0.53-1.107-0.731-1.689-0.157-0.454-0.336-0.901-0.474-1.361-0.149-0.501-0.271-1.010-0.387-1.52-0.075-0.327-0.122-0.66-0.176-0.99-0.043-0.257-0.084-0.514-0.114-0.773-0.021-0.18-0.027-0.363-0.031-0.544-0.012-0.563-0.025-1.125-0.027-1.688-0.001-0.175 0.034-0.35 0.053-0.524 0.010-0.099 0.017-0.199 0.032-0.298 0.046-0.309 0.086-0.619 0.147-0.925 0.077-0.388 0.181-0.77 0.312-1.145 0.226-0.644 0.509-1.26 0.883-1.834 0.221-0.339 0.453-0.667 0.732-0.96 0.149-0.157 0.285-0.326 0.445-0.47 0.364-0.326 0.734-0.646 1.163-0.887 0.243-0.136 0.482-0.283 0.732-0.405 0.382-0.186 0.777-0.342 1.194-0.435 0.248-0.056 0.494-0.13 0.745-0.167 0.268-0.039 0.542-0.047 0.813-0.062 0.14-0.008 0.28-0.003 0.42-0.001 0.358 0.004 0.705 0.078 1.051 0.162 0.653 0.158 1.273 0.412 1.895 0.659 0.403 0.16 0.809 0.314 1.232 0.412 0.262 0.060 0.529 0.063 0.795 0.003 0.439-0.098 0.852-0.271 1.271-0.429 0.533-0.202 1.066-0.406 1.607-0.585 0.321-0.107 0.655-0.178 0.988-0.244 0.209-0.042 0.426-0.044 0.639-0.064 0.095-0.009 0.19-0.031 0.284-0.026 0.247 0.012 0.495 0.032 0.741 0.056 0.255 0.025 0.512 0.043 0.763 0.091 0.291 0.055 0.578 0.134 0.865 0.212 0.477 0.13 0.921 0.343 1.354 0.576 0.325 0.175 0.636 0.376 0.915 0.62 0.22 0.192 0.445 0.381 0.645 0.592 0.202 0.213 0.378 0.452 0.564 0.681 0.041 0.051 0.075 0.108 0.103 0.15z"></path>
<path fill="#fff" d="M35.942 35.377c0.005-1.373 0.18-2.648 0.633-3.875 0.475-1.288 1.184-2.423 2.218-3.339 1.045-0.925 2.258-1.497 3.638-1.713 1.183-0.185 2.358-0.15 3.514 0.171 1.927 0.535 3.353 1.71 4.322 3.448 0.522 0.936 0.845 1.941 1.017 2.996 0.196 1.2 0.2 2.402 0.050 3.606-0.151 1.211-0.488 2.368-1.077 3.442-0.875 1.597-2.146 2.747-3.861 3.386-0.724 0.27-1.477 0.402-2.246 0.45-0.643 0.040-1.283 0.012-1.919-0.090-1.251-0.201-2.372-0.695-3.351-1.5-1.26-1.036-2.047-2.378-2.511-3.924-0.306-1.020-0.421-2.067-0.427-3.057zM38.822 35.21c0.011 0.241 0.019 0.482 0.033 0.723 0.046 0.813 0.197 1.607 0.47 2.375 0.318 0.894 0.782 1.698 1.492 2.342 1.026 0.931 2.234 1.26 3.59 1.055 0.956-0.145 1.745-0.615 2.403-1.315 0.655-0.697 1.069-1.527 1.347-2.432 0.252-0.817 0.364-1.656 0.39-2.508 0.032-1.033-0.068-2.052-0.368-3.045-0.281-0.93-0.706-1.783-1.378-2.497-0.996-1.057-2.224-1.491-3.661-1.33-0.961 0.108-1.773 0.531-2.453 1.214-0.621 0.624-1.040 1.372-1.336 2.193-0.375 1.042-0.516 2.123-0.529 3.225z"></path>
<path fill="#fff" d="M53.361 42.907c0.213-0.767 0.421-1.513 0.633-2.277 0.105 0.058 0.196 0.109 0.286 0.159 0.858 0.477 1.775 0.766 2.751 0.873 0.617 0.068 1.232 0.080 1.845-0.032 0.554-0.102 1.065-0.304 1.5-0.671 0.647-0.545 0.89-1.251 0.822-2.077-0.068-0.828-0.513-1.425-1.176-1.883-0.566-0.392-1.187-0.679-1.826-0.927-0.747-0.29-1.476-0.617-2.153-1.050-0.568-0.364-1.087-0.784-1.509-1.316-0.598-0.753-0.893-1.612-0.893-2.572-0.001-1.248 0.428-2.32 1.326-3.194 0.548-0.534 1.201-0.9 1.915-1.161 0.681-0.249 1.388-0.371 2.109-0.401 0.953-0.039 1.9 0.026 2.83 0.252 0.423 0.103 0.831 0.245 1.223 0.436 0.069 0.034 0.136 0.071 0.217 0.113-0.227 0.731-0.451 1.456-0.68 2.194-0.047-0.020-0.085-0.035-0.121-0.053-0.785-0.41-1.622-0.63-2.503-0.697-0.517-0.039-1.032-0.040-1.542 0.063-0.47 0.096-0.901 0.278-1.278 0.58-0.605 0.483-0.822 1.119-0.748 1.872 0.067 0.684 0.431 1.182 0.975 1.568 0.562 0.399 1.183 0.687 1.812 0.957 0.726 0.312 1.46 0.606 2.138 1.020 0.618 0.377 1.186 0.811 1.647 1.376 0.545 0.668 0.86 1.433 0.95 2.29 0.089 0.854 0.005 1.687-0.333 2.482-0.399 0.938-1.056 1.65-1.927 2.169-0.747 0.446-1.56 0.702-2.417 0.833-0.781 0.119-1.566 0.136-2.353 0.081-1.051-0.075-2.072-0.278-3.028-0.744-0.164-0.080-0.322-0.171-0.492-0.262z"></path>
<path fill="#fff" d="M30.64 31.384c0.899 0 1.786 0 2.683 0 0 4.098 0 8.191 0 12.293-0.892 0-1.782 0-2.683 0 0-4.094 0-8.188 0-12.293z"></path>
<path fill="#fff" d="M12.027 24.009c-0.043-0.345-0.053-0.676-0.018-1.012 0.030-0.298 0.079-0.591 0.152-0.88 0.088-0.348 0.21-0.684 0.357-1.012 0.182-0.407 0.4-0.793 0.655-1.158 0.178-0.253 0.358-0.505 0.583-0.719 0.25-0.237 0.494-0.484 0.763-0.698 0.239-0.191 0.502-0.353 0.766-0.51 0.231-0.138 0.473-0.262 0.718-0.373 0.395-0.18 0.803-0.329 1.234-0.399 0.215-0.035 0.432-0.060 0.648-0.086 0.032-0.004 0.065 0.006 0.109 0.011 0.006 0.040 0.015 0.077 0.015 0.113 0.001 0.299 0.018 0.6-0.005 0.897-0.021 0.272-0.085 0.541-0.13 0.811-0.076 0.46-0.248 0.891-0.43 1.314-0.166 0.387-0.383 0.749-0.623 1.097-0.208 0.302-0.436 0.587-0.691 0.85-0.357 0.369-0.757 0.687-1.193 0.959-0.562 0.351-1.162 0.605-1.817 0.727-0.335 0.062-0.671 0.093-1.010 0.083-0.023-0.001-0.046-0.007-0.084-0.013z"></path>
<path fill="#fff" d="M31.99 29.482c-0.796 0.017-1.438-0.468-1.6-1.23-0.139-0.654 0.045-1.321 0.625-1.73 0.188-0.133 0.397-0.221 0.625-0.251 0.682-0.092 1.281 0.053 1.698 0.648 0.256 0.365 0.317 0.779 0.255 1.215-0.083 0.577-0.395 0.982-0.925 1.219-0.214 0.096-0.444 0.126-0.677 0.13z"></path>
</svg>
