<!-- Generated by IcoMoon.io -->
<svg version="1.1" xmlns="http://www.w3.org/2000/svg" width="64" height="64" viewBox="0 0 64 64">
<title>kodi</title>
<path fill="#fff" d="M19.969 24.241c0-3.683-0-7.366 0-11.048 0-1.253 0.424-2.321 1.326-3.216 2.733-2.712 5.447-5.442 8.172-8.161 0.321-0.321 0.689-0.596 0.996-0.928 0.505-0.548 1.102-0.831 1.839-0.673 0.371 0.079 0.809 0.167 1.065 0.411 2.076 1.979 4.123 3.989 6.166 6.002 1.465 1.443 2.914 2.903 4.364 4.362 1.211 1.218 1.215 2.47-0.008 3.693-7.307 7.304-14.619 14.602-21.929 21.903-0.017 0.017-0.031 0.041-0.052 0.049-0.418 0.173-0.973 0.591-1.224 0.455-0.352-0.191-0.609-0.779-0.671-1.23-0.106-0.775-0.030-1.575-0.030-2.364-0-3.085-0-6.17-0-9.255-0.005 0-0.010 0-0.014 0z"></path>
<path fill="#fff" d="M63.877 31.945c0.094 0.744-0.254 1.311-0.738 1.796-3.392 3.404-6.78 6.811-10.197 10.19-1.081 1.070-2.349 1.034-3.429-0.036-3.36-3.333-6.714-6.672-10.056-10.023-1.187-1.19-1.167-2.597 0.024-3.791 3.275-3.284 6.554-6.564 9.838-9.838 1.327-1.323 2.52-1.31 3.846 0.015 3.314 3.312 6.625 6.627 9.941 9.938 0.49 0.489 0.893 1.006 0.77 1.75z"></path>
<path fill="#fff" d="M32.206 38.365c0.694-0.093 1.256 0.184 1.735 0.664 3.426 3.434 6.859 6.862 10.27 10.311 1.007 1.018 1.016 2.298 0.004 3.319-3.413 3.448-6.845 6.877-10.29 10.293-1 0.992-2.235 0.984-3.34 0.008-0.769-0.679-1.487-1.417-2.213-2.143-2.584-2.587-5.165-5.177-7.738-7.774-0.785-0.792-1.434-1.671-0.902-2.86 0.199-0.446 0.523-0.862 0.87-1.212 3.249-3.274 6.515-6.53 9.777-9.791 0.502-0.502 1.044-0.923 1.826-0.815z"></path>
<path fill="#fff" d="M12.22 31.895c0 3.419 0.007 6.838-0.010 10.257-0.002 0.395-0.081 0.812-0.227 1.178-0.219 0.547-0.608 0.612-1.085 0.252-0.114-0.086-0.21-0.195-0.312-0.296-3.128-3.127-6.261-6.248-9.376-9.387-0.54-0.544-1.21-1.067-1.037-1.989 0.054-0.286 0.128-0.622 0.314-0.821 1.73-1.849 3.476-3.684 5.24-5.501 1.516-1.56 3.063-3.090 4.596-4.633 0.084-0.085 0.155-0.206 0.257-0.246 0.376-0.149 0.852-0.468 1.12-0.347 0.276 0.125 0.493 0.688 0.497 1.061 0.036 3.49 0.021 6.981 0.022 10.472z"></path>
</svg>
