<!-- Generated by IcoMoon.io -->
<svg version="1.1" xmlns="http://www.w3.org/2000/svg" width="64" height="64" viewBox="0 0 64 64">
<title>lg</title>
<path fill="#fff" d="M30.203 31.797c0 8.176-6.654 14.832-14.835 14.82-7.927-0.011-14.818-6.28-14.812-14.838 0.005-8.282 6.541-14.82 14.841-14.803 8.618 0.017 14.807 6.969 14.806 14.822zM26.577 32.388c-0.087 4.433-3.485 9.518-9.37 10.487-6.122 1.008-11.584-2.989-12.814-8.656-0.632-2.912-0.221-5.696 1.362-8.228 2.347-3.754 5.815-5.502 10.222-5.453 0-0.387 0-0.761 0-1.134-4.114-0.281-9.226 1.824-11.763 6.923-2.454 4.932-1.296 10.953 2.811 14.672 4.153 3.762 10.224 4.309 14.953 1.326 2.328-1.468 3.999-3.496 4.997-6.067 0.628-1.617 0.882-3.296 0.813-5.032-2.967 0-5.909 0-8.864 0 0 0.39 0 0.768 0 1.162 2.558-0 5.097-0 7.652-0zM15.991 37.112c0-0.129 0-0.221 0-0.313 0-3.731 0-7.463 0-11.194 0-0.060-0.004-0.119 0-0.179 0.009-0.118-0.038-0.166-0.16-0.163-0.278 0.006-0.556 0.012-0.833-0.002-0.178-0.008-0.237 0.042-0.237 0.23 0.005 4.194 0.005 8.389-0 12.583-0 0.198 0.065 0.239 0.249 0.237 1.224-0.007 2.448-0.004 3.672-0.004 0.072 0 0.143 0 0.244 0 0-0.343-0.008-0.665 0.003-0.987 0.006-0.166-0.050-0.214-0.214-0.212-0.82 0.007-1.641 0.003-2.461 0.003-0.078 0-0.155 0-0.263 0zM12.434 27.068c0.003-0.987-0.799-1.798-1.785-1.805s-1.799 0.796-1.805 1.782c-0.006 0.985 0.799 1.8 1.783 1.805 0.985 0.004 1.804-0.803 1.807-1.783z"></path>
<path fill="#fff" d="M63.467 30.606c0 2.864 0 5.707 0 8.571-1.242 0-2.479 0-3.742 0 0-0.468 0-0.933 0-1.433-0.203 0.226-0.366 0.432-0.553 0.612-0.683 0.656-1.518 1-2.441 1.136-1.187 0.174-2.348 0.075-3.462-0.4-1.234-0.526-2.145-1.407-2.8-2.565-0.599-1.058-0.906-2.207-1.035-3.409-0.148-1.367-0.103-2.723 0.28-4.051 0.797-2.764 2.635-4.391 5.453-4.899 1.534-0.277 3.058-0.208 4.54 0.311 1.243 0.436 2.298 1.139 3.011 2.276 0.431 0.688 0.584 1.467 0.687 2.258 0.013 0.097 0.028 0.195 0.046 0.318-0.064 0.003-0.126 0.010-0.188 0.010-1.389 0.001-2.779-0.002-4.169 0.003-0.151 0.001-0.215-0.034-0.245-0.197-0.229-1.234-1.281-1.773-2.308-1.679-1.182 0.108-1.823 0.859-2.22 1.888-0.211 0.547-0.315 1.12-0.352 1.703-0.066 1.061-0.039 2.117 0.31 3.138 0.211 0.618 0.523 1.173 1.050 1.579 1.371 1.055 3.326 0.436 3.877-1.228 0.090-0.274 0.157-0.557 0.246-0.875-0.112 0-0.182 0-0.251 0-0.794 0-1.588-0.005-2.382 0.004-0.168 0.002-0.213-0.053-0.212-0.214 0.006-0.887 0.005-1.774 0.001-2.66-0.001-0.139 0.019-0.215 0.192-0.215 2.17 0.006 4.341 0.004 6.511 0.004 0.045 0 0.090 0.008 0.157 0.013z"></path>
<path fill="#fff" d="M48.501 35.522c0 1.233 0 2.44 0 3.661-3.613 0-7.216 0-10.834 0 0-4.923 0-9.841 0-14.77 1.44 0 2.872 0 4.331 0 0 0.092 0 0.175 0 0.259 0 3.526 0 7.053 0 10.579 0 0.271 0 0.271 0.267 0.271 1.985 0 3.97 0 5.954 0 0.086 0 0.171 0 0.281 0z"></path>
</svg>