<!-- Generated by IcoMoon.io -->
<svg version="1.1" xmlns="http://www.w3.org/2000/svg" width="64" height="64" viewBox="0 0 64 64">
<title>linux</title>
<path fill="#fff" d="M53.080 44.39c1.297 0.519 1.843 1.562 2.151 2.781 0.107 0.425 0.202 0.852 0.298 1.28 0.185 0.826 0.529 1.553 1.097 2.208 0.483 0.557 0.912 1.189 1.236 1.851 0.61 1.249 0.377 2.332-0.746 3.144-0.863 0.624-1.826 1.129-2.791 1.59-1.804 0.862-3.404 1.945-4.733 3.474-1.278 1.471-2.901 2.465-4.86 2.821-2.532 0.46-4.745-0.742-5.767-3.105-0.085-0.197-0.305-0.451-0.487-0.472-1.435-0.168-2.884-0.229-4.313-0.433-1.862-0.264-3.671 0.014-5.488 0.331-0.755 0.132-1.517 0.22-2.27 0.36-0.185 0.034-0.421 0.149-0.509 0.3-1.115 1.91-2.913 2.439-4.942 2.396-1.596-0.033-3.137-0.444-4.541-1.201-1.825-0.983-3.802-1.277-5.811-1.522-0.996-0.122-2.007-0.261-2.963-0.551-1.469-0.445-2.111-1.593-1.886-3.117 0.057-0.389 0.087-0.802 0.242-1.154 0.544-1.236 0.364-2.48 0.172-3.747-0.095-0.623-0.137-1.28-0.050-1.901 0.169-1.21 0.912-2.108 2.048-2.442 1.809-0.531 3.105-1.588 4.129-3.139 0.336-0.509 0.527-0.921 0.476-1.526-0.184-2.187 0.299-4.278 1.051-6.311 1.495-4.044 3.876-7.56 6.564-10.887 2.323-2.876 3.356-6.167 3.176-9.848-0.119-2.432-0.366-4.863-0.044-7.296 0.285-2.154 0.927-4.156 2.531-5.727 1.339-1.311 2.995-1.935 4.813-2.227 2-0.322 3.984-0.322 5.914 0.341 2.542 0.873 4.049 2.757 4.91 5.223 0.822 2.353 0.992 4.802 1.027 7.268 0.021 1.47-0.052 2.946 0.052 4.41 0.134 1.887 0.944 3.555 2.033 5.071 0.895 1.247 1.855 2.449 2.812 3.65 2.172 2.726 4.078 5.606 5.209 8.936 0.99 2.915 1.236 5.862 0.333 8.851-0.025 0.081-0.035 0.166-0.068 0.319zM23.717 52.92c0.211 0.279 0.446 0.537 0.622 0.832 0.72 1.208 1.685 2.114 3.038 2.57 0.291 0.098 0.572 0.226 0.865 0.313 4.063 1.203 7.701 0.146 11.104-2.112 0.133-0.089 0.264-0.257 0.297-0.409 0.285-1.349 0.588-2.695 0.804-4.055 0.23-1.449 0.295-2.927 0.573-4.364 0.268-1.384 0.985-2.525 2.336-3.166 0.153-0.073 0.264-0.324 0.312-0.513 0.352-1.401 1.167-1.961 2.615-1.749 1.397 0.205 2.639 0.802 3.805 1.567 0.794 0.521 1.359 1.183 1.233 2.3 0.205-0.088 0.401-0.206 0.437-0.361 0.157-0.695-0.052-1.338-0.549-1.809-0.536-0.508-1.148-0.945-1.765-1.356-0.484-0.322-1.026-0.558-1.548-0.835 0.498-2.254 0.127-4.365-0.736-6.412-0.968-2.295-2.969-4.985-3.945-5.162 0.301 0.342 0.524 0.599 0.752 0.852 1.913 2.126 3.075 4.583 3.212 7.464 0.047 0.979-0.077 1.957-0.521 2.861-0.478-0.067-0.904-0.127-1.343-0.189-0.486-2.601-1.368-5.029-2.583-7.33-1.655-3.133-2.995-6.395-4.112-9.753-0.286-0.861-0.541-1.732-0.792-2.539-0.671 0.455-1.294 0.935-1.97 1.322-0.91 0.521-1.843 1.009-2.8 1.437-0.692 0.31-1.422 0.598-2.164 0.723-1.316 0.222-2.445-0.263-3.433-1.151-0.585-0.525-1.237-0.974-1.953-1.531-0.182 2.112-0.617 3.975-1.336 5.748-1.021 2.52-2.114 5.011-3.221 7.495-0.863 1.937-1.52 3.927-1.826 6.027-0.105 0.717-0.177 1.438-0.263 2.158-0.077 0.016-0.153 0.033-0.23 0.049-0.318-0.873-0.735-1.725-0.935-2.624-0.434-1.955-0.023-3.852 0.724-5.662 0.509-1.234 1.152-2.413 1.729-3.62 0.091-0.192 0.148-0.4 0.221-0.6-1.5 2.206-2.783 4.497-3.407 7.091-0.878 3.653 0.168 6.476 3.379 8.392 1.048 0.626 2.004 1.423 2.94 2.214 0.925 0.782 1.716 1.701 2.203 2.838 0.673 1.571 0.152 2.823-1.624 2.958-0.035 0.003-0.068 0.041-0.146 0.091zM21.211 62.145c0.682-0.143 1.389-0.215 2.041-0.443 1.86-0.652 2.861-2.645 2.114-4.467-0.466-1.138-1.144-2.232-1.917-3.194-1.573-1.96-3.005-3.996-4.125-6.249-0.322-0.648-0.642-1.307-1.052-1.898-0.42-0.606-0.882-1.216-1.444-1.683-1.349-1.122-2.731-0.939-3.851 0.412-0.126 0.152-0.261 0.3-0.362 0.469-0.865 1.442-2.094 2.337-3.727 2.819-1.63 0.48-2.169 1.497-1.912 3.183 0.241 1.588 0.513 3.169-0.207 4.713-0.072 0.155-0.083 0.34-0.114 0.512-0.274 1.516 0.22 2.306 1.711 2.665 0.574 0.138 1.163 0.233 1.751 0.286 2.416 0.219 4.768 0.618 6.953 1.791 1.262 0.677 2.672 0.976 4.142 1.086zM43.475 43.443c-0.62 0.345-1.092 0.844-1.301 1.507-0.27 0.852-0.574 1.728-0.629 2.608-0.181 2.905-0.622 5.747-1.541 8.519-0.259 0.781-0.378 1.632-0.415 2.458-0.115 2.571 1.937 4.465 4.499 4.215 1.961-0.191 3.58-1.128 4.819-2.576 1.56-1.823 3.493-3.034 5.63-4.008 0.636-0.29 1.261-0.624 1.843-1.011 0.989-0.658 1.167-1.376 0.616-2.426-0.263-0.501-0.565-1.006-0.95-1.413-0.821-0.866-1.222-1.898-1.455-3.037-0.122-0.598-0.283-1.199-0.517-1.761-0.661-1.59-2.618-1.998-3.977-0.971-0.773 0.584-1.668 1.070-2.582 1.389-1.43 0.5-2.621-0.039-3.302-1.393-0.319-0.633-0.48-1.346-0.737-2.099zM30.398 22.602c0.957 0.022 1.793-0.337 2.611-0.792 0.821-0.456 1.661-0.879 2.506-1.291 0.802-0.391 1.536-0.858 2.008-1.642 0.533-0.888 0.351-1.701-0.501-2.28-0.145-0.098-0.298-0.188-0.457-0.259-1.396-0.629-2.789-1.261-4.191-1.875-1.594-0.698-3.117-0.613-4.518 0.484-0.898 0.703-1.785 1.419-2.668 2.139-0.641 0.523-0.799 1.104-0.36 1.796 0.309 0.486 0.754 0.903 1.195 1.284 0.612 0.529 1.297 0.972 1.915 1.493 0.719 0.605 1.514 0.958 2.461 0.943zM36.804 15.898c1.332-1.645 1.302-4.347-0.029-5.893-1.299-1.509-3.269-1.431-4.428 0.191-0.736 1.031-0.941 2.191-0.77 3.449 0.502 0.162 0.993 0.32 1.413 0.455 0.142-0.637 0.221-1.247 0.422-1.813 0.191-0.538 0.601-0.96 1.227-0.926 0.59 0.032 0.918 0.469 1.117 0.987 0.403 1.051 0.328 2.048-0.418 2.967 0.504 0.2 0.968 0.385 1.466 0.583zM28.084 14.13c0.249-0.104 0.55-0.187 0.8-0.348 0.153-0.099 0.322-0.316 0.325-0.483 0.018-1.004-0.179-1.966-0.78-2.798-0.984-1.362-2.5-1.265-3.244 0.243-0.798 1.617-0.656 3.227 0.247 4.774 0.095 0.162 0.244 0.292 0.395 0.467 0.274-0.209 0.507-0.388 0.748-0.572-0.669-0.848-0.859-1.732-0.59-2.707 0.115-0.418 0.295-0.823 0.779-0.87 0.524-0.050 0.797 0.35 0.944 0.77 0.17 0.484 0.251 0.999 0.376 1.523z"></path>
<path fill="#fff" d="M25.504 17.748c0.166 0.21 0.315 0.438 0.502 0.626 2.229 2.245 4.038 2.516 6.387 1.462 1.286-0.577 2.487-1.284 3.474-2.315 0.097-0.102 0.265-0.136 0.4-0.202 0.037 0.047 0.075 0.093 0.112 0.14-0.135 0.18-0.245 0.388-0.409 0.538-1.386 1.262-3.005 2.118-4.798 2.625-1.216 0.344-2.416 0.163-3.483-0.494-0.739-0.456-1.403-1.040-2.068-1.605-0.172-0.146-0.221-0.436-0.326-0.66 0.069-0.038 0.138-0.077 0.208-0.115z"></path>
<path fill="#fff" d="M29.612 15.203c-0.358 0.113-0.623 0.63-1.159 0.276 0.352-0.434 0.709-0.555 1.159-0.276z"></path>
<path fill="#fff" d="M31.169 15.216c0.462-0.311 0.806-0.139 1.14 0.241-0.512 0.425-0.773-0.169-1.14-0.241z"></path>
</svg>
