<!-- Generated by IcoMoon.io -->
<svg version="1.1" xmlns="http://www.w3.org/2000/svg" width="64" height="64" viewBox="0 0 64 64">
<title>macOS</title>
<path fill="#fff" d="M56.427 21.621c-4.621 3.193-7.264 7.356-6.859 13.082 0.401 5.687 3.507 9.477 8.49 11.933-0.859 2.561-1.826 5.027-3.285 7.239-1.417 2.149-2.977 4.206-4.529 6.261-0.458 0.606-1.069 1.114-1.669 1.593-2.419 1.931-5.125 2.192-7.984 1.226-1.188-0.401-2.312-0.993-3.504-1.375-2.568-0.823-5.146-0.882-7.706 0.106-1.356 0.524-2.714 1.048-4.095 1.497-2.516 0.818-4.843 0.428-6.873-1.309-0.834-0.714-1.655-1.464-2.372-2.292-4.982-5.755-8.102-12.407-9.339-19.91-0.759-4.604-0.721-9.198 1.008-13.619 2.029-5.189 5.633-8.737 11.118-10.132 2.477-0.63 4.971-0.634 7.41 0.322 1.456 0.57 2.94 1.067 4.403 1.619 1.255 0.474 2.488 0.462 3.742-0.013 1.586-0.602 3.161-1.245 4.782-1.735 5.946-1.799 11.228-0.63 15.737 3.705 0.548 0.527 0.991 1.165 1.526 1.803z"></path>
<path fill="#fff" d="M44.761 0.019c0.964 5.989-4.334 14.858-12.66 14.692-0.324-1.196-0.139-2.393 0.11-3.57 1.229-5.811 6.154-10.347 12.039-11.119 0.168-0.022 0.343-0.003 0.51-0.003z"></path>
</svg>
