<!-- Generated by IcoMoon.io -->
<svg version="1.1" xmlns="http://www.w3.org/2000/svg" width="64" height="64" viewBox="0 0 64 64">
<title>msedge</title>
<path fill="#fff" d="M27.374 24.467c0.31-0.182 0.635-0.345 0.965-0.487l0.037-0.015c0.001-0 0.002-0.001 0.003-0.001 0.592-0.25 1.213-0.433 1.844-0.543 0.494-0.086 0.996-0.129 1.495-0.129 1.855 0 3.592 0.591 5.017 1.609-0.35-0.579-0.742-1.141-1.175-1.683-1.129-1.413-2.516-2.664-4.12-3.719-1.083-0.712-2.262-1.331-3.504-1.839-2.715-1.114-5.743-1.703-8.759-1.703-3.885 0-7.654 1.106-10.901 3.198-3.086 1.989-5.566 4.773-7.177 8.055-0.245 1.575-0.369 3.188-0.369 4.798 0 8.102 3.099 15.769 8.727 21.59 5.666 5.863 13.196 9.2 21.301 9.464-0.709-0.233-1.407-0.505-2.093-0.816-2.617-1.183-4.931-2.862-6.878-4.99-0.053-0.056-0.109-0.12-0.166-0.183-3.452-3.863-5.354-8.848-5.354-14.035 0-6.244 2.746-12.13 7.533-16.148 1.109-0.929 2.311-1.744 3.576-2.423z"></path>
<path fill="#fff" d="M62.724 28.806c0.085-0.731 0.129-1.499 0.129-2.285 0-0.728-0.048-1.455-0.142-2.162-0.194-1.445-0.74-3.421-1.391-5.034-1.995-4.943-5.351-9.205-9.707-12.326-5.929-4.249-11.855-6.062-19.813-6.062-13.874 0-25.737 8.96-29.688 21.849 1.488-1.908 3.295-3.562 5.352-4.888 3.489-2.248 7.538-3.437 11.711-3.437 3.209 0 6.434 0.628 9.327 1.815 1.33 0.545 2.595 1.209 3.759 1.973 1.736 1.141 3.24 2.499 4.468 4.035 1.923 2.408 3.107 5.161 3.52 8.182 0.091 0.507 0.137 1.025 0.139 1.539v0.028c0 1.95-0.623 3.794-1.801 5.334-0.247 0.323-0.521 0.634-0.814 0.922-0.014 0.051-0.032 0.165-0.032 0.424 0 0.411 0.18 0.794 0.497 1.058 0.131 0.077 0.265 0.151 0.399 0.221l0.024 0.013c0.017 0.010 0.033 0.019 0.050 0.027l0.035 0.017c2.312 1.216 4.927 1.833 7.773 1.833 4.039 0 7.64-1.020 10.414-2.948 3.289-2.287 5.293-5.789 5.793-10.128z"></path>
<path fill="#fff" d="M57.865 48.926l0.112-0.174c0.023-0.036 0.046-0.071 0.069-0.107 0.011-0.033 0.017-0.068 0.017-0.102 0-0.112-0.058-0.213-0.156-0.271-0.065-0.039-0.14-0.052-0.211-0.040-0.066 0.037-0.133 0.074-0.199 0.109l-0.024 0.013c-0.017 0.010-0.034 0.019-0.051 0.028-3.483 1.886-7.44 2.883-11.446 2.883-4.047 0-8.008-0.864-11.454-2.499-3.369-1.598-6.205-3.906-8.2-6.675-2.063-2.862-3.19-6.176-3.261-9.585-0.009-0.153-0.013-0.309-0.013-0.475 0-0.243 0.010-0.482 0.029-0.712l0.002-0.024c0.061-0.736 0.214-1.452 0.449-2.134-3.683 3.663-5.767 8.634-5.767 13.876 0 4.818 1.767 9.449 4.974 13.039 0.050 0.056 0.098 0.11 0.148 0.164 3.675 4.016 8.888 6.334 14.317 6.371 6.007-1.052 11.532-3.838 15.98-8.059 1.778-1.686 3.353-3.579 4.685-5.627z"></path>
</svg>
