<!-- Generated by IcoMoon.io -->
<svg version="1.1" xmlns="http://www.w3.org/2000/svg" width="64" height="64" viewBox="0 0 64 64">
<title>msedge</title>
<path fill="#fff" d="M21.073 38.209c-0.063 2.074 0.41 3.878 1.361 5.565 1.431 2.539 3.621 4.206 6.229 5.371 3.352 1.497 6.879 2.013 10.532 1.868 4.829-0.191 9.256-1.752 13.531-3.861 0.668-0.33 1.331-0.671 1.997-1.004 0.184-0.092 0.374-0.172 0.644-0.295 0 0.318 0 0.548 0 0.778 0 3.985-0.008 7.969 0.011 11.954 0.002 0.47-0.132 0.709-0.566 0.911-5.329 2.487-10.902 3.954-16.794 4.255-4.831 0.247-9.489-0.409-13.88-2.461-6.848-3.201-11.624-8.311-13.585-15.697-2.89-10.885 1.409-23.494 13.815-28.952 0.206-0.091 0.42-0.163 0.673-0.201-2.549 2.79-3.7 6.149-4.253 9.84 7.489 0 14.89 0 22.367 0 0-0.389 0.036-0.749-0.006-1.099-0.178-1.456-0.27-2.934-0.592-4.358-0.931-4.115-3.56-6.582-7.654-7.478-3.562-0.78-7.126-0.593-10.644 0.252-8.642 2.075-15.514 6.803-20.709 13.995-0.258 0.357-0.49 0.731-0.735 1.097-0.047-0.014-0.094-0.028-0.141-0.041 0.121-0.78 0.22-1.564 0.365-2.339 1.101-5.872 3.411-11.181 7.371-15.71 3.93-4.494 8.775-7.555 14.584-8.928 7.073-1.672 13.991-1.091 20.551 2.144 7.579 3.739 12.387 9.819 14.642 17.935 0.768 2.763 1.141 5.587 1.131 8.459-0.008 2.408-0.002 4.816-0.002 7.223 0 0.23 0 0.461 0 0.774-13.427 0-26.797 0-40.242 0z"></path>
</svg>
