<!-- Generated by IcoMoon.io -->
<svg version="1.1" xmlns="http://www.w3.org/2000/svg" width="64" height="64" viewBox="0 0 64 64">
<title>opera</title>
<path fill="#fff" d="M51.873 9.622c-0.491-0.255-0.977-0.521-1.473-0.765-6.237-3.061-12.636-3.543-18.966-0.564-7.818 3.681-12.694 9.876-14.465 18.384-1.355 6.514-0.821 12.906 2.195 18.856 3.566 7.035 9.123 11.838 17.005 13.501 5.47 1.154 10.613 0.062 15.417-2.737 0.194-0.113 0.388-0.224 0.655-0.379-1.67 2.352-8.728 5.938-13.678 6.986-5.171 1.095-10.299 0.852-15.348-0.661-10.409-3.119-20.778-12.617-21.69-27.54-0.836-13.666 7.46-25.983 20.084-30.564 11.411-4.141 23.228-0.959 30.264 5.481z"></path>
<path fill="#fff" d="M23.473 15.562c1.020-1.256 2.137-2.394 3.39-3.392 2.879-2.294 6.024-4.147 9.691-4.733 6.245-0.998 12.131-0.176 17.114 4.14 2.68 2.321 4.586 5.237 6.138 8.387 1.601 3.249 2.644 6.682 2.89 10.302 0.615 9.036-2.155 16.904-8.336 23.544-1.74 1.87-3.979 2.995-6.332 3.802-6.824 2.34-13.274 1.472-19.292-2.525-1.903-1.264-3.632-2.72-5.012-4.563 0.567 0.505 1.112 1.039 1.706 1.511 5.102 4.060 11.475 3.778 16.305-0.672 3.329-3.067 5.269-6.896 6.29-11.242 0.784-3.334 1.11-6.711 0.757-10.128-0.489-4.737-1.96-9.13-4.794-12.996-1.722-2.35-3.868-4.253-6.657-5.222-4.687-1.628-8.867-0.608-12.539 2.664-0.42 0.374-0.812 0.778-1.219 1.166-0.005 0.005-0.031-0.013-0.1-0.043z"></path>
</svg>
