<!-- Generated by IcoMoon.io -->
<svg version="1.1" xmlns="http://www.w3.org/2000/svg" width="64" height="64" viewBox="0 0 64 64">
<title>playstation</title>
<path fill="#fff" d="M34.399 56.809c-3.399-1.165-6.699-2.296-10.050-3.444 0-15.391 0-30.761 0-46.173 0.562 0.154 1.134 0.308 1.704 0.469 4.119 1.159 8.246 2.29 12.353 3.49 2.137 0.624 4.145 1.568 5.986 2.839 3.781 2.611 5.726 6.217 5.83 10.808 0.053 2.333-0.125 4.642-0.944 6.853-0.224 0.603-0.507 1.198-0.849 1.742-1.153 1.834-2.831 2.756-5.006 2.744-1.69-0.009-3.249-0.53-4.806-1.242 0-0.205 0-0.406 0-0.607-0-5.427 0.001-10.855-0.001-16.282-0.001-1.212-0.711-2.262-1.825-2.719-1.122-0.46-2.021 0.005-2.265 1.198-0.071 0.347-0.090 0.711-0.091 1.067-0.016 12.851-0.026 25.703-0.037 38.554 0 0.203 0 0.404 0 0.705z"></path>
<path fill="#fff" d="M36.417 56.074c0-2.008 0-3.983 0-5.989 0.179-0.072 0.348-0.146 0.521-0.21 4.676-1.709 9.353-3.416 14.030-5.125 0.736-0.269 1.478-0.525 2.197-0.834 0.354-0.152 0.694-0.376 0.985-0.631 0.532-0.465 0.465-0.962-0.202-1.214-0.533-0.202-1.116-0.336-1.685-0.371-1.472-0.091-2.931 0.018-4.343 0.506-3.657 1.266-7.315 2.526-10.973 3.787-0.156 0.054-0.313 0.102-0.509 0.166 0-2.089 0-4.129 0-6.24 0.638-0.23 1.282-0.501 1.948-0.695 3.878-1.129 7.825-1.765 11.874-1.432 3.1 0.254 6.167 0.725 9.104 1.816 1.012 0.376 1.975 0.848 2.831 1.516 0.656 0.512 1.177 1.128 1.517 1.899 0.288 0.655 0.254 1.297-0.171 1.838-0.426 0.543-0.916 1.061-1.461 1.482-1.089 0.839-2.346 1.389-3.634 1.852-7.203 2.593-14.41 5.177-21.615 7.762-0.126 0.045-0.257 0.073-0.414 0.117z"></path>
<path fill="#fff" d="M22.222 35.254c0 2.044 0 4.020 0 6.048-0.848 0.323-1.704 0.65-2.56 0.974-2.806 1.060-5.613 2.118-8.419 3.18-0.222 0.084-0.444 0.178-0.65 0.295-0.286 0.164-0.559 0.368-0.534 0.747 0.025 0.369 0.297 0.581 0.605 0.695 0.363 0.135 0.748 0.269 1.13 0.292 1.985 0.121 3.942 0.068 5.825-0.734 1.268-0.54 2.589-0.958 3.886-1.431 0.158-0.057 0.317-0.114 0.52-0.187 0 1.821 0 3.6 0 5.466-0.948 0.16-1.916 0.327-2.884 0.488-3.535 0.586-7.010 0.134-10.449-0.675-1.622-0.382-3.231-0.845-4.807-1.385-0.775-0.265-1.523-0.709-2.175-1.211-1.708-1.316-1.692-3.257 0.017-4.57 0.59-0.453 1.262-0.809 1.925-1.154 2.262-1.176 4.694-1.93 7.084-2.786 3.594-1.288 7.194-2.56 10.792-3.836 0.207-0.073 0.42-0.13 0.697-0.214z"></path>
</svg>
