<!-- Generated by IcoMoon.io -->
<svg version="1.1" xmlns="http://www.w3.org/2000/svg" width="64" height="64" viewBox="0 0 64 64">
<title>plex</title>
<path fill="#fff" d="M9.528 63.949c8.213-10.706 16.347-21.309 24.511-31.952-8.148-10.627-16.281-21.235-24.502-31.957 0.352 0 0.585 0 0.818 0 3.256 0 6.512 0.004 9.769-0.001 2.944-0.004 5.887-0.010 8.831-0.035 0.493-0.004 0.828 0.158 1.132 0.551 8.077 10.413 16.164 20.818 24.249 31.225 0.040 0.052 0.068 0.114 0.137 0.233-0.124 0.173-0.256 0.371-0.401 0.559-7.992 10.281-15.987 20.56-23.973 30.847-0.298 0.383-0.606 0.582-1.113 0.58-6.267-0.015-12.534-0.009-18.802-0.011-0.169 0-0.338-0.019-0.656-0.038z"></path>
</svg>
