<!-- Generated by IcoMoon.io -->
<svg version="1.1" xmlns="http://www.w3.org/2000/svg" width="64" height="64" viewBox="0 0 64 64">
<title>plexamp</title>
<path fill="#fff" d="M36.553 54.883c1.174 0 2.191 0 3.242 0 5.304-7.575 10.611-15.157 15.923-22.743 2.767 0 5.518 0 8.282 0 0 0.817 0 1.589 0 2.409-2.503 0-4.977 0-7.481 0-5.394 7.693-10.775 15.369-16.156 23.045-2.692 0-5.368 0-8.164 0 5.977-8.567 11.906-17.067 17.873-25.62-5.357-7.668-10.712-15.332-16.044-22.963-1.088 0-2.12 0-3.256 0 5.372 7.696 10.698 15.327 16.043 22.985-5.995 8.55-11.973 17.078-17.956 25.613-2.671 0-5.325 0-8.108 0 5.975-8.58 11.899-17.085 17.852-25.633-5.34-7.654-10.679-15.308-16.034-22.983-1.068 0-2.144 0-3.342 0 5.266 7.527 10.492 14.996 15.765 22.532-11.713 0-23.328 0-34.99 0 0-0.683 0-1.37 0-2.114 10.297 0 20.592 0 31.080 0-5.388-7.731-10.687-15.335-16.037-23.013 2.738 0 5.369 0 8.090 0 5.939 8.469 11.918 16.994 17.931 25.567-5.313 7.599-10.621 15.192-15.982 22.862 1.146 0 2.192 0 3.303 0 5.295-7.577 10.619-15.195 15.96-22.837-5.94-8.518-11.868-17.020-17.849-25.598 2.772 0 5.425 0 8.13 0 5.962 8.492 11.946 17.015 17.954 25.572-5.322 7.611-10.632 15.206-16.025 22.919z"></path>
</svg>
