<!-- Generated by IcoMoon.io -->
<svg version="1.1" xmlns="http://www.w3.org/2000/svg" width="64" height="64" viewBox="0 0 64 64">
<title>roku</title>
<path fill="#fff" d="M32.375 26.152c1.731 0 3.449 0 5.215 0 0 1.959 0 3.917 0 5.874 0.025 0.010 0.049 0.020 0.074 0.029 0.069-0.067 0.138-0.133 0.206-0.2 1.813-1.815 3.628-3.628 5.436-5.448 0.186-0.187 0.373-0.274 0.641-0.273 3.345 0.011 6.691 0.011 10.036 0.014 0.083 0 0.167 0 0.291 0 0 0.125 0 0.233 0 0.342 0 2.406-0.003 4.811 0.002 7.217 0.002 0.648 0.008 1.297 0.057 1.943 0.026 0.351 0.115 0.706 0.23 1.041 0.224 0.652 0.693 0.994 1.395 1.033 1.254 0.068 2.142-0.501 2.763-1.547 0.057-0.097 0.071-0.231 0.072-0.348 0.003-3.148 0.002-6.296 0.002-9.444 0-0.064 0-0.128 0-0.214 1.745 0 3.467 0 5.206 0 0 5.095 0 10.184 0 15.309-0.342 0-0.686 0.013-1.028-0.008-0.097-0.006-0.198-0.099-0.282-0.17-0.635-0.544-1.266-1.093-1.899-1.639-0.070-0.060-0.143-0.117-0.223-0.182-0.46 0.484-0.958 0.895-1.514 1.235-2.156 1.319-4.425 1.421-6.733 0.523-1.821-0.709-2.835-2.131-3.176-4.036-0.074-0.414-0.1-0.841-0.102-1.262-0.012-2.904-0.012-5.807-0.017-8.711-0-0.074 0-0.149-0.048-0.257-2.171 2.162-4.343 4.323-6.535 6.505 2.656 2.659 5.296 5.301 7.973 7.982-0.124 0.012-0.193 0.025-0.262 0.025-2.011 0.001-4.022-0.002-6.033 0.005-0.221 0.001-0.366-0.090-0.513-0.236-1.913-1.901-3.83-3.798-5.746-5.695-0.072-0.071-0.146-0.139-0.266-0.252 0 2.083 0 4.105 0 6.149-1.753 0-3.476 0-5.222 0-0-5.089-0-10.177-0-15.301z"></path>
<path fill="#fff" d="M5.254 34.965c0 2.176 0 4.323 0 6.494-1.765 0-3.498 0-5.254 0 0-6.501 0-13.014 0-19.563 0.103 0 0.204 0 0.305 0 2.471 0 4.943-0.032 7.413 0.009 2.354 0.040 4.413 0.852 6.031 2.609 1.105 1.2 1.654 2.629 1.556 4.274-0.087 1.474-0.719 2.713-1.746 3.744-0.414 0.416-0.91 0.751-1.371 1.12-0.071 0.057-0.151 0.103-0.25 0.17 1.83 2.546 3.647 5.075 5.491 7.641-1.997 0-3.95 0-5.94 0-0.050-0.063-0.123-0.147-0.187-0.236-1.438-1.997-2.877-3.993-4.308-5.995-0.14-0.196-0.283-0.289-0.533-0.273-0.391 0.024-0.785 0.006-1.209 0.006zM5.27 25.152c0 2.206 0 4.359 0 6.509 0.668 0 1.314 0.004 1.959-0.003 0.129-0.002 0.26-0.038 0.387-0.070 1.341-0.331 2.383-1.558 2.457-2.892 0.085-1.529-0.736-2.802-2.139-3.33-0.865-0.326-1.759-0.169-2.664-0.215z"></path>
<path fill="#fff" d="M31.358 33.801c0.011 4.148-3.253 7.916-7.941 8.003-4.209 0.078-7.868-3.158-8.105-7.559-0.24-4.45 3.133-8.17 7.548-8.416 4.528-0.252 8.465 3.251 8.498 7.971zM25.877 33.755c0.007-0.559-0.076-1.17-0.257-1.767-0.213-0.701-0.534-1.343-1.085-1.845-0.768-0.699-1.74-0.689-2.465 0.050-0.259 0.264-0.504 0.569-0.663 0.9-0.843 1.75-0.854 3.526-0.075 5.303 0.178 0.407 0.431 0.769 0.762 1.071 0.769 0.703 1.677 0.705 2.451 0.007 0.347-0.313 0.6-0.694 0.797-1.114 0.378-0.804 0.535-1.655 0.535-2.605z"></path>
</svg>
