<!-- Generated by IcoMoon.io -->
<svg version="1.1" xmlns="http://www.w3.org/2000/svg" width="64" height="64" viewBox="0 0 64 64">
<title>safari</title>
<path fill="#fff" d="M34.444 1.31c0.521 0.073 1.041 0.154 1.563 0.218 11.7 1.421 21.89 9.882 25.441 21.121 0.843 2.667 1.343 5.393 1.393 8.192 0.159 8.797-2.772 16.406-8.924 22.7-4.337 4.437-9.624 7.197-15.712 8.403-2.906 0.576-5.842 0.746-8.791 0.469-7-0.658-13.103-3.366-18.228-8.18-4.862-4.568-7.934-10.163-9.1-16.731-3.086-17.368 8.123-31.661 22.762-35.287 1.629-0.404 3.282-0.68 4.958-0.802 0.157-0.011 0.31-0.067 0.465-0.102 1.391-0 2.782-0 4.173-0zM60.324 31.948c-0.002-15.541-12.55-28.080-28.114-28.094-15.55-0.013-28.121 12.503-28.116 27.995 0.005 15.671 12.523 28.198 28.144 28.162 15.529-0.036 28.088-12.584 28.086-28.062z"></path>
<path fill="#fff" d="M12.553 50.057c0.2-0.297 0.384-0.606 0.603-0.888 3.135-4.037 6.278-8.068 9.412-12.107 1.993-2.568 3.977-5.143 5.957-7.722 0.378-0.493 0.81-0.909 1.329-1.254 7.082-4.707 14.16-9.422 21.239-14.134 0.152-0.101 0.309-0.195 0.507-0.32 0.042 0.298-0.16 0.437-0.28 0.597-2.658 3.552-5.321 7.1-7.984 10.649-2.344 3.123-4.692 6.244-7.030 9.371-0.619 0.828-1.347 1.538-2.211 2.101-6.869 4.473-13.739 8.944-20.611 13.412-0.25 0.162-0.52 0.293-0.782 0.438-0.050-0.048-0.099-0.095-0.149-0.143z"></path>
<path fill="#fff" d="M32.607 8.003c-0 0.715 0.006 1.431-0.002 2.146-0.005 0.44-0.145 0.671-0.377 0.672-0.254 0.001-0.442-0.267-0.445-0.699-0.008-1.43-0.005-2.861-0-4.291 0-0.12 0.006-0.263 0.070-0.352 0.074-0.103 0.222-0.226 0.325-0.215 0.136 0.013 0.3 0.122 0.377 0.238 0.069 0.104 0.049 0.275 0.050 0.417 0.004 0.695 0.002 1.39 0.002 2.085z"></path>
<path fill="#fff" d="M32.607 55.822c-0 0.632 0 1.264-0 1.896 0 0.102 0.004 0.204-0.001 0.306-0.016 0.335-0.199 0.591-0.412 0.583-0.209-0.008-0.408-0.267-0.41-0.599-0.009-1.448-0.008-2.895-0.004-4.343 0-0.119 0.006-0.27 0.076-0.348 0.095-0.107 0.259-0.225 0.381-0.214s0.271 0.156 0.337 0.28c0.060 0.114 0.032 0.279 0.032 0.421 0.003 0.673 0.001 1.346 0.001 2.018z"></path>
<path fill="#fff" d="M48.084 53.181c-0.007 0.291-0.331 0.497-0.54 0.368-0.167-0.104-0.313-0.261-0.432-0.422-0.788-1.068-1.568-2.143-2.348-3.217-0.084-0.115-0.171-0.233-0.228-0.362-0.089-0.202-0.091-0.397 0.125-0.538 0.195-0.127 0.351-0.049 0.491 0.090 0.086 0.086 0.163 0.183 0.235 0.282 0.816 1.124 1.632 2.248 2.444 3.375 0.105 0.147 0.186 0.311 0.253 0.425z"></path>
<path fill="#fff" d="M9.372 45.522c-0.095-0.074-0.24-0.129-0.267-0.219-0.041-0.14-0.044-0.324 0.017-0.452 0.053-0.113 0.209-0.186 0.33-0.257 1.2-0.699 2.402-1.396 3.606-2.090 0.123-0.071 0.254-0.136 0.389-0.177 0.205-0.063 0.393 0.021 0.445 0.215 0.035 0.13-0.024 0.309-0.095 0.435-0.054 0.095-0.189 0.149-0.295 0.21-1.203 0.694-2.408 1.387-3.613 2.077-0.158 0.091-0.327 0.164-0.518 0.258z"></path>
<path fill="#fff" d="M28.078 53.293c-0.118 0.553-0.251 1.17-0.383 1.788-0.17 0.798-0.338 1.596-0.51 2.393-0.026 0.119-0.055 0.24-0.101 0.352-0.083 0.206-0.269 0.279-0.449 0.199-0.123-0.055-0.236-0.209-0.278-0.343-0.039-0.123 0.011-0.281 0.040-0.419 0.275-1.317 0.554-2.634 0.833-3.951 0.025-0.12 0.058-0.238 0.091-0.356 0.064-0.23 0.228-0.343 0.456-0.319 0.224 0.024 0.277 0.212 0.3 0.403 0.007 0.060 0.001 0.122 0.001 0.252z"></path>
<path fill="#fff" d="M16.594 17.465c0.016 0.302-0.287 0.53-0.509 0.427-0.163-0.075-0.308-0.199-0.443-0.321-0.992-0.885-1.98-1.775-2.967-2.665-0.121-0.109-0.267-0.214-0.333-0.354-0.058-0.124-0.071-0.317-0.014-0.436 0.089-0.185 0.289-0.216 0.479-0.124 0.090 0.044 0.17 0.113 0.245 0.181 1.095 0.985 2.189 1.97 3.279 2.96 0.116 0.106 0.199 0.249 0.263 0.332z"></path>
<path fill="#fff" d="M16.832 53.578c-0.39 0.027-0.586-0.249-0.46-0.517 0.051-0.109 0.123-0.211 0.195-0.309 0.825-1.139 1.651-2.276 2.479-3.413 0.072-0.098 0.145-0.199 0.233-0.281 0.154-0.143 0.327-0.154 0.498-0.023 0.167 0.128 0.225 0.286 0.116 0.48-0.050 0.089-0.105 0.175-0.164 0.257-0.826 1.138-1.648 2.278-2.483 3.41-0.127 0.171-0.31 0.3-0.413 0.398z"></path>
<path fill="#fff" d="M52.191 49.469c0.015 0.277-0.306 0.495-0.538 0.41-0.13-0.047-0.252-0.134-0.357-0.228-1.062-0.951-2.12-1.906-3.179-2.861-0.045-0.041-0.087-0.086-0.129-0.13-0.149-0.156-0.295-0.362-0.098-0.523 0.126-0.103 0.377-0.099 0.561-0.072 0.122 0.018 0.231 0.156 0.337 0.251 1 0.898 2 1.797 2.994 2.702 0.162 0.148 0.296 0.325 0.409 0.451z"></path>
<path fill="#fff" d="M7.238 40.458c-0.272 0.016-0.384-0.151-0.45-0.353-0.060-0.184 0.030-0.316 0.199-0.391 0.111-0.049 0.228-0.086 0.344-0.124 1.316-0.429 2.632-0.859 3.948-1.286 0.135-0.044 0.274-0.094 0.413-0.105 0.208-0.016 0.38 0.094 0.389 0.3 0.006 0.135-0.081 0.298-0.174 0.407-0.070 0.082-0.215 0.105-0.331 0.142-1.355 0.442-2.71 0.882-4.065 1.322-0.096 0.032-0.193 0.062-0.274 0.087z"></path>
<path fill="#fff" d="M26.327 6.192c0.075-0.087 0.162-0.261 0.301-0.329 0.195-0.096 0.349 0.055 0.443 0.225 0.059 0.105 0.095 0.226 0.121 0.345 0.301 1.417 0.597 2.836 0.899 4.254 0.035 0.165 0.070 0.306-0.093 0.437-0.291 0.233-0.548 0.183-0.658-0.171-0.085-0.272-0.132-0.556-0.192-0.835-0.252-1.178-0.503-2.356-0.753-3.534-0.021-0.1-0.035-0.201-0.068-0.391z"></path>
<path fill="#fff" d="M44.974 14.91c-0.342 0.028-0.55-0.224-0.474-0.485 0.039-0.132 0.123-0.256 0.205-0.369 0.812-1.121 1.626-2.24 2.443-3.357 0.084-0.114 0.167-0.244 0.282-0.316 0.105-0.066 0.299-0.129 0.371-0.077 0.11 0.079 0.205 0.257 0.204 0.393-0.001 0.146-0.099 0.307-0.191 0.435-0.832 1.157-1.669 2.309-2.513 3.458-0.102 0.14-0.251 0.246-0.327 0.319z"></path>
<path fill="#fff" d="M52.674 38.185c0.202 0.053 0.322 0.078 0.438 0.115 1.301 0.421 2.602 0.842 3.901 1.268 0.153 0.050 0.303 0.121 0.441 0.205 0.153 0.094 0.247 0.255 0.136 0.414-0.083 0.117-0.234 0.223-0.372 0.253-0.125 0.027-0.276-0.049-0.411-0.093-1.302-0.418-2.603-0.837-3.904-1.259-0.135-0.044-0.271-0.097-0.392-0.169-0.168-0.099-0.312-0.252-0.187-0.448 0.085-0.133 0.254-0.212 0.35-0.286z"></path>
<path fill="#fff" d="M36.267 52.948c0.078-0.084 0.169-0.254 0.307-0.315 0.213-0.093 0.411 0.006 0.473 0.244 0.102 0.393 0.184 0.791 0.269 1.188 0.243 1.133 0.473 2.269 0.731 3.399 0.055 0.242-0 0.396-0.189 0.517-0.218 0.14-0.448 0.067-0.548-0.175-0.045-0.111-0.059-0.236-0.085-0.355-0.297-1.371-0.593-2.743-0.889-4.114-0.021-0.099-0.035-0.2-0.070-0.39z"></path>
<path fill="#fff" d="M10.439 33.822c0.153 0 0.275-0.006 0.397 0.001 0.194 0.011 0.292 0.127 0.311 0.313 0.020 0.204-0.048 0.372-0.261 0.422-0.197 0.046-0.401 0.066-0.604 0.088-1.295 0.138-2.59 0.273-3.886 0.408-0.101 0.010-0.203 0.019-0.305 0.016-0.316-0.008-0.462-0.115-0.471-0.354-0.011-0.286 0.169-0.39 0.418-0.423 0.060-0.008 0.12-0.025 0.181-0.031 1.417-0.148 2.834-0.295 4.22-0.439z"></path>
<path fill="#fff" d="M55.367 45.138c0.011 0.192-0.235 0.403-0.446 0.334-0.134-0.044-0.259-0.121-0.382-0.192-1.203-0.692-2.406-1.386-3.608-2.080-0.106-0.061-0.217-0.118-0.311-0.194-0.156-0.127-0.231-0.281-0.111-0.481 0.108-0.181 0.261-0.264 0.462-0.197 0.134 0.044 0.259 0.118 0.383 0.189 1.167 0.674 2.333 1.349 3.497 2.027 0.229 0.133 0.473 0.258 0.517 0.593z"></path>
<path fill="#fff" d="M16.849 10.272c0.084 0.087 0.236 0.216 0.351 0.372 0.763 1.038 1.518 2.081 2.276 3.123 0.12 0.165 0.24 0.331 0.358 0.498 0.135 0.192 0.15 0.377-0.043 0.543-0.19 0.163-0.368 0.138-0.585-0.086-0.070-0.073-0.129-0.159-0.189-0.241-0.819-1.123-1.639-2.246-2.456-3.371-0.072-0.099-0.147-0.2-0.194-0.311-0.112-0.265 0.099-0.553 0.483-0.528z"></path>
<path fill="#fff" d="M38.034 6.468c-0.114 0.528-0.25 1.144-0.381 1.761-0.169 0.796-0.336 1.593-0.503 2.389-0.017 0.080-0.024 0.162-0.048 0.239-0.101 0.329-0.266 0.461-0.508 0.414-0.239-0.046-0.346-0.243-0.286-0.578 0.061-0.34 0.145-0.676 0.218-1.014 0.243-1.134 0.48-2.269 0.737-3.4 0.036-0.158 0.141-0.359 0.272-0.426 0.299-0.151 0.528 0.103 0.498 0.614z"></path>
<path fill="#fff" d="M53.972 30.047c-0.536 0.037-0.721-0.056-0.736-0.351-0.013-0.259 0.13-0.376 0.613-0.43 1.417-0.158 2.836-0.303 4.254-0.452 0.081-0.009 0.163-0.005 0.244-0.006 0.24-0.003 0.391 0.106 0.41 0.353 0.018 0.226-0.132 0.347-0.322 0.379-0.482 0.081-0.967 0.147-1.453 0.199-1.012 0.11-2.026 0.208-3.011 0.308z"></path>
<path fill="#fff" d="M21.419 56.335c-0.223-0.023-0.335-0.157-0.312-0.369 0.015-0.138 0.079-0.274 0.136-0.405 0.567-1.291 1.136-2.58 1.706-3.869 0.041-0.093 0.081-0.189 0.135-0.275 0.103-0.165 0.228-0.294 0.451-0.194 0.237 0.106 0.341 0.296 0.259 0.527-0.075 0.211-0.172 0.415-0.263 0.62-0.515 1.157-1.032 2.313-1.547 3.47-0.112 0.252-0.247 0.474-0.563 0.494z"></path>
<path fill="#fff" d="M55.407 18.8c-0.037 0.062-0.080 0.182-0.162 0.259-0.118 0.109-0.261 0.193-0.402 0.274-1.163 0.673-2.328 1.342-3.492 2.012-0.071 0.041-0.138 0.087-0.211 0.123-0.314 0.153-0.488 0.12-0.626-0.117-0.156-0.265-0.006-0.422 0.205-0.545 1.339-0.775 2.676-1.553 4.022-2.316 0.311-0.177 0.634-0.031 0.666 0.31z"></path>
<path fill="#fff" d="M57.63 23.848c-0.032 0.057-0.073 0.174-0.151 0.254-0.066 0.069-0.172 0.11-0.267 0.14-1.432 0.462-2.867 0.917-4.298 1.384-0.222 0.072-0.391 0.060-0.531-0.141-0.15-0.214-0.132-0.375 0.086-0.514 0.084-0.054 0.184-0.084 0.28-0.116 1.393-0.453 2.786-0.904 4.18-1.355 0.096-0.031 0.195-0.068 0.294-0.074 0.23-0.014 0.391 0.138 0.406 0.421z"></path>
<path fill="#fff" d="M9.378 18.359c0.142 0.063 0.258 0.102 0.362 0.161 1.29 0.743 2.578 1.488 3.865 2.235 0.087 0.050 0.197 0.107 0.233 0.189 0.052 0.117 0.106 0.299 0.051 0.382-0.075 0.113-0.25 0.218-0.384 0.22-0.147 0.002-0.303-0.104-0.442-0.184-1.166-0.672-2.329-1.348-3.491-2.027-0.157-0.092-0.327-0.186-0.438-0.322-0.072-0.088-0.098-0.273-0.056-0.381 0.043-0.111 0.193-0.181 0.3-0.272z"></path>
<path fill="#fff" d="M10.446 30.045c-1.407-0.141-2.788-0.278-4.169-0.42-0.141-0.015-0.307-0.020-0.412-0.097-0.112-0.083-0.235-0.253-0.223-0.373 0.012-0.123 0.159-0.273 0.285-0.334 0.114-0.056 0.28-0.019 0.421-0.004 1.38 0.145 2.761 0.289 4.14 0.444 0.542 0.061 0.68 0.17 0.659 0.451-0.021 0.287-0.187 0.362-0.701 0.333z"></path>
<path fill="#fff" d="M23.848 12.267c-0.019 0.268-0.339 0.451-0.56 0.309-0.142-0.091-0.259-0.256-0.331-0.414-0.585-1.281-1.157-2.568-1.733-3.853-0.034-0.075-0.103-0.159-0.088-0.224 0.038-0.168 0.069-0.388 0.186-0.474 0.18-0.133 0.394-0.038 0.53 0.146 0.060 0.080 0.096 0.179 0.138 0.272 0.564 1.268 1.129 2.536 1.691 3.804 0.066 0.149 0.117 0.304 0.167 0.434z"></path>
<path fill="#fff" d="M40.774 51.253c0.406 0.008 0.565 0.182 0.683 0.453 0.463 1.065 0.942 2.123 1.415 3.184 0.116 0.261 0.237 0.519 0.343 0.784 0.132 0.332 0.081 0.535-0.14 0.623-0.215 0.085-0.44-0.022-0.589-0.302-0.096-0.179-0.167-0.371-0.25-0.557-0.499-1.116-1.001-2.23-1.496-3.348-0.073-0.165-0.154-0.347-0.151-0.52 0.002-0.122 0.139-0.241 0.187-0.317z"></path>
<path fill="#fff" d="M43.326 7.871c-0.065 0.173-0.108 0.308-0.165 0.438-0.577 1.303-1.154 2.606-1.737 3.906-0.192 0.428-0.358 0.532-0.616 0.422-0.257-0.109-0.3-0.31-0.115-0.733 0.555-1.268 1.118-2.532 1.685-3.795 0.074-0.164 0.165-0.337 0.296-0.452 0.088-0.078 0.276-0.11 0.389-0.072 0.109 0.037 0.18 0.189 0.264 0.286z"></path>
<path fill="#fff" d="M54.028 33.827c1.358 0.142 2.717 0.278 4.075 0.43 0.55 0.061 0.672 0.164 0.658 0.457-0.014 0.3-0.168 0.388-0.713 0.333-1.399-0.142-2.797-0.294-4.194-0.453-0.431-0.049-0.641-0.227-0.599-0.455 0.038-0.212 0.273-0.326 0.652-0.317 0.041 0.001 0.081 0.006 0.122 0.009-0-0.002 0-0.003 0-0.004z"></path>
<path fill="#fff" d="M11.582 25.649c-0.084-0.023-0.204-0.050-0.32-0.088-1.297-0.421-2.594-0.843-3.89-1.267-0.135-0.044-0.273-0.087-0.397-0.154-0.195-0.106-0.225-0.286-0.139-0.473 0.080-0.175 0.208-0.307 0.433-0.237 0.156 0.048 0.311 0.097 0.466 0.147 1.24 0.4 2.48 0.801 3.719 1.203 0.135 0.044 0.272 0.089 0.399 0.154 0.174 0.089 0.303 0.222 0.241 0.439-0.067 0.237-0.248 0.304-0.511 0.276z"></path>
<path fill="#fff" d="M57.492 31.525c0.324 0 0.65-0.019 0.972 0.005 0.295 0.022 0.428 0.178 0.418 0.418-0.010 0.25-0.172 0.382-0.389 0.387-0.668 0.016-1.337 0.014-2.005-0.002-0.221-0.006-0.377-0.148-0.395-0.387-0.017-0.223 0.144-0.397 0.426-0.416 0.323-0.023 0.648-0.005 0.972-0.005 0 0.001 0 0.001 0 0.002z"></path>
<path fill="#fff" d="M6.897 32.348c-0.305 0-0.61 0.015-0.913-0.004-0.319-0.020-0.509-0.197-0.482-0.43 0.031-0.265 0.209-0.388 0.462-0.391 0.629-0.006 1.258-0.007 1.888 0.002 0.249 0.003 0.441 0.114 0.446 0.394 0.005 0.276-0.178 0.406-0.426 0.42-0.324 0.019-0.649 0.005-0.974 0.005 0 0.002 0 0.003 0 0.005z"></path>
<path fill="#fff" d="M30.036 7.532c0 0.131 0.036 0.253-0.008 0.328-0.074 0.124-0.181 0.269-0.307 0.313-0.186 0.065-0.368-0.025-0.423-0.238-0.050-0.196-0.076-0.398-0.101-0.599-0.047-0.382-0.091-0.765-0.125-1.148-0.014-0.16-0.046-0.342 0.012-0.479 0.054-0.127 0.21-0.275 0.335-0.288 0.119-0.013 0.273 0.119 0.378 0.221 0.062 0.061 0.075 0.186 0.085 0.285 0.057 0.544 0.106 1.090 0.155 1.605z"></path>
<path fill="#fff" d="M44.436 52.549c0.066 0.056 0.202 0.125 0.268 0.235 0.333 0.556 0.652 1.121 0.967 1.687 0.111 0.2 0.093 0.395-0.116 0.53-0.213 0.138-0.413 0.066-0.528-0.121-0.358-0.587-0.71-1.18-1.026-1.791-0.135-0.262 0.097-0.556 0.435-0.541z"></path>
<path fill="#fff" d="M14.623 51.857c-0.338-0.019-0.542-0.358-0.358-0.58 0.457-0.549 0.944-1.075 1.44-1.59 0.158-0.164 0.366-0.145 0.545 0.032 0.168 0.167 0.139 0.331 0.002 0.484-0.448 0.505-0.899 1.007-1.359 1.501-0.077 0.083-0.206 0.117-0.27 0.152z"></path>
<path fill="#fff" d="M35.312 6.139c-0.049 0.495-0.091 1.024-0.16 1.55-0.020 0.151-0.085 0.33-0.192 0.424-0.082 0.073-0.303 0.092-0.39 0.031-0.112-0.078-0.217-0.262-0.212-0.396 0.017-0.468 0.080-0.935 0.129-1.402 0.019-0.183 0.039-0.366 0.074-0.546 0.058-0.298 0.211-0.429 0.447-0.384 0.241 0.046 0.337 0.206 0.322 0.444-0.005 0.082-0.010 0.163-0.017 0.278z"></path>
<path fill="#fff" d="M20.448 10.918c-0.017 0.323-0.346 0.496-0.584 0.338-0.081-0.054-0.152-0.138-0.201-0.222-0.309-0.526-0.622-1.050-0.906-1.589-0.065-0.124-0.081-0.328-0.024-0.452 0.128-0.28 0.486-0.267 0.681 0.043 0.345 0.55 0.656 1.123 0.977 1.689 0.038 0.068 0.046 0.153 0.058 0.193z"></path>
<path fill="#fff" d="M35.321 57.782c0 0.165 0.011 0.268-0.002 0.368-0.029 0.218-0.19 0.342-0.381 0.312-0.13-0.021-0.328-0.162-0.344-0.272-0.102-0.686-0.17-1.377-0.232-2.068-0.020-0.221 0.070-0.404 0.328-0.437 0.241-0.031 0.405 0.087 0.447 0.392 0.080 0.587 0.129 1.177 0.185 1.705z"></path>
<path fill="#fff" d="M30.022 56.461c-0.042 0.442-0.079 0.928-0.137 1.411-0.051 0.425-0.224 0.618-0.483 0.579-0.249-0.038-0.368-0.273-0.325-0.687 0.056-0.544 0.115-1.089 0.191-1.631 0.050-0.358 0.188-0.486 0.438-0.448 0.285 0.042 0.345 0.243 0.331 0.491-0.005 0.081-0.009 0.162-0.016 0.286z"></path>
<path fill="#fff" d="M19.146 55.062c-0.356 0.022-0.575-0.256-0.436-0.521 0.322-0.612 0.672-1.21 1.024-1.805 0.121-0.205 0.313-0.251 0.524-0.115 0.204 0.131 0.262 0.315 0.143 0.525-0.321 0.567-0.646 1.132-0.985 1.688-0.067 0.11-0.206 0.176-0.271 0.229z"></path>
<path fill="#fff" d="M39.35 8.648c0.178-0.537 0.389-1.195 0.616-1.849 0.069-0.197 0.236-0.288 0.441-0.213 0.208 0.075 0.366 0.227 0.294 0.465-0.202 0.661-0.416 1.319-0.647 1.971-0.064 0.18-0.222 0.296-0.441 0.225-0.229-0.074-0.317-0.238-0.264-0.599z"></path>
<path fill="#fff" d="M6.539 26.072c0.675 0.148 1.352 0.287 2.023 0.45 0.239 0.058 0.295 0.264 0.24 0.487-0.052 0.211-0.21 0.309-0.413 0.268-0.658-0.131-1.313-0.277-1.968-0.421-0.229-0.050-0.366-0.189-0.324-0.435 0.040-0.236 0.196-0.346 0.442-0.349z"></path>
<path fill="#fff" d="M10.883 16.040c0.14 0.073 0.236 0.11 0.317 0.169 0.497 0.355 0.991 0.715 1.485 1.074 0.049 0.036 0.096 0.076 0.137 0.121 0.14 0.154 0.172 0.319 0.041 0.496s-0.322 0.214-0.485 0.101c-0.585-0.405-1.162-0.824-1.725-1.261-0.081-0.062-0.121-0.27-0.081-0.371 0.053-0.131 0.204-0.223 0.311-0.329z"></path>
<path fill="#fff" d="M57.852 37.804c-0.675-0.151-1.351-0.294-2.022-0.46-0.188-0.046-0.336-0.193-0.249-0.414 0.074-0.189 0.193-0.393 0.439-0.343 0.678 0.136 1.352 0.292 2.026 0.45 0.215 0.050 0.283 0.212 0.25 0.422-0.040 0.251-0.202 0.335-0.443 0.346z"></path>
<path fill="#fff" d="M44.421 11.304c-0.334 0.016-0.559-0.242-0.434-0.482 0.33-0.632 0.691-1.248 1.067-1.854 0.121-0.194 0.355-0.195 0.549-0.070 0.195 0.126 0.173 0.314 0.075 0.486-0.323 0.568-0.648 1.134-0.988 1.691-0.067 0.11-0.206 0.176-0.269 0.228z"></path>
<path fill="#fff" d="M12.552 45.797c0.24-0.005 0.446 0.295 0.342 0.524-0.048 0.105-0.136 0.204-0.23 0.274-0.489 0.364-0.985 0.721-1.482 1.075-0.155 0.11-0.333 0.205-0.488 0.018-0.141-0.17-0.192-0.424-0.024-0.558 0.571-0.455 1.174-0.87 1.766-1.298 0.031-0.022 0.077-0.024 0.116-0.035z"></path>
<path fill="#fff" d="M16.354 13.894c0.001 0.244-0.307 0.446-0.532 0.347-0.089-0.039-0.172-0.108-0.239-0.181-0.384-0.419-0.761-0.845-1.145-1.264-0.149-0.163-0.222-0.335-0.135-0.553 0.092-0.232 0.313-0.339 0.475-0.172 0.522 0.538 1.014 1.105 1.514 1.664 0.038 0.042 0.045 0.111 0.063 0.159z"></path>
<path fill="#fff" d="M23.677 56.906c0.013-0.045 0.028-0.104 0.047-0.162 0.195-0.6 0.38-1.204 0.59-1.799 0.115-0.326 0.257-0.396 0.488-0.303 0.246 0.099 0.342 0.264 0.251 0.532-0.195 0.579-0.371 1.164-0.571 1.741-0.044 0.127-0.134 0.263-0.242 0.336-0.235 0.158-0.566-0.048-0.564-0.346z"></path>
<path fill="#fff" d="M40.71 56.766c0.017 0.347-0.137 0.472-0.345 0.529-0.214 0.058-0.347-0.061-0.412-0.261-0.2-0.618-0.41-1.233-0.587-1.858-0.037-0.132 0.004-0.333 0.088-0.442 0.156-0.204 0.459-0.177 0.551 0.059 0.266 0.679 0.493 1.373 0.705 1.973z"></path>
<path fill="#fff" d="M8.467 36.583c0.093 0.081 0.263 0.166 0.326 0.301 0.090 0.192-0.029 0.386-0.223 0.434-0.691 0.169-1.388 0.317-2.087 0.453-0.208 0.040-0.347-0.093-0.386-0.304s0.044-0.378 0.251-0.426c0.675-0.156 1.354-0.294 2.119-0.458z"></path>
<path fill="#fff" d="M48.515 14.3c-0.307 0.028-0.583-0.327-0.416-0.53 0.474-0.578 0.989-1.124 1.509-1.661 0.145-0.15 0.338-0.078 0.485 0.072 0.141 0.143 0.139 0.3 0.021 0.435-0.469 0.533-0.946 1.058-1.426 1.581-0.051 0.056-0.136 0.082-0.174 0.103z"></path>
<path fill="#fff" d="M56.603 42.57c-0.022 0.315-0.242 0.509-0.468 0.417-0.657-0.265-1.304-0.557-1.946-0.855-0.179-0.084-0.261-0.26-0.177-0.462 0.094-0.226 0.282-0.3 0.498-0.208 0.633 0.269 1.264 0.548 1.885 0.843 0.106 0.050 0.162 0.204 0.208 0.265z"></path>
<path fill="#fff" d="M25.124 8.86c-0.093 0.105-0.174 0.278-0.295 0.313-0.124 0.037-0.292-0.052-0.432-0.106-0.042-0.016-0.064-0.101-0.084-0.158-0.208-0.595-0.411-1.193-0.621-1.787-0.088-0.248 0.040-0.399 0.232-0.494 0.188-0.093 0.394-0.035 0.467 0.157 0.253 0.665 0.476 1.341 0.733 2.075z"></path>
<path fill="#fff" d="M50.182 51.439c-0.025 0.323-0.363 0.473-0.613 0.303-0.132-0.090-0.239-0.222-0.348-0.342-0.357-0.392-0.714-0.784-1.062-1.185-0.159-0.182-0.145-0.371 0.039-0.539 0.188-0.172 0.367-0.151 0.532 0.030 0.439 0.483 0.879 0.965 1.31 1.456 0.075 0.086 0.109 0.21 0.142 0.277z"></path>
<path fill="#fff" d="M10.382 21.95c0.016 0.316-0.156 0.503-0.373 0.485-0.118-0.009-0.236-0.057-0.347-0.106-0.541-0.237-1.080-0.478-1.617-0.723-0.215-0.098-0.31-0.262-0.218-0.496 0.090-0.229 0.277-0.309 0.547-0.196 0.563 0.237 1.122 0.485 1.672 0.75 0.149 0.072 0.261 0.22 0.336 0.285z"></path>
<path fill="#fff" d="M54.273 22.451c-0.066-0.074-0.211-0.173-0.249-0.303-0.030-0.102 0.037-0.294 0.124-0.357 0.194-0.14 0.426-0.232 0.648-0.332 0.426-0.192 0.855-0.376 1.282-0.565 0.237-0.105 0.388-0.013 0.491 0.203 0.095 0.2 0.047 0.377-0.143 0.466-0.644 0.299-1.296 0.58-1.947 0.866-0.035 0.016-0.080 0.010-0.207 0.023z"></path>
<path fill="#fff" d="M8.112 43.031c-0.077-0.070-0.22-0.145-0.262-0.257-0.042-0.111 0.009-0.263 0.041-0.391 0.012-0.047 0.084-0.089 0.137-0.113 0.61-0.275 1.218-0.554 1.836-0.808 0.11-0.045 0.292-0.019 0.394 0.047 0.216 0.139 0.199 0.485-0.043 0.604-0.636 0.313-1.288 0.594-1.935 0.885-0.036 0.016-0.078 0.016-0.169 0.033z"></path>
<path fill="#fff" d="M57.827 26.072c0.24 0.004 0.406 0.086 0.451 0.335 0.040 0.222-0.078 0.367-0.272 0.415-0.674 0.165-1.351 0.319-2.030 0.46-0.214 0.044-0.346-0.101-0.402-0.296-0.059-0.208 0.014-0.375 0.229-0.429 0.672-0.169 1.348-0.324 2.023-0.484z"></path>
<path fill="#fff" d="M51.795 45.795c0.157 0.066 0.26 0.089 0.34 0.146 0.498 0.353 0.999 0.703 1.48 1.080 0.109 0.086 0.191 0.269 0.197 0.411 0.010 0.287-0.264 0.452-0.5 0.292-0.59-0.399-1.164-0.822-1.727-1.257-0.083-0.064-0.133-0.267-0.094-0.366 0.049-0.126 0.204-0.21 0.305-0.306z"></path>
<path fill="#fff" d="M51.826 18.081c-0.090-0.061-0.245-0.11-0.27-0.195-0.040-0.139-0.041-0.327 0.025-0.45 0.071-0.132 0.233-0.218 0.363-0.314 0.425-0.312 0.852-0.62 1.281-0.927 0.158-0.113 0.322-0.185 0.485-0.005 0.16 0.177 0.171 0.432-0.028 0.59-0.524 0.414-1.068 0.805-1.607 1.2-0.063 0.046-0.148 0.060-0.25 0.1z"></path>
<path fill="#fff" d="M50.375 15.944c0.491-0.677 0.973-1.361 1.508-2.044 0.302 0.458 0.314 0.525 0.037 0.795-0.467 0.456-0.952 0.893-1.429 1.339-0.038-0.030-0.077-0.060-0.115-0.089z"></path>
<path fill="#fff" d="M13.208 48.68c-0.26 0.364-0.521 0.728-0.791 1.106-0.258-0.422-0.133-0.607 0.791-1.106z"></path>
</svg>
