<!-- Generated by IcoMoon.io -->
<svg version="1.1" xmlns="http://www.w3.org/2000/svg" width="64" height="64" viewBox="0 0 64 64">
<title>samsung</title>
<path fill="#fff" d="M9.807 29.032c-0.374 0.409-0.517 0.845-0.531 1.332-0.018 0.627 0.219 1.128 0.735 1.478 0.374 0.253 0.773 0.469 1.154 0.713 0.306 0.195 0.606 0.4 0.9 0.614 0.209 0.152 0.294 0.369 0.265 0.63-0.044 0.392-0.288 0.613-0.674 0.601-0.421-0.013-0.644-0.224-0.661-0.638-0.008-0.184-0.001-0.37-0.001-0.573-0.576 0-1.129 0-1.683 0-0.296 0.706 0.088 1.721 0.809 2.060 0.989 0.465 1.992 0.452 2.986 0.008 0.412-0.184 0.671-0.515 0.788-0.951 0.036-0.136 0.055-0.278 0.073-0.419 0.122-0.949-0.205-1.659-1.082-2.105-0.458-0.233-0.892-0.512-1.332-0.777-0.144-0.087-0.286-0.183-0.408-0.296-0.252-0.235-0.257-0.652-0.026-0.889 0.201-0.206 0.669-0.229 0.88-0.023 0.082 0.081 0.137 0.206 0.165 0.32 0.039 0.161 0.041 0.331 0.060 0.513 0.517 0 1.028 0 1.539 0 0.231-0.677-0.080-1.483-0.707-1.795-0.636-0.317-1.316-0.328-2.003-0.254-0.061 0.007-0.122 0.017-0.184 0.024-0.008 0.001-0.016-0.007-0.063-0.028 0.108-0.048 0.19-0.088 0.274-0.123 3.441-1.416 6.981-2.532 10.58-3.462 3.263-0.843 6.555-1.548 9.882-2.091 2.469-0.403 4.948-0.729 7.436-0.976 2.207-0.22 4.421-0.346 6.639-0.369 1.313-0.014 2.626-0.034 3.939-0.016 1.678 0.023 3.345 0.199 5.010 0.395 1.759 0.207 3.475 0.6 5.159 1.139 1.039 0.332 2.011 0.799 2.864 1.486 0.577 0.464 1.044 1.017 1.215 1.762 0.196 0.855 0.028 1.655-0.404 2.406-0.428 0.746-0.983 1.387-1.629 1.952-1.594 1.394-3.389 2.478-5.272 3.427-0.6 0.302-1.204 0.595-1.806 0.892-0.011-0.015-0.023-0.030-0.035-0.045 0.027-0.034 0.049-0.075 0.082-0.102 0.266-0.22 0.452-0.507 0.464-0.84 0.029-0.777 0.009-1.557 0.009-2.355-0.733 0-1.482 0-2.252 0 0 0.291 0 0.587 0 0.916 0.194 0 0.394 0 0.617 0 0 0.445 0.002 0.858-0.002 1.271-0.001 0.049-0.030 0.102-0.057 0.146-0.139 0.22-0.504 0.331-0.816 0.253-0.295-0.075-0.465-0.263-0.469-0.566-0.011-0.789-0.009-1.579-0.011-2.368-0-0.293-0.002-0.586 0.010-0.878 0.021-0.532 0.401-0.8 0.909-0.655 0.26 0.074 0.406 0.242 0.431 0.511 0.016 0.166 0.026 0.334 0.040 0.52 0.541 0 1.066 0 1.589 0 0.199-1.010-0.269-1.812-1.234-2.082-0.75-0.21-1.507-0.235-2.249 0.047-0.691 0.262-1.090 0.756-1.1 1.506-0.016 1.171-0.022 2.342-0.005 3.512 0.010 0.708 0.457 1.24 1.177 1.477 0.55 0.182 1.114 0.201 1.683 0.13 0.053-0.007 0.105-0.016 0.158-0.021 0.012-0.001 0.026 0.013 0.066 0.036-0.168 0.075-0.317 0.148-0.47 0.21-3.751 1.523-7.594 2.764-11.524 3.736-2.901 0.718-5.824 1.325-8.771 1.824-2.423 0.41-4.857 0.732-7.3 0.987-1.765 0.184-3.534 0.298-5.311 0.286-2.777-0.019-5.554 0.020-8.33-0.024-0.988-0.016-1.977-0.182-2.96-0.314-1.895-0.254-3.747-0.686-5.523-1.415-0.862-0.354-1.656-0.81-2.32-1.473-0.958-0.957-1.19-2.124-0.661-3.37 0.364-0.857 0.952-1.556 1.622-2.185 1.335-1.253 2.847-2.259 4.468-3.098 1.007-0.521 2.033-1.008 3.051-1.509 0.021-0.011 0.047-0.013 0.137-0.037zM26.219 28.769c-0.271 1.666-0.536 3.297-0.802 4.928-0.022-0.001-0.043-0.002-0.065-0.003-0.267-1.639-0.534-3.279-0.8-4.912-0.909 0-1.784 0-2.679 0-0.047 2.174-0.094 4.331-0.141 6.492 0.575 0 1.11 0 1.671 0 0-1.947 0-3.872 0-5.797 0.020-0.002 0.040-0.004 0.059-0.006 0.364 1.943 0.727 3.886 1.089 5.82 0.576 0 1.114 0 1.663 0 0.375-1.94 0.714-3.873 1.092-5.798 0.027 0.004 0.054 0.008 0.081 0.011 0 1.921 0 3.842 0 5.771 0.56 0 1.096 0 1.649 0-0.049-2.18-0.097-4.338-0.145-6.506-0.907-0-1.772-0-2.673-0zM48.834 28.788c-0.536 0-1.053 0-1.59 0 0.030 1.694 0.059 3.371 0.089 5.049-0.020 0.002-0.041 0.004-0.061 0.006-0.495-1.687-0.989-3.374-1.485-5.064-0.829 0-1.62 0-2.416 0 0 2.155 0 4.288 0 6.429 0.531 0 1.047 0 1.58 0-0.027-1.746-0.054-3.471-0.080-5.197 0.020-0.003 0.040-0.005 0.060-0.008 0.532 1.74 1.064 3.48 1.596 5.221 0.787 0 1.542 0 2.308 0-0-2.154-0-4.28-0-6.436zM36.913 28.774c-0.009 0.076-0.021 0.127-0.021 0.178 0.007 1.659 0.005 3.318 0.027 4.976 0.009 0.637 0.341 1.089 0.935 1.329 0.794 0.32 1.603 0.353 2.422 0.095 0.789-0.248 1.148-0.701 1.212-1.525 0.008-0.106 0.011-0.213 0.011-0.319 0.003-1.34 0.005-2.679 0.007-4.019 0.001-0.236 0-0.473 0-0.709-0.576 0-1.11 0-1.659 0 0 0.12 0 0.217 0 0.313 0 1.411 0 2.821-0 4.232-0 0.151 0.003 0.302-0.011 0.452-0.033 0.332-0.246 0.53-0.575 0.55-0.454 0.028-0.702-0.199-0.703-0.659-0.006-1.526-0.008-3.052-0.011-4.578-0-0.103-0-0.205-0-0.317-0.562-0-1.083-0-1.632-0zM16.276 28.77c-0.404 2.177-0.805 4.334-1.208 6.508 0.61 0 1.182 0 1.763 0 0.297-1.958 0.593-3.901 0.888-5.844 0.021 0.001 0.043 0.002 0.064 0.003 0.288 1.949 0.576 3.899 0.864 5.849 0.595 0 1.165 0 1.754 0-0.404-2.186-0.805-4.349-1.205-6.516-0.993 0-1.94 0-2.92 0zM35.188 30.657c0-0.198 0.008-0.366-0.002-0.532-0.043-0.742-0.364-1.155-1.072-1.382-0.779-0.249-1.556-0.222-2.327 0.035-0.383 0.128-0.69 0.358-0.885 0.722-0.423 0.787-0.233 1.745 0.465 2.3 0.18 0.143 0.372 0.273 0.568 0.393 0.371 0.226 0.757 0.428 1.12 0.665 0.197 0.129 0.381 0.292 0.536 0.47 0.186 0.213 0.177 0.568 0.020 0.797-0.151 0.219-0.485 0.309-0.795 0.213-0.295-0.091-0.417-0.259-0.425-0.596-0.004-0.183-0.001-0.367-0.001-0.552-0.596 0-1.158 0-1.731 0-0.034 0.392-0.022 0.762 0.092 1.121 0.139 0.437 0.417 0.771 0.84 0.945 0.945 0.389 1.902 0.397 2.846-0.004 0.472-0.2 0.769-0.571 0.841-1.085 0.042-0.297 0.048-0.6 0.055-0.901 0.008-0.353-0.111-0.676-0.366-0.913-0.27-0.252-0.566-0.482-0.877-0.683-0.417-0.269-0.859-0.497-1.288-0.747-0.091-0.053-0.183-0.112-0.258-0.185-0.216-0.211-0.258-0.536-0.111-0.782 0.134-0.225 0.405-0.326 0.699-0.261 0.284 0.063 0.422 0.246 0.435 0.584 0.005 0.121 0.001 0.243 0.001 0.379 0.545-0 1.065-0 1.619-0z"></path>
</svg>
