<!-- Generated by IcoMoon.io -->
<svg version="1.1" xmlns="http://www.w3.org/2000/svg" width="64" height="64" viewBox="0 0 64 64">
<title>synclounge</title>
<path fill="#fff" d="M43.773 51.538c0.303-0.025 0.586-0.070 0.869-0.068 2.333 0.019 4.373-0.802 6.191-2.204 0.667-0.514 1.284-0.63 2.076-0.274 1.415 0.636 1.419 0.593 2.235-0.747 7.904-12.978 2.453-29.829-10.544-36.265-13.899-6.882-28.716-0.339-34.47 10.849-4.506 8.763-4.214 17.477 0.948 25.95 0.080 0.131 0.162 0.263 0.228 0.401 0.168 0.348 0.427 0.401 0.767 0.271 0.539-0.206 1.083-0.4 1.624-0.599 0.447-0.164 0.873-0.136 1.255 0.165 2.070 1.628 4.402 2.497 7.053 2.46 0.128-0.002 0.256 0.031 0.418 0.154-0.225 0.121-0.447 0.247-0.675 0.361-2.367 1.188-4.278 2.864-5.563 5.204-0.242 0.441-0.58 0.623-1.080 0.606-0.712-0.024-1.427-0.039-2.137 0.005-0.639 0.039-1.102-0.218-1.531-0.651-2.881-2.905-5.148-6.221-6.71-10.007-4.728-11.459-2.427-24.362 6.021-33.37 4.83-5.151 10.78-8.288 17.78-9.257 10.004-1.386 18.671 1.541 25.881 8.562 4.981 4.85 7.803 10.854 8.76 17.737 0.831 5.981 0.137 11.745-2.436 17.244-1.54 3.292-3.619 6.216-6.102 8.855-1.54 1.637-4.074 1.363-5.199-0.566-1.207-2.070-3.067-3.358-5.125-4.429-0.153-0.080-0.307-0.159-0.457-0.245-0.026-0.015-0.035-0.062-0.076-0.14z"></path>
<path fill="#fff" d="M24.271 43.639c0.043-1.893 0.693-3.889 1.915-5.715 2.471-3.693 8.759-5.239 12.733-0.852 3.699 4.084 3.449 10.491-0.508 14.227-3.416 3.227-8.808 2.377-11.337-0.338-1.66-1.783-2.829-4.61-2.802-7.324z"></path>
<path fill="#fff" d="M16.362 60.863c0.642-2.391 1.804-4.423 3.686-6.021 1.52-1.29 3.265-2.157 5.132-2.812 0.619-0.217 1.122-0.023 1.611 0.343 1.179 0.882 2.435 1.623 3.878 1.988 2.856 0.722 5.504 0.337 7.832-1.561 1.004-0.818 2.018-0.959 3.206-0.394 2.121 1.007 4.132 2.15 5.688 3.958 0.853 0.992 1.48 2.109 1.805 3.381 0.089 0.349 0.12 0.712 0.186 1.118-11.033-0-21.997-0-33.024-0z"></path>
<path fill="#fff" d="M27.948 34.335c-4.976 3.137-6.412 9.585-3.269 15.358-2.579 0.818-5.086 0.798-7.477-0.544-2.576-1.445-3.974-3.734-4.491-6.59-0.711-3.924 0.319-7.306 3.344-9.953 3.399-2.975 9.108-2.236 11.725 1.447 0.054 0.076 0.098 0.161 0.169 0.281z"></path>
<path fill="#fff" d="M37.984 34.36c1.186-1.825 2.809-2.919 4.816-3.348 3.571-0.763 6.519 0.389 8.705 3.273 3.036 4.006 2.556 10.001-0.995 13.555-2.157 2.16-4.756 2.777-7.694 2.171-0.485-0.1-0.964-0.228-1.517-0.36 1.464-2.662 2.060-5.433 1.478-8.382-0.584-2.965-2.204-5.244-4.793-6.909z"></path>
</svg>
