<!-- Generated by IcoMoon.io -->
<svg version="1.1" xmlns="http://www.w3.org/2000/svg" width="64" height="64" viewBox="0 0 64 64">
<title>tivo</title>
<path fill="#fff" d="M26.006 20.123c-1.305-3.746-3.438-6.811-6.666-9.079-0.813-0.572-1.708-0.668-2.657-0.589-0.793 0.066-1.586 0.124-2.381 0.164-1.396 0.069-2.082-0.604-2.124-2.004-0.098-3.251 1.115-5.824 3.931-7.532 0.861-0.522 1.776-0.994 2.84-0.991 1.493 0.004 2.902 1.296 2.885 2.793-0.008 0.731-0.189 1.498-0.463 2.18-0.5 1.247-0.31 2.287 0.644 3.204 0.988 0.949 2.018 1.857 2.969 2.842 2.324 2.406 4.047 5.189 5.045 8.394 0.153 0.49 0.392 0.65 0.893 0.631 0.992-0.037 1.988-0.011 3.005-0.011 0.079-0.18 0.164-0.332 0.216-0.494 1.383-4.322 3.961-7.816 7.415-10.701 0.636-0.531 1.218-1.101 1.465-1.923 0.199-0.666 0.075-1.314-0.152-1.949-0.119-0.333-0.27-0.656-0.365-0.996-0.578-2.063 0.462-3.199 2.054-3.891 0.39-0.17 0.937-0.138 1.369-0.030 3.944 0.983 6.536 4.723 6.124 8.779-0.104 1.021-0.68 1.624-1.708 1.677-0.658 0.034-1.334 0.026-1.981-0.085-1.711-0.292-3.199 0.125-4.495 1.258-2.023 1.768-3.68 3.815-4.773 6.291-0.294 0.665-0.612 1.32-0.957 2.061 1.032 0.185 2.001 0.363 2.971 0.533 2.852 0.5 5.709 0.977 8.556 1.501 2.819 0.52 4.559 2.36 4.849 5.12 0.059 0.562 0.015 1.156-0.099 1.711-1.134 5.498-2.269 10.996-3.451 16.483-0.849 3.939-3.968 6.374-8.201 6.47-1.592 0.036-3.185 0.024-4.777 0.039-0.694 0.006-0.761 0.066-0.784 0.753-0.025 0.729-0.043 1.46-0.041 2.189 0.006 1.711 0.922 2.908 2.571 3.329 1.456 0.372 2.922 0.704 4.379 1.067 0.363 0.090 0.722 0.212 1.067 0.356 1.814 0.756 2.65 2.302 2.317 4.326-10.222 0-20.453 0-30.692 0-0.488-1.305 0.163-3.16 1.512-3.922 0.719-0.406 1.538-0.664 2.339-0.889 1.254-0.352 2.536-0.606 3.799-0.927 1.679-0.427 2.654-1.686 2.661-3.426 0.003-0.707-0.044-1.414-0.052-2.122-0.006-0.521-0.228-0.751-0.771-0.744-1.526 0.021-3.053 0.032-4.579 0.002-3.226-0.065-5.883-1.245-7.503-4.154-0.528-0.948-0.879-2.033-1.114-3.099-1.109-5.029-2.167-10.068-3.206-15.112-0.464-2.252-0.086-4.321 1.637-5.989 0.991-0.959 2.227-1.392 3.566-1.612 3.512-0.577 7.020-1.173 10.53-1.764 0.105-0.018 0.207-0.063 0.384-0.119zM30.666 52.055c-0.061 2.989 0.282 5.83 1.462 8.546 1.134-2.731 1.535-5.573 1.428-8.546-0.981 0-1.897 0-2.89 0z"></path>
</svg>
