<!-- Generated by IcoMoon.io -->
<svg version="1.1" xmlns="http://www.w3.org/2000/svg" width="64" height="64" viewBox="0 0 64 64">
<title>wiiu</title>
<path fill="#fff" d="M47.215 9.165c0.294 0 0.501 0 0.708 0 2.82 0 5.64 0.031 8.459-0.008 3.851-0.053 7.043 2.819 7.567 6.501 0.044 0.308 0.046 0.625 0.046 0.937 0.002 10.199 0.005 20.399 0 30.598-0.002 3.844-2.603 6.964-6.343 7.608-0.408 0.070-0.831 0.074-1.248 0.074-15.769 0.004-31.538 0.005-47.307-0.001-0.936-0-1.885 0.021-2.806-0.115-3.541-0.52-6.286-3.74-6.287-7.312-0.003-10.217-0.005-20.434 0.001-30.651 0.002-3.745 2.58-6.836 6.262-7.521 0.408-0.076 0.83-0.106 1.245-0.107 2.924-0.009 5.848-0.005 8.772-0.004 0.153 0 0.306 0.018 0.501 0.029 0 0.24 0 0.447 0 0.653 0 6.684-0.045 13.367 0.016 20.051 0.040 4.373 1.598 8.181 4.689 11.316 3.325 3.371 7.427 4.707 12.062 4.321 6.809-0.567 12.481-6.023 13.465-12.822 0.134-0.925 0.152-1.873 0.155-2.81 0.024-6.683 0.029-13.366 0.041-20.049 0-0.205 0-0.411 0-0.69z"></path>
<path fill="#fff" d="M24.396 9.223c5.088 0 10.13 0 15.247 0 0 0.205 0 0.406 0 0.607 0 6.891-0.047 13.782 0.020 20.672 0.033 3.447-2.646 7.159-6.77 7.599-2.973 0.317-6.139-1.099-7.639-3.917-0.556-1.044-0.874-2.161-0.875-3.348-0.006-7.082-0.003-14.165-0.002-21.247 0-0.103 0.011-0.206 0.019-0.367z"></path>
</svg>
