<!-- Generated by IcoMoon.io -->
<svg version="1.1" xmlns="http://www.w3.org/2000/svg" width="64" height="64" viewBox="0 0 64 64">
<title>windows</title>
<path fill="#fff" d="M63.703 30.357c-11.439 0.087-22.894 0.174-34.389 0.261 0-8.559 0-17.035 0-25.591 11.453-1.676 22.908-3.352 34.358-5.027 0.158 0.481 0.193 29.607 0.031 30.357z"></path>
<path fill="#fff" d="M29.248 59.124c0-8.503 0-16.919 0-25.357 11.486 0 22.959 0 34.477 0 0 10.095 0 20.12 0 30.232-11.49-1.625-22.948-3.245-34.477-4.876z"></path>
<path fill="#fff" d="M26.112 33.577c0 8.384 0 16.726 0 25.157-8.667-1.193-17.289-2.381-25.956-3.574 0-7.233 0-14.451 0-21.672 0.536-0.17 24.219-0.098 25.956 0.089z"></path>
<path fill="#fff" d="M0.136 30.825c0-7.31 0-14.517 0-21.78 8.652-1.181 17.284-2.359 25.973-3.545 0 8.397 0 16.742 0 25.166-8.636 0.053-17.279 0.106-25.973 0.159z"></path>
</svg>
