<!-- Generated by IcoMoon.io -->
<svg version="1.1" xmlns="http://www.w3.org/2000/svg" width="64" height="64" viewBox="0 0 64 64">
<title>xbox</title>
<path fill="#fff" d="M32.489 63.892c-5.577 0.108-10.759-1.227-15.596-3.901-1.21-0.669-2.354-1.457-3.511-2.217-0.462-0.303-0.877-0.677-1.315-1.016-1.361-1.053-1.752-2.459-1.481-4.098 0.249-1.51 0.831-2.904 1.526-4.253 1.562-3.029 3.569-5.76 5.745-8.363 3.561-4.26 7.429-8.226 11.652-11.836 0.695-0.595 1.437-1.137 2.173-1.683 0.449-0.334 0.579-0.328 1.023 0.012 0.609 0.466 1.228 0.925 1.796 1.438 3.99 3.603 7.831 7.359 11.346 11.431 2.345 2.716 4.438 5.618 6.139 8.789 0.821 1.529 1.489 3.11 1.741 4.845 0.195 1.343-0.119 2.508-1.188 3.389-0.788 0.65-1.583 1.301-2.431 1.867-2.258 1.506-4.655 2.765-7.192 3.727-2.321 0.88-4.738 1.393-7.209 1.629-1.082 0.103-2.167 0.163-3.217 0.241z"></path>
<path fill="#fff" d="M57.215 51.378c0.070-0.55 0.12-0.991 0.184-1.43 0.125-0.856 0.021-1.701-0.111-2.545-0.412-2.635-1.312-5.111-2.453-7.507-2.526-5.307-5.562-10.317-8.952-15.11-1.501-2.122-3.121-4.16-4.688-6.236-0.126-0.167-0.252-0.334-0.381-0.505 0.078-0.093 0.124-0.167 0.187-0.222 1.81-1.589 3.606-3.196 5.441-4.755 0.68-0.578 1.443-1.059 2.186-1.558 1.34-0.899 2.806-1.513 4.369-1.918 0.516-0.133 0.931-0.042 1.287 0.319 0.732 0.743 1.502 1.457 2.166 2.259 3.024 3.654 5.070 7.807 6.266 12.393 0.46 1.764 0.716 3.551 0.771 5.366 0.043 1.426 0.049 2.853 0.046 4.28-0.005 2.407-0.492 4.729-1.161 7.038-0.991 3.418-2.592 6.524-4.55 9.467-0.106 0.159-0.231 0.306-0.353 0.454-0.038 0.047-0.095 0.079-0.257 0.209z"></path>
<path fill="#fff" d="M6.977 51.417c-0.071-0.074-0.151-0.141-0.21-0.223-2.975-4.109-4.905-8.65-5.72-13.668-0.267-1.643-0.523-3.288-0.562-4.949-0.024-1.017 0.087-2.044 0.21-3.057 0.294-2.435 0.694-4.85 1.5-7.18 1.575-4.552 3.856-8.669 7.328-12.075 0.661-0.648 1.339-0.805 2.204-0.555 1.808 0.522 3.421 1.414 4.927 2.516 1.913 1.399 3.687 2.966 5.434 4.564 0.454 0.415 0.911 0.828 1.403 1.274-0.475 0.584-0.936 1.14-1.384 1.706-5.043 6.373-9.453 13.145-12.894 20.524-0.993 2.13-1.789 4.333-2.188 6.659-0.133 0.775-0.237 1.563-0.258 2.347-0.015 0.544 0.13 1.093 0.211 1.638 0.021 0.141 0.069 0.277 0.105 0.416-0.035 0.021-0.070 0.042-0.106 0.064z"></path>
<path fill="#fff" d="M16.171 5.161c1.236-1.407 8.53-3.893 11.726-4.215 9.396-0.946 15.835 1.408 20.389 4.251-0.277 0-0.464 0.012-0.648-0.002-2.509-0.188-4.914 0.317-7.289 1.061-1.814 0.568-3.549 1.327-5.27 2.124-0.85 0.394-1.718 0.752-2.559 1.164-0.389 0.191-0.711 0.163-1.082-0.030-1.891-0.982-3.817-1.898-5.825-2.614-1.522-0.543-3.070-1.023-4.629-1.447-1.24-0.337-2.533-0.301-3.813-0.294-0.291 0.002-0.583 0-1.001 0z"></path>
</svg>
