<?xml version="1.0" standalone="no"?>
<!DOCTYPE svg PUBLIC "-//W3C//DTD SVG 20010904//EN"
 "http://www.w3.org/TR/2001/REC-SVG-20010904/DTD/svg10.dtd">
<svg version="1.0" xmlns="http://www.w3.org/2000/svg"
 width="700.000000pt" height="700.000000pt" viewBox="0 0 700.000000 700.000000"
 preserveAspectRatio="xMidYMid meet">
<metadata>
Created by potrace 1.11, written by Peter Selinger 2001-2013
</metadata>
<g transform="translate(0.000000,700.000000) scale(0.100000,-0.100000)"
fill="#000000" stroke="none">
<path d="M5695 6555 c-135 -34 -244 -94 -342 -189 -40 -39 -73 -76 -73 -83 0
-7 -4 -13 -10 -13 -14 0 -87 -156 -106 -225 -22 -83 -26 -234 -8 -320 17 -79
86 -230 133 -288 l30 -39 -48 -71 c-39 -57 -159 -228 -251 -357 -69 -97 -398
-564 -416 -590 -13 -19 -60 -87 -105 -150 -45 -63 -107 -151 -138 -195 -30
-44 -59 -84 -63 -90 -7 -9 -251 -354 -346 -490 -92 -131 -173 -245 -175 -245
-1 0 -34 9 -72 21 -130 38 -325 31 -454 -18 -168 -63 -313 -196 -385 -354 -39
-87 -65 -183 -68 -256 0 -24 -3 -43 -4 -43 -2 0 -43 46 -91 102 -49 57 -100
117 -115 133 -14 17 -128 149 -253 295 -125 146 -251 292 -279 324 -56 65 -77
89 -108 126 -58 68 -152 178 -172 200 -12 14 -50 57 -83 96 l-61 71 27 44 c58
93 91 217 92 342 2 161 -38 294 -125 412 -133 181 -316 279 -542 292 -470 27
-833 -434 -699 -887 74 -251 275 -437 530 -490 132 -28 334 -6 421 45 l42 24
173 -197 c96 -108 186 -210 200 -227 15 -16 163 -187 330 -380 458 -529 491
-567 526 -605 18 -19 31 -35 30 -36 -6 -5 -265 -161 -277 -167 -8 -4 -34 -20
-58 -35 -194 -124 -634 -382 -651 -382 -12 0 -46 20 -75 44 -60 49 -180 112
-242 127 -21 5 -48 12 -59 15 -11 4 -65 9 -121 11 -81 4 -117 1 -182 -15 -261
-66 -462 -270 -528 -537 -10 -40 -11 -217 -2 -258 5 -23 11 -51 14 -61 29
-145 147 -312 284 -403 123 -82 224 -114 370 -118 83 -3 124 2 240 29 36 9
133 57 187 94 60 41 111 91 153 152 14 19 28 37 32 40 19 15 71 140 89 217 17
73 20 107 16 198 -4 61 -7 121 -9 134 -3 28 -46 0 482 321 179 108 379 228
444 265 104 59 120 65 133 52 13 -13 12 -22 -10 -78 -49 -123 -58 -165 -62
-262 -7 -149 25 -286 89 -383 47 -72 91 -128 125 -158 19 -17 39 -36 45 -42
27 -25 136 -94 150 -94 8 0 17 -4 20 -9 3 -5 16 -11 28 -14 13 -3 50 -12 83
-21 74 -19 278 -15 345 7 198 65 358 196 435 358 16 34 20 36 49 28 17 -4 49
-10 71 -14 22 -3 99 -16 170 -30 72 -13 144 -26 160 -29 28 -5 101 -18 170
-31 17 -3 80 -14 140 -25 61 -11 124 -22 140 -25 17 -4 49 -9 72 -12 40 -5 42
-7 48 -47 14 -98 29 -147 73 -235 36 -75 61 -110 121 -171 154 -154 280 -210
480 -213 134 -2 180 5 273 40 212 83 371 262 427 481 24 93 25 255 2 342 -64
241 -245 428 -481 501 -62 18 -97 23 -200 22 -107 0 -136 -4 -205 -26 -44 -15
-109 -43 -145 -64 -83 -48 -208 -171 -250 -245 -17 -32 -35 -60 -38 -61 -4 -2
-46 4 -93 13 -48 10 -104 20 -125 23 -22 3 -46 8 -54 11 -8 3 -33 7 -55 10
-38 5 -58 9 -122 21 -16 3 -53 10 -83 15 -30 6 -66 12 -79 15 -13 2 -103 19
-200 36 -169 30 -207 42 -196 60 10 16 -28 155 -62 224 -19 39 -54 96 -78 127
l-45 58 40 52 c96 125 143 266 143 433 1 164 -27 263 -108 391 -19 30 -35 57
-35 61 0 3 31 49 69 102 57 81 450 638 625 889 28 40 62 88 76 107 14 18 194
274 400 568 291 414 379 534 393 531 10 -2 27 -6 37 -9 78 -25 240 -29 338 -9
433 87 677 573 489 974 -93 200 -255 332 -478 389 -87 22 -227 25 -304 6z"/>
</g>
</svg>
