<svg version="1" xmlns="http://www.w3.org/2000/svg" width="366.667" height="366.667" viewBox="0 0 275.000000 275.000000"><path d="M220 18.1c0 .4-1.2 1.1-2.7 1.7-5.7 2-14.3 13-14.9 18.7-.7 8.2-.6 10.5.6 14 .7 2.2 2.3 5.6 3.6 7.5 1.3 1.9 2 3.7 1.6 4-.5.3-1.1 1.3-1.5 2.3-.4 1.1-1.2 1.5-1.9 1.1-.7-.4-1-.4-.6.1 1 1.1-2 6.5-3.7 6.5-.8 0-1.2.6-.9 1.4.3.7-.2 1.6-1.1 2-.9.3-1.4 1-1.1 1.5.4.5-.5 1.8-1.9 3-1.5 1.1-2.6 2.3-2.7 2.8 0 .4-.4.7-.9.6-.4-.2-.6.3-.4 1 .3.6-.6 2.4-2 3.9-1.4 1.6-2.3 2.8-2 2.8.4 0 0 .7-.7 1.5-3 3.3-3.8 4.5-3.8 5.5 0 .5-.4 1-.8 1-.5 0-1.7 1.6-2.8 3.5-1 1.9-2.2 3.5-2.6 3.5-.5 0-.8.5-.8 1 0 1-.8 2.2-3.7 5.5-.7.7-1.3 1.7-1.3 2.2 0 .5-1.3 2.3-3 4.1-1.6 1.8-3.1 3.6-3.2 4-.2.4-.6.6-1 .5-.4-.2-.4.5-.1 1.4.4 1 .2 1.4-.4 1-.6-.4-1.3.3-1.7 1.6-.3 1.2-1.6 3.4-3 4.8-1.4 1.5-2.2 2.9-1.9 3.3.3.3-.2.8-1.1 1.2-.9.3-1.6 1.2-1.6 1.9 0 .6-1.1 2.4-2.5 3.9-1.3 1.4-2.4 3-2.4 3.3 0 .4-.5.9-1.2 1.2-.6.2-.9-.1-.6-.6.3-.5-.2-.9-1.2-.8-1 0-4.5-.2-7.9-.5-3.4-.3-6.2-.2-6.2.2s-.7.8-1.5.8c-2.1 0-9.5 3.3-9.5 4.3 0 .4-.5.5-1.2.1-.7-.5-.8-.3-.4.5.5.8 0 1.4-1.3 1.8-1.1.3-1.8.9-1.5 1.4.3.5.1.9-.4.9-.8 0-4.3 6-4.8 8.2-.1.5-.3 1-.4 1.3-.1.3-.4.9-.5 1.5-.1.5-.4 1.3-.5 1.7-.1.5-.1 1.7 0 2.8.1 1.6-.5 1.3-2.8-1.5-1.7-1.9-2.8-3.8-2.5-4.3.2-.4.1-.6-.4-.5-1.4.5-11.4-11.2-10.7-12.4.4-.6.3-.8-.3-.5-.5.3-4.4-3.3-8.5-8.1-4.2-4.8-9-10.3-10.7-12.2-5.5-6.1-7.2-8.8-6.1-9.5 3.4-2.1 5-13.9 3-21-.6-2.2-1.2-4.8-1.3-5.7-.1-.9-.5-1.4-.9-1.2-.4.3-.8.2-.8-.3 0-1.7-7-8.4-11-10.4-2.6-1.4-6.7-2.4-11-2.7-5.7-.4-7.6-.1-12.1 2-3 1.4-6.7 3.8-8.3 5.4-3.3 3.4-7 8.4-6.1 8.4.3 0-.1 1-.9 2.2-2.3 3.7-1.8 14.7.8 20.5 6.1 13 21.2 19.5 34.3 14.9 3.8-1.3 4.1-1.3 5.9.7 1 1.2 1.7 2.3 1.5 2.5-.1.2.8 1.3 2.1 2.4 1.3 1.1 2.2 2.5 2 3.2-.2.6-.1.8.3.4.7-.7 3.5 1.5 3.5 2.7 0 .4 1.4 2 3 3.5 1.7 1.5 3 3.2 3 3.8 0 .5.7 1.3 1.6 1.6.8.3 1.2 1.1.8 1.7-.4.7-.3.9.3.6 1.1-.7 4.9 4.2 4.5 5.6-.1.5.1.6.6.3.8-.5 4.9 3.5 4.3 4.3-.1.2.4.8 1.3 1.3s1.3 1.4 1 2c-.4.6-.3.8.3.5 1.1-.7 4.5 2.8 3.6 3.7-.4.3.2.6 1.2.6s1.5.3 1.2.6c-.4.4.4 1.6 1.7 2.8 1.3 1.2 3.1 3.3 4 4.7 1.5 2.4 1.5 2.7 0 3.3-.8.3-2.1.3-2.6-.1-.7-.3-.8-.1-.4.5.4.7-.2 1.6-1.6 2.2-1.3.6-4.3 2.4-6.8 4s-5.6 3.5-7 4.2c-1.4.7-2.8 1.7-3.1 2.2-.4.5-1.2.5-1.9.1-.9-.5-1.1-.4-.6.3.4.7.3 1.2-.1 1.2-.5 0-3.3 1.6-6.3 3.5-6.1 4-6.3 4-8.2 2.2-.7-.8-2.4-1.9-3.6-2.6-1.2-.7-2-1.7-1.6-2.3.4-.7.3-.8-.4-.4-.6.4-3.1.2-5.4-.5-4.9-1.4-12.8-1.8-12.8-.7 0 .5-.7.8-1.6.8-2.8 0-8 3-12 6.9-4.3 4.3-6.5 6.8-6.4 7.6.1 2.7-.1 3.5-.9 3.1-.5-.3-.8 3.2-.7 8.2.2 12.8 4.6 20.1 15.5 25.6 9.6 4.9 22.8 2.7 30.9-5.2 1.7-1.6 3.4-2.7 3.7-2.4.4.4.5.2.4-.3-.4-1.5 1.1-5.6 2-5.1.6.4 1.1-1.8 1.4-6.2 0-.6.4-1.2.8-1.2s.5-.8.3-1.8c-.2-.9-.5-3.6-.7-5.9-.4-4-.2-4.4 3.2-6.5 2-1.2 3.9-2.1 4.4-2 .4.1.7-.3.7-.9 0-.6.7-.8 1.7-.5 1 .4 1.4.4 1.1 0-.6-.5 5.4-5.4 6.7-5.4.2 0 2.4-1.4 4.9-3.1 2.5-1.7 5.1-2.7 5.7-2.3.8.4.9.3.5-.5-.4-.6 0-1.4 1.1-1.8 1-.3 3-1.4 4.4-2.4 1.4-1 2.9-1.6 3.3-1.2.3.3.6.1.6-.5 0-.7.7-1.2 1.5-1.2s1.5.7 1.5 1.5-.5 1.5-1.2 1.5c-.6 0-.9.2-.6.5.3.3 0 2.4-.6 4.7-.7 2.3-1 5.9-.6 8.3.4 2.3.6 5.2.5 6.3-.1 1.2.2 1.9.6 1.7.3-.3 1.3 1 2 2.8 1.9 4.7 9.5 11.3 15.2 13.1 12.3 4 25.5-.4 31.9-10.6 2.2-3.6 4.5-4.4 6-2.3.5.6.8.5.8-.2 0-.9.7-1 2.4-.3 1.3.5 4.4 1.1 6.7 1.5 2.4.3 7.6 1.2 11.4 1.9 3.9.8 8.6 1.7 10.6 2 3.3.6 3.8 1.1 4.4 4.3 1.2 6.7 5 12.4 11.3 17.6 1.2.9 2.6 1.7 3 1.7.4 0 1.9.6 3.4 1.4 1.5.8 5.6 1.4 9.5 1.4 24.5 0 36.5-29.5 19-46.8-3.1-3.1-6.4-5.3-9.2-6.1-2.4-.7-4.2-1.5-4-1.8.2-.4-2-.5-4.8-.4-2.9.1-5.2.2-5.2.3 0 .1-1 .3-2.3.6-6.1 1.1-18.2 10.5-18.2 14.1 0 .9-.8 1.2-2.2.8-2.6-.5-18.4-3.3-23.8-4.1-1.9-.3-4.2-.8-5-1.1-1.5-.6-3.5-1-7-1.2-1.4-.1-2-.8-2-2.6 0-2.9-3.9-11.5-6-13.2-1.2-1-1.3-1.5-.2-3 2.4-3.4 6.1-11.7 5.6-12.5-.3-.4 0-.8.6-.8s.9-.4.6-.8c-.3-.5-.6-3.4-.7-6.5-.1-3.1-.6-5.7-1.1-5.7-.4 0-.8-.7-.8-1.6 0-.9-.9-2.9-2.1-4.5-1.7-2.4-1.8-3.3-.9-4.4.7-.8 1.6-1.2 2.1-.9.5.3.6-.2.3-1-.3-.9-.1-1.6.5-1.6s1-.6.8-1.3c-.1-.6.4-1.1 1.1-.9.8.1 1.1-.1.8-.6-.7-1.2 3.9-7.4 4.8-6.5.4.4.4 0 0-1-.3-1-.1-1.7.5-1.7s1.1-.7 1.1-1.5.7-1.5 1.5-1.5 1.4-.3 1.3-.8c-.3-1 11-18 19.9-29.7.5-.6 2.6-3.6 4.7-6.7 2.1-3.2 4.3-5.5 4.7-5.2.5.3.6-.1.4-.8-.3-.8.3-2.3 1.3-3.4 1.1-1.1 3-3.6 4.3-5.6 1.3-1.9 4-5.8 5.9-8.6l3.5-5.2 4.5.7c2.5.3 5 .6 5.5.6 7.8-.5 15.3-3.8 19.9-8.7 6.8-7.2 9.6-19.8 6.3-27.9-.9-2-1.4-3.7-1.1-3.7.5 0-4.3-5.5-7.6-8.6-1.4-1.3-2.8-2.4-3.3-2.4-.4 0-.5-.5-.1-1.2s.3-.8-.4-.4c-.6.4-2.4 0-4-.8-2.8-1.5-19.2-1.9-19.2-.5z"/><path d="M204.6 61.8c-.3.5.1.9.9.9s1.2-.4.9-.9c-.3-.4-.7-.8-.9-.8-.2 0-.6.4-.9.8z"/></svg>