<?xml version="1.0" standalone="no"?>
<!DOCTYPE svg PUBLIC "-//W3C//DTD SVG 20010904//EN"
 "http://www.w3.org/TR/2001/REC-SVG-20010904/DTD/svg10.dtd">
<svg version="1.0" xmlns="http://www.w3.org/2000/svg"
 width="260.000000pt" height="260.000000pt" viewBox="0 0 260.000000 260.000000"
 preserveAspectRatio="xMidYMid meet">
<metadata>
Created by potrace 1.11, written by Peter Selinger 2001-2013
</metadata>
<g transform="translate(0.000000,260.000000) scale(0.100000,-0.100000)"
fill="#000000" stroke="none">
<path d="M2150 2494 c-94 -38 -139 -79 -176 -159 -28 -60 -33 -160 -9 -205 9
-17 13 -30 10 -30 -4 0 1 -7 9 -16 9 -8 13 -20 10 -26 -4 -6 -2 -8 3 -5 6 4
13 0 17 -8 3 -8 -3 -19 -12 -24 -9 -6 -12 -11 -7 -11 6 0 6 -3 -1 -8 -5 -4
-30 -37 -54 -74 -24 -38 -48 -68 -52 -68 -4 0 -8 -6 -8 -14 0 -8 -7 -17 -16
-20 -9 -4 -14 -9 -11 -13 4 -3 -3 -14 -15 -24 -11 -11 -18 -19 -14 -19 4 0 -3
-14 -15 -31 -17 -24 -24 -28 -31 -17 -7 10 -8 8 -4 -5 5 -17 -36 -86 -56 -95
-5 -2 -8 -10 -8 -18 0 -8 -4 -14 -10 -14 -5 0 -10 -5 -10 -11 0 -6 -10 -24
-22 -39 -13 -15 -50 -66 -82 -114 -33 -47 -63 -83 -68 -80 -4 3 -5 -3 -1 -12
4 -12 3 -15 -5 -10 -7 4 -12 2 -12 -5 0 -14 -42 -80 -73 -115 -11 -14 -26 -20
-38 -17 -10 3 -17 8 -15 12 7 10 -117 4 -149 -8 -16 -6 -42 -18 -56 -26 -14
-8 -30 -11 -34 -7 -5 4 -5 1 -1 -6 4 -7 0 -15 -10 -19 -9 -3 -29 -25 -44 -49
-22 -35 -30 -41 -40 -31 -12 10 -12 9 -2 -4 9 -12 10 -24 2 -43 -5 -15 -10
-38 -10 -52 0 -21 -2 -23 -14 -12 -8 7 -12 15 -10 17 2 2 -8 12 -21 23 -14 11
-22 24 -19 30 4 7 2 8 -4 4 -11 -7 -38 32 -34 47 1 5 -2 6 -6 3 -5 -3 -25 14
-45 37 -48 58 -73 86 -113 129 -19 20 -34 39 -34 41 0 2 -27 33 -60 68 -33 35
-60 72 -60 82 0 11 4 15 12 11 6 -4 8 -3 5 4 -8 12 2 44 12 38 3 -2 7 31 9 73
3 65 -1 86 -22 134 -81 184 -313 223 -453 77 -54 -56 -78 -130 -69 -214 4 -33
7 -67 8 -73 1 -7 5 -13 9 -13 4 0 10 -8 14 -19 13 -41 96 -110 155 -129 43
-14 139 -13 174 2 36 15 38 15 62 -9 14 -14 23 -25 20 -25 -2 0 12 -17 32 -39
69 -71 102 -114 96 -123 -3 -4 -1 -7 4 -6 10 3 56 -43 120 -122 20 -25 45 -52
54 -61 10 -9 18 -20 18 -24 0 -4 15 -21 33 -37 17 -17 25 -27 17 -23 -8 4 -2
-4 13 -17 l29 -24 -24 -17 c-37 -27 -190 -117 -200 -117 -4 0 -8 -4 -8 -9 0
-5 -8 -11 -17 -15 -20 -6 -66 -33 -103 -59 -28 -20 -45 -22 -34 -5 5 7 3 8 -6
3 -7 -4 -15 -3 -19 2 -3 6 -26 21 -51 34 -35 18 -63 24 -125 25 -44 1 -85 -2
-92 -8 -7 -5 -18 -6 -24 -2 -7 4 -9 3 -6 -3 8 -13 -20 -26 -35 -16 -6 3 -9 2
-6 -3 7 -11 -17 -35 -26 -27 -3 4 -6 0 -6 -7 0 -8 -11 -25 -24 -39 -41 -45
-59 -111 -52 -188 3 -37 6 -76 7 -86 0 -9 4 -15 9 -12 5 3 11 -4 15 -14 8 -26
94 -111 112 -111 8 0 11 -5 7 -12 -4 -7 -3 -8 5 -4 13 9 53 -2 47 -13 -2 -3
32 -3 77 2 45 5 90 9 99 10 9 1 15 4 12 8 -2 4 5 11 16 14 12 4 38 23 58 43
20 20 40 36 44 35 4 -2 5 4 2 12 -4 8 -1 15 7 15 7 0 9 3 6 6 -3 4 -2 15 4 26
16 30 20 57 19 127 0 56 2 62 17 57 10 -4 14 -4 10 0 -8 9 73 65 84 59 4 -3
10 2 13 11 3 8 10 13 15 9 6 -3 13 1 18 8 4 8 28 25 53 39 25 14 61 35 80 47
19 12 43 24 53 27 9 4 17 10 17 15 0 5 7 9 15 9 8 0 15 5 15 11 0 5 5 7 11 4
6 -4 7 -14 4 -24 -4 -9 -9 -25 -13 -36 -8 -26 -10 -185 -3 -185 4 0 12 -13 19
-30 20 -45 81 -101 141 -128 45 -21 64 -24 120 -20 37 3 84 13 106 23 44 21
125 100 125 123 0 11 8 13 38 7 20 -4 46 -9 57 -10 11 -2 36 -6 55 -10 40 -7
138 -25 160 -29 82 -15 89 -18 95 -47 4 -16 4 -33 0 -39 -3 -5 -2 -10 4 -10 5
0 13 -10 17 -22 7 -23 10 -27 53 -75 16 -18 32 -33 36 -33 4 0 20 -9 36 -21
16 -11 29 -17 29 -13 0 3 6 2 13 -3 21 -17 115 -15 171 2 66 21 131 81 162
151 18 40 22 68 21 128 -1 42 -4 76 -8 76 -4 0 -12 13 -19 30 -12 29 -94 119
-111 121 -14 2 -22 5 -54 18 -98 41 -265 -23 -314 -121 -13 -25 -51 -40 -51
-20 0 4 -15 8 -32 8 -29 1 -48 5 -108 19 -32 7 -115 17 -121 13 -3 -1 -12 2
-20 8 -8 6 -22 10 -31 9 -10 -2 -18 0 -18 5 0 4 -7 7 -16 6 -12 -1 -17 9 -20
34 -4 37 -22 80 -39 92 -6 5 -6 8 -1 8 6 0 1 6 -9 14 -19 14 -14 53 5 41 5 -3
10 1 10 10 0 9 7 30 17 48 17 34 34 157 22 157 -5 0 -6 9 -4 20 2 11 -2 26 -8
33 -29 32 -44 73 -34 95 6 12 14 22 19 22 4 0 8 5 8 10 0 11 10 24 43 61 9 10
14 19 10 19 -3 0 2 10 13 23 11 12 38 48 59 80 21 31 42 57 47 57 5 0 7 4 3 9
-3 6 3 14 12 20 10 6 15 11 11 11 -5 0 7 20 26 45 19 24 54 74 77 110 24 36
47 65 51 65 4 0 8 7 8 15 0 8 4 15 8 15 5 0 14 12 20 26 7 14 17 22 22 19 5
-3 7 0 5 8 -3 7 3 22 15 32 11 10 20 24 20 32 0 7 4 13 8 13 5 0 15 11 22 25
7 13 17 22 21 19 5 -3 6 1 3 9 -3 9 4 22 18 31 13 9 21 17 19 19 -2 1 1 11 8
22 11 18 23 20 121 19 60 0 108 2 107 5 -1 3 0 6 3 6 14 1 123 106 127 121 1
5 10 29 19 54 11 31 15 65 11 111 -5 84 -48 154 -125 206 -47 31 -62 35 -130
39 -42 2 -84 1 -92 -2z"/>
</g>
</svg>
