<?xml version="1.0" standalone="no"?>
<!DOCTYPE svg PUBLIC "-//W3C//DTD SVG 20010904//EN"
 "http://www.w3.org/TR/2001/REC-SVG-20010904/DTD/svg10.dtd">
<svg version="1.0" xmlns="http://www.w3.org/2000/svg"
 width="350.000000pt" height="350.000000pt" viewBox="0 0 350.000000 350.000000"
 preserveAspectRatio="xMidYMid meet">
<metadata>
Created by potrace 1.11, written by Peter Selinger 2001-2013
</metadata>
<g transform="translate(0.000000,350.000000) scale(0.100000,-0.100000)"
fill="#000000" stroke="none">
<path d="M1566 3489 c-433 -46 -867 -274 -1141 -601 -404 -481 -526 -1100
-334 -1688 91 -278 283 -569 498 -756 676 -589 1646 -589 2322 0 215 187 407
478 498 756 142 436 113 895 -84 1305 -320 666 -1027 1061 -1759 984z m1147
-604 c87 -36 146 -118 154 -214 10 -111 -39 -203 -137 -254 -49 -26 -63 -28
-131 -25 l-76 3 -109 -154 c-60 -85 -190 -269 -290 -409 l-181 -255 26 -46
c22 -38 26 -59 26 -121 0 -63 -5 -84 -29 -132 -27 -54 -28 -59 -13 -76 22 -24
47 -86 47 -117 0 -14 6 -28 13 -30 6 -3 91 -16 187 -30 157 -23 175 -24 183
-10 38 68 115 118 199 130 103 15 220 -51 268 -151 26 -52 29 -154 6 -207 -19
-48 -82 -114 -129 -138 -151 -77 -346 22 -373 189 -7 46 15 39 -222 74 -142
20 -155 21 -163 6 -65 -116 -225 -163 -347 -102 -116 58 -167 187 -126 323 8
29 13 55 11 57 -3 3 -65 -33 -138 -79 -74 -46 -162 -100 -196 -120 l-62 -38 6
-47 c11 -100 -46 -207 -136 -254 -43 -23 -66 -28 -121 -28 -77 0 -124 16 -175
62 -48 41 -76 99 -82 167 -7 72 9 129 50 183 85 112 256 132 372 44 l31 -24
174 109 c96 60 180 111 185 113 6 2 -2 16 -16 32 -35 39 -412 468 -414 471 0
1 -21 -5 -45 -13 -57 -20 -142 -14 -196 14 -162 84 -197 288 -71 419 102 108
291 101 386 -14 62 -75 78 -185 40 -273 l-21 -49 23 -28 c13 -16 102 -118 198
-227 l175 -198 20 61 c26 78 64 125 124 155 63 31 117 39 177 26 49 -11 51
-11 72 17 21 26 533 749 548 773 4 6 -4 28 -17 48 -88 133 -44 307 94 376 61
31 163 36 221 11z"/>
</g>
</svg>
