<svg viewBox="0 0 1000 560" xmlns="http://www.w3.org/2000/svg" stroke-miterlimit="1.414" clip-rule="evenodd" fill-rule="evenodd" stroke-linejoin="round"><path d="M0 89.996C0 62.384 22.378 40 49.997 40h900.006C977.616 40 1000 62.388 1000 89.996v380.008c0 27.612-22.378 49.996-49.997 49.996H49.997C22.384 520 0 497.612 0 470.004V89.996z" fill="#e1be00"/><path d="M769.68 134.76v94.64c6.03-6.976 12.753-12.181 20.17-15.61 7.419-3.428 18.552-5.157 27.24-5.157 10.01 0 18.685 1.552 26.04 4.667 7.362 3.109 12.967 7.471 16.829 13.08 3.857 5.614 6.172 11.11 6.962 16.485.781 5.377 1.176 16.843 1.176 34.41v81.63c0 17.448-1.176 30.434-3.528 38.981-2.357 8.543-7.881 15.958-16.567 22.23-8.691 6.267-19 9.405-30.952 9.405-8.567 0-19.648-1.857-27.07-5.581-7.424-3.724-14.21-9.314-20.362-16.767l-4.709 18.538h-68.04v-290.95h72.809m-631.58 290.95h75.58v-290.95h-75.58v290.95m199.38-290.95c2.881 17.615 5.9 38.29 9.06 62.01l10.829 73.915 17.505-135.92h98.73v290.95h-65.99l-.239-196.38-26.433 196.38h-47.15l-27.862-192.11-.238 192.11h-66.2v-290.95h97.99m218.36 0c36.581 0 57.629 1.681 70.52 5.03 12.895 3.347 22.705 8.847 29.419 16.504 6.719 7.657 10.915 16.181 12.595 25.567 1.677 9.39 2.752 27.843 2.752 55.36v102.18c0 26.08-1.461 43.519-3.918 52.31-2.462 8.8-6.748 15.676-12.862 20.638-6.124 4.962-13.676 8.433-22.672 10.404-9 1.977-22.551 2.962-40.657 2.962h-91.57v-290.95h56.39m239.33 220.35c0 14.08-.7 22.977-2.096 26.677-1.4 3.704-7.485 5.566-12.1 5.566-4.5 0-7.5-1.786-9.02-5.371-1.519-3.581-2.272-11.757-2.272-24.538v-76.891c0-13.257.667-21.519 2-24.809 1.333-3.277 4.248-4.924 8.743-4.924 4.609 0 10.796 1.871 12.376 5.633 1.576 3.762 2.367 11.795 2.367 24.09v74.57m-203.37-167.99c2.986 1.728 4.901 4.457 5.734 8.157.833 3.709 1.257 12.138 1.257 25.29v112.8c0 19.371-1.257 31.23-3.767 35.595-2.509 4.371-9.2 6.548-20.06 6.548v-190.99c8.234 0 13.852.866 16.838 2.6"/></svg>