<svg xmlns="http://www.w3.org/2000/svg" width="560" height="560"><g fill="none"><path fill="#FFF" d="M370.57 474.214l23.466-237.956c14.93-4.796 29.498-11.15 40.23-20.262L404.16 446.278c-6.748 10.248-19.863 20.86-33.59 27.936zm-78.197 21.631l2.947-244.528c20.894-.599 47.933-3.43 70.97-8.346l-19.07 241.17c-22.724 7.518-35.934 9.848-54.847 11.704zm-99.694-252.874c23.038 4.916 50.077 7.747 70.971 8.346l2.948 244.528c-18.914-1.856-32.123-4.186-54.847-11.705l-19.072-241.17zm-67.974-26.975c10.732 9.112 25.3 15.466 40.23 20.262l23.464 237.956c-13.726-7.075-26.84-17.688-33.59-27.936l-30.104-230.282z"/><path fill="gold" d="M118.905 157.445c1.357 28.827 72.771 51.677 160.578 51.176 76.687-.438 140.659-18.546 156.329-42.336a22.976 22.976 0 00-14.058-7.426c.06-.7.098-1.406.095-2.122-.065-11.4-8.429-20.788-19.327-22.54.287-1.474.438-2.999.43-4.559-.072-12.696-10.426-22.928-23.124-22.856-.287.001-.568.036-.853.049a22.911 22.911 0 001.254-7.56c-.074-12.697-10.425-22.93-23.123-22.858a22.914 22.914 0 00-8.247 1.6c-3.632-6.835-10.606-11.6-18.737-12.149-1.416-11.4-11.157-20.195-22.93-20.129-7.41.042-13.963 3.6-18.136 9.065-4.233-4.605-10.3-7.494-17.047-7.456-12.698.072-22.932 10.424-22.86 23.118a22.983 22.983 0 001.115 6.946 22.918 22.918 0 00-13.07 7.459c-2.644-9.847-11.637-17.084-22.314-17.024-9.975.057-18.406 6.47-21.537 15.366-8.474 3.426-14.439 11.738-14.383 21.433.012 2.154.342 4.227.907 6.202a22.876 22.876 0 00-9.328-1.932c-10.012.058-18.47 6.516-21.574 15.465a22.83 22.83 0 00-9.788-2.149c-12.698.072-22.934 10.422-22.86 23.118a22.833 22.833 0 003.159 11.463c-.202.203-.379.426-.571.636"/><path fill="#FA320A" d="M404.161 446.278c-6.749 10.248-19.864 20.86-33.59 27.936l23.465-237.956c14.93-4.796 29.498-11.15 40.23-20.262L404.16 446.278zM347.22 484.14c-22.723 7.519-35.934 9.85-54.847 11.705l2.947-244.528c20.894-.599 47.933-3.43 70.973-8.346L347.22 484.14zm-135.47 0l-19.07-241.17c23.037 4.917 50.076 7.748 70.97 8.347l2.948 244.528c-18.914-1.856-32.123-4.186-54.847-11.705zm-56.94-37.862l-30.105-230.282c10.732 9.112 25.3 15.466 40.23 20.262l23.464 237.956c-13.726-7.075-26.84-17.688-33.588-27.936zm247.668-321.143c.298 1.453.465 2.955.473 4.498a23.018 23.018 0 01-.43 4.56c10.9 1.749 19.263 11.137 19.328 22.54a23.59 23.59 0 01-.095 2.12 22.976 22.976 0 0114.058 7.425c-15.669 23.792-79.642 41.9-156.327 42.34-87.807.502-159.221-22.346-160.58-51.175.192-.208.37-.433.57-.634-1.355-2.311-2.29-4.887-2.773-7.62-8.408 7.979-13.495 14.412-12.6 23.78.085 1.251 37.196 266.911 37.196 266.911 4.282 42.075 65.391 75.703 138.187 76.12 72.796-.417 133.907-34.045 138.187-76.12 0 0 37.11-265.66 37.197-266.912 1.777-18.736-20.15-35.745-52.39-47.833z"/></g></svg>