<svg width="48" height="48" fill="none" xmlns="http://www.w3.org/2000/svg"><rect y="8" width="48" height="32" rx="2" fill="#333"/><path d="M5.708 12.19c-.375-.065-.75-.128-1.125-.19h-.509s-.269.139-.373.178c-1.334.496-1.835 1.26-1.671 2.693.724 6.411 1.453 12.822 2.201 19.238.214 1.845 1.126 2.564 2.98 2.36a92.817 92.817 0 003.233-.427c.427-.062.853-.123 1.28-.182 2.169-.3 4.337-.603 6.505-.905 2.168-.303 4.336-.605 6.505-.905.917-.13 1.552-.64 1.75-1.503.022-.093.047-.19.072-.287.172-.667.365-1.418-.275-1.919-3.327-2.588-3.332-7.64-.024-10.234.168-.129.347-.382.351-.58.03-.918.04-1.84-.02-2.757-.074-1.12-.743-1.81-1.874-1.964-2.444-.33-4.887-.657-7.331-.983-3.055-.409-6.11-.817-9.165-1.233-.842-.116-1.676-.259-2.51-.4zm17.102 5.026c.73 0 1.334.585 1.344 1.31.01.708-.59 1.333-1.309 1.363a1.341 1.341 0 01-1.363-1.29 1.306 1.306 0 011.328-1.383zM7.628 24.148H6.309v-.997h.258v.705h.268v-.62h.257v.62h.278v-.714h.258v1.006zm-.53.61h.53v-.288H6.309v.288h.52v.535h-.52v.288h1.319v-.288h-.53v-.535zm.53 1.448H6.577v-.402h-.268v1.091h.268v-.402h1.05v-.287z" fill="#227D3A"/><path d="M32.023 20.36v-3.545h2.613v13.298c-.64-.024-1.281-.04-1.92-.055-1.499-.037-2.992-.074-4.476-.213-1.26-.119-2.127-1.016-2.717-2.122-1.156-2.177-.704-5.047 1.175-6.476.664-.5 1.611-.718 2.469-.852.62-.1 1.258-.078 1.931-.056.3.01.608.02.925.02zm-.045 2.087c-.24 0-.473-.003-.7-.006a21.007 21.007 0 00-1.377.011c-1.324.075-2.142.962-2.261 2.395-.13 1.517.58 2.752 1.84 2.985.558.103 1.136.116 1.718.129.26.005.52.011.78.025v-5.539zm13.879 4.012c-.56 2.062-1.87 3.351-4.026 3.495-1.295.086-2.6.065-3.917.044a104.6 104.6 0 00-1.776-.019v-13.14h2.633v3.516l.858-.001a193.42 193.42 0 011.582 0c2.727.026 4.086 1.126 4.705 3.789l.002.005c.016.08.21 1.017-.061 2.31zm-7.026 1.507c.343-.025.693-.016 1.04-.008 1.166.03 2.293.058 2.981-1.207.6-1.1.65-2.355-.084-3.401-.717-1.016-1.725-.969-2.746-.92-.399.018-.8.037-1.186-.008-.005 1.885-.005 3.665-.005 5.544zM12.04 20.522c-.436-.002-.88-.004-1.333-.004 0-1.06-.015-2.94-.015-2.94v-.595s-1.87-.03-2.712-.03v3.417l-1.626.015s-.065 1.551-.065 2.236h1.726v2.25c-.003.894-.005 1.788.015 2.683.024 1.166.738 2.286 1.71 2.455.752.13 1.518.165 2.291.201.344.016.69.032 1.036.057V28.11c-.137 0-.27.001-.398.003-.29.003-.56.005-.831-.008-.556-.025-1.042-.303-1.066-.853a71.029 71.029 0 01-.027-3.284c.003-.45.007-.904.007-1.362.269 0 .53.002.787.004.6.005 1.174.01 1.746-.014.481-.02.704.174.873.61.64 1.666 1.304 3.327 1.983 4.978.072.174.135.363.2.554.187.556.38 1.126.767 1.37.436.272 1.11.192 1.745.117.152-.018.303-.035.447-.048.273-.024.654-.262.758-.5a625.204 625.204 0 003.207-7.381l.468-1.088a2.38 2.38 0 00.128-.43c.019-.08.04-.168.065-.264-.244 0-.478.002-.704.005-.502.006-.965.012-1.423-.015-.476-.025-.719.148-.888.59a178.161 178.161 0 01-1.542 3.872c-.172.43-.358.853-.559 1.312-.105.24-.214.49-.328.756l-.135-.308a9.371 9.371 0 01-.163-.381c-.18-.486-.364-.972-.546-1.458a215.63 215.63 0 01-1.368-3.704c-.178-.5-.426-.694-.971-.68-1.072.029-2.144.024-3.258.02z" fill="#fff"/></svg>