<svg xmlns="http://www.w3.org/2000/svg" width="560" height="560"><g fill="none"><path fill="#FA320A" d="M478.29 296.976c-3.99-63.966-36.52-111.823-85.468-138.579.278 1.56-1.109 3.508-2.688 2.818-32.016-14.006-86.328 31.32-124.282 7.584.285 8.519-1.378 50.072-59.914 52.483-1.382.056-2.142-1.355-1.268-2.354 7.828-8.929 15.732-31.535 4.367-43.586-24.338 21.81-38.472 30.017-85.138 19.186-29.878 31.241-46.809 74-43.485 127.265 6.78 108.735 108.63 170.89 211.193 164.49 102.556-6.395 193.466-80.572 186.683-189.307"/><path fill="#00912D" d="M291.375 132.293c21.075-5.023 81.693-.49 101.114 25.274 1.166 1.545-.475 4.468-2.355 3.648-32.016-14.006-86.328 31.32-124.282 7.584.285 8.519-1.378 50.072-59.914 52.483-1.382.056-2.142-1.355-1.268-2.354 7.828-8.929 15.73-31.535 4.367-43.586-26.512 23.758-40.884 31.392-98.426 15.838-1.883-.508-1.241-3.535.762-4.298 10.876-4.157 35.515-22.361 58.824-30.385 4.438-1.526 8.862-2.71 13.18-3.4-25.665-2.293-37.235-5.862-53.559-3.4-1.789.27-3.004-1.813-1.895-3.241 21.995-28.332 62.513-36.888 87.512-21.837-15.41-19.094-27.48-34.321-27.48-34.321l28.601-16.246s11.817 26.4 20.414 45.614c21.275-31.435 60.86-34.336 77.585-12.033.992 1.326-.045 3.21-1.702 3.171-13.612-.331-21.107 12.05-21.675 21.466l.197.023"/></g></svg>