<svg xmlns="http://www.w3.org/2000/svg" width="560" height="560"><path fill="#0AC855" d="M445.185 444.684c-79.369 4.167-95.587-86.652-126.726-86.006-13.268.279-23.726 14.151-19.133 30.32 2.525 8.888 9.53 21.923 13.944 30.011 15.57 28.544-7.447 60.845-34.383 63.577-44.76 4.54-63.433-21.426-62.278-48.007 1.3-29.84 26.6-60.331.65-73.305-27.194-13.597-49.301 39.572-75.325 51.439-23.553 10.741-56.248 2.413-67.872-23.741-8.164-18.379-6.68-53.768 29.67-67.27 22.706-8.433 73.305 11.029 75.9-13.623 2.992-28.416-53.155-30.812-70.06-37.626-29.912-12.055-47.567-37.85-33.734-65.522 10.378-20.757 40.915-29.203 64.223-20.11 27.922 10.892 32.404 39.853 46.71 51.897 12.324 10.38 29.19 11.68 40.22 4.543 8.135-5.265 10.843-16.828 7.774-27.39-4.07-14.023-14.875-22.773-25.415-31.346-18.758-15.249-45.24-28.36-29.222-69.983 13.13-34.11 51.642-35.34 51.642-35.34 15.3-1.72 29.002 2.9 40.167 12.875 14.927 13.335 17.834 31.16 15.336 50.176-2.283 17.358-8.426 32.56-11.63 49.759-3.717 19.966 6.954 40.086 27.249 40.869 26.694 1.031 34.698-19.486 37.964-32.492 4.782-19.028 11.058-36.694 28.718-47.82 25.346-15.97 60.552-12.47 76.886 18.222 12.92 24.284 8.772 57.715-11.047 75.97-8.892 8.188-19.584 11.075-31.148 11.156-16.585.117-33.162-.29-48.556 7.471-10.48 5.281-15.047 13.888-15.045 25.423 0 11.242 5.853 18.585 15.336 23.363 17.86 9.003 37.577 10.843 56.871 14.222 27.98 4.9 52.581 14.755 68.375 40.72.142.228.28.458.415.69 18.139 30.741-.831 75.005-36.476 76.878"/></svg>