<?xml version="1.0" encoding="utf-8"?>
<!-- Generator: Adobe Illustrator 16.0.0, SVG Export Plug-In . SVG Version: 6.00 Build 0)  -->
<!DOCTYPE svg PUBLIC "-//W3C//DTD SVG 1.1//EN" "http://www.w3.org/Graphics/SVG/1.1/DTD/svg11.dtd">
<svg version="1.1" id="Layer_1" xmlns="http://www.w3.org/2000/svg" xmlns:xlink="http://www.w3.org/1999/xlink" x="0px" y="0px"
	 width="483.904px" height="409.539px" viewBox="66.712 194.513 483.904 409.539"
	 enable-background="new 66.712 194.513 483.904 409.539" xml:space="preserve">
<g>
	<g>
		<path fill="none" d="M41.209,627.586c0-151.979,0-303.963,0-456.118c177.822,0,355.688,0,533.881,0c0,151.922,0,304.021,0,456.118
			C397.214,627.586,219.233,627.586,41.209,627.586z M461.314,421.571c-110.652,0-220.389,0-329.873,0c0,18.87,0,36.226,0,54.729
			c110.29,0,219.734,0,329.824,0c0,6.858-0.271,12.563,0.058,18.231c0.659,11.344,8.853,15.958,18.112,9.46
			c22.087-15.499,43.824-31.503,65.474-47.611c7.678-5.715,7.621-10.63-0.234-16.467c-21.352-15.862-42.87-31.508-64.563-46.902
			c-9.542-6.773-17.488-2.864-18.691,8.976C460.813,407.959,461.314,414.046,461.314,421.571z M130.996,574.741
			c74.536,0,148.057,0,222.423,0c0,6.464-0.617,11.836,0.192,16.98c0.662,4.21,2.17,10.746,4.826,11.622
			c4.329,1.427,10.994,0.66,14.77-1.943c21.297-14.688,42.098-30.1,62.911-45.474c8.887-6.564,8.992-11.503,0.233-18.001
			c-20.777-15.419-41.647-30.727-62.83-45.579c-3.569-2.503-10.381-4.832-13.03-3.118c-3.676,2.376-5.784,8.447-6.81,13.308
			c-1.126,5.336-0.257,11.091-0.257,17.757c-75.009,0-148.525,0-222.43,0C130.996,538.558,130.996,555.663,130.996,574.741z
			 M130.83,281.392c49.453,0,97.705,0,146.88,0c0,6.838-0.232,12.506,0.049,18.148c0.585,11.758,9.078,16.246,18.887,9.342
			c21.767-15.316,43.232-31.064,64.624-46.902c8.01-5.932,7.995-11.301-0.134-17.342c-21.053-15.65-42.257-31.103-63.625-46.318
			c-10.735-7.647-18.836-3.478-19.734,9.846c-0.378,5.611-0.063,11.27-0.063,18.431c-49.546,0-98.1,0-146.885,0
			C130.83,245.229,130.83,262.325,130.83,281.392z M188.205,379.701c0,6.939-0.606,12.297,0.19,17.438
			c0.649,4.198,2.088,10.688,4.753,11.61c4.316,1.496,11.054,0.904,14.8-1.673c21.612-14.857,42.736-30.435,63.834-46.026
			c8.481-6.265,8.471-11.812-0.159-18.227c-21.054-15.647-42.241-31.123-63.625-46.315c-10.656-7.571-18.899-3.211-19.724,10.07
			c-0.365,5.875-0.062,11.793-0.062,18.885c-20.45,0-38.938,0-57.202,0c0,18.619,0,35.973,0,54.238
			C149.953,379.701,168.131,379.701,188.205,379.701z M66.712,280.18c17.568,0,33.699,0,49.59,0c0-18.261,0-35.579,0-53.046
			c-16.925,0-33.07,0-49.59,0C66.712,245.159,66.712,262.481,66.712,280.18z M66.869,325.488c0,18.556,0,35.876,0,53.543
			c16.862,0,33,0,49.278,0c0-18.274,0-35.852,0-53.543C99.359,325.488,83.5,325.488,66.869,325.488z M116.673,422.747
			c-17.484,0-33.644,0-49.668,0c0,17.835,0,34.781,0,51.779c17.017,0,33.178,0,49.668,0
			C116.673,456.924,116.673,440.208,116.673,422.747z M116.497,520.842c-17.01,0-33.43,0-49.552,0c0,18.244,0,35.566,0,53.021
			c16.944,0,33.084,0,49.552,0C116.497,555.793,116.497,538.471,116.497,520.842z"/>
		<path fill="#FFFFFF" d="M461.314,421.571c0-7.525-0.503-13.612,0.105-19.586c1.203-11.839,9.149-15.749,18.691-8.976
			c21.691,15.396,43.211,31.04,64.563,46.902c7.855,5.837,7.912,10.752,0.234,16.467c-21.648,16.108-43.387,32.112-65.474,47.611
			c-9.261,6.498-17.453,1.884-18.112-9.46c-0.329-5.67-0.058-11.373-0.058-18.231c-110.09,0-219.534,0-329.824,0
			c0-18.503,0-35.857,0-54.729C240.927,421.571,350.662,421.571,461.314,421.571z"/>
		<path fill="#FFFFFF" d="M130.996,574.741c0-19.078,0-36.185,0-54.448c73.904,0,147.42,0,222.43,0
			c0-6.666-0.869-12.421,0.257-17.757c1.024-4.859,3.134-10.932,6.81-13.308c2.649-1.714,9.461,0.615,13.029,3.118
			c21.184,14.854,42.054,30.16,62.831,45.579c8.759,6.498,8.652,11.437-0.233,18.001c-20.813,15.374-41.614,30.786-62.911,45.474
			c-3.774,2.604-10.439,3.369-14.77,1.943c-2.656-0.876-4.165-7.412-4.826-11.622c-0.811-5.146-0.192-10.518-0.192-16.98
			C279.053,574.741,205.532,574.741,130.996,574.741z"/>
		<path fill="#FFFFFF" d="M130.83,281.392c0-19.067,0-36.163,0-54.795c48.785,0,97.339,0,146.885,0
			c0-7.161-0.315-12.82,0.063-18.431c0.898-13.323,8.999-17.493,19.734-9.846c21.368,15.215,42.572,30.668,63.625,46.318
			c8.129,6.041,8.144,11.411,0.133,17.342c-21.391,15.838-42.855,31.586-64.623,46.902c-9.81,6.904-18.302,2.417-18.887-9.342
			c-0.281-5.643-0.049-11.31-0.049-18.148C228.535,281.392,180.283,281.392,130.83,281.392z"/>
		<path fill="#FFFFFF" d="M188.205,379.701c-20.074,0-38.252,0-57.192,0c0-18.265,0-35.619,0-54.238c18.264,0,36.752,0,57.202,0
			c0-7.092-0.303-13.01,0.062-18.885c0.825-13.281,9.067-17.641,19.724-10.07c21.383,15.193,42.57,30.668,63.625,46.315
			c8.63,6.416,8.64,11.962,0.159,18.227c-21.099,15.591-42.222,31.169-63.834,46.026c-3.746,2.577-10.484,3.169-14.8,1.673
			c-2.666-0.923-4.104-7.412-4.753-11.61C187.599,391.999,188.205,386.64,188.205,379.701z"/>
		<path fill="#FFFFFF" d="M66.712,280.18c0-17.699,0-35.021,0-53.046c16.52,0,32.665,0,49.59,0c0,17.468,0,34.786,0,53.046
			C100.411,280.18,84.281,280.18,66.712,280.18z"/>
		<path fill="#FFFFFF" d="M66.869,325.488c16.63,0,32.49,0,49.278,0c0,17.692,0,35.27,0,53.543c-16.278,0-32.416,0-49.278,0
			C66.869,361.364,66.869,344.044,66.869,325.488z"/>
		<path fill="#E5A00D" d="M116.673,422.747c0,17.461,0,34.177,0,51.779c-16.49,0-32.652,0-49.668,0c0-16.998,0-33.944,0-51.779
			C83.029,422.747,99.188,422.747,116.673,422.747z"/>
		<path fill="#FFFFFF" d="M116.497,520.842c0,17.629,0,34.951,0,53.021c-16.468,0-32.608,0-49.552,0c0-17.455,0-34.777,0-53.021
			C83.067,520.842,99.487,520.842,116.497,520.842z"/>
	</g>
</g>
</svg>
