<?xml version="1.0" encoding="utf-8"?>
<!-- Generator: Adobe Illustrator 16.0.0, SVG Export Plug-In . SVG Version: 6.00 Build 0)  -->
<!DOCTYPE svg PUBLIC "-//W3C//DTD SVG 1.1//EN" "http://www.w3.org/Graphics/SVG/1.1/DTD/svg11.dtd">
<svg version="1.1" id="Layer_1" xmlns="http://www.w3.org/2000/svg" xmlns:xlink="http://www.w3.org/1999/xlink" x="0px" y="0px"
	 width="32px" height="32px" viewBox="0 0 32 32" enable-background="new 0 0 32 32" xml:space="preserve">
<title>artist</title>
<path fill="#FFFFFF" d="M29.369,0.72H10.271C8.864,0.722,7.726,1.861,7.724,3.267v18.534c-0.771-0.459-1.649-0.703-2.546-0.709
	c-2.813,0-5.094,2.281-5.094,5.094s2.281,5.094,5.094,5.094s5.093-2.281,5.093-5.094V10.907h19.099v10.894
	c-0.771-0.459-1.649-0.703-2.546-0.709c-2.813,0-5.094,2.281-5.094,5.094s2.281,5.094,5.094,5.094s5.093-2.281,5.093-5.094V3.267
	C31.914,1.861,30.775,0.722,29.369,0.72z M10.271,3.267h19.099V8.36H10.271V3.267z"/>
</svg>
