<!-- Generated by IcoMoon.io -->
<svg version="1.1" xmlns="http://www.w3.org/2000/svg" width="32" height="32" viewBox="0 0 32 32">
<title>artist</title>
<path fill="#fff" d="M9.201 24.681c0-6.699 0-13.358 0-20.035 7.594-1.505 15.157-3.004 22.768-4.513 0 0.172 0 0.319 0 0.465 0 7.067-0.026 14.135 0.021 21.202 0.010 1.498-0.59 2.57-1.716 3.423-1.999 1.512-4.26 2.145-6.751 1.88-0.504-0.054-1.020-0.205-1.481-0.418-1.502-0.695-1.856-2.122-0.908-3.48 0.826-1.184 1.99-1.924 3.302-2.433 1.362-0.528 2.774-0.843 4.252-0.719 0.324 0.027 0.646 0.084 0.994 0.13 0-4.345 0-8.679 0-13.050-6.062 1.204-12.099 2.404-18.16 3.608 0 0.196 0 0.345 0 0.495 0 5.174-0.006 10.349 0.004 15.523 0.003 1.409-0.802 2.302-1.854 3.056-0.889 0.637-1.859 1.114-2.906 1.426-1.524 0.453-3.067 0.627-4.619 0.169-0.952-0.281-1.789-0.736-2.010-1.83-0.136-0.673 0.098-1.269 0.459-1.822 0.772-1.183 1.947-1.853 3.193-2.388 1.662-0.714 3.394-1.043 5.207-0.698 0.048 0.009 0.099 0.005 0.206 0.010z"></path>
</svg>
