<?xml version="1.0" encoding="utf-8"?>
<!-- Generator: Adobe Illustrator 16.0.0, SVG Export Plug-In . SVG Version: 6.00 Build 0)  -->
<!DOCTYPE svg PUBLIC "-//W3C//DTD SVG 1.1//EN" "http://www.w3.org/Graphics/SVG/1.1/DTD/svg11.dtd">
<svg version="1.1" xmlns="http://www.w3.org/2000/svg" xmlns:xlink="http://www.w3.org/1999/xlink" x="0px" y="0px" width="32px"
	 height="32px" viewBox="0 0 32 32" enable-background="new 0 0 32 32" xml:space="preserve">
<g id="Layer_4">
</g>
<g id="Layer_2">
	<g>
		<polygon fill="none" points="12.797,14.875 10.244,22.066 19.984,22.061 		"/>
		<path fill="none" d="M13.546,12.771l7.616,7.616l-3.58-10.082c-0.48,0.233-1.012,0.376-1.583,0.376
			c-0.568,0-1.1-0.142-1.578-0.374L13.546,12.771z"/>
		<path fill="#FFFFFF" d="M19.178,8.775c0.283-0.517,0.457-1.1,0.457-1.729c0-2.008-1.629-3.635-3.635-3.635
			c-2.007,0-3.635,1.627-3.635,3.635c0,0.632,0.175,1.216,0.458,1.734l-6.51,18.333c-0.214,0.6,0.041,1.234,0.565,1.424
			c0.523,0.186,1.123-0.15,1.333-0.746l1.317-3.709l12.944-0.006l1.32,3.715c0.211,0.596,0.809,0.932,1.332,0.746
			c0.525-0.189,0.779-0.824,0.566-1.424L19.178,8.775z M17.582,10.305l3.58,10.082l-7.616-7.616l0.875-2.463
			c0.479,0.232,1.01,0.374,1.578,0.374C16.57,10.682,17.102,10.539,17.582,10.305z M12.797,14.875l7.187,7.186l-9.741,0.006
			L12.797,14.875z"/>
		<g>
			<path fill="#FFFFFF" d="M5.38,2.902C4.994,2.503,4.456,2.4,4.21,2.69C1.59,5.771,1.588,10.317,4.208,13.4
				c0.244,0.289,0.785,0.185,1.173-0.215c0.39-0.398,0.541-0.88,0.365-1.088C3.764,9.765,3.765,6.324,5.748,3.994
				C5.922,3.786,5.769,3.303,5.38,2.902z"/>
		</g>
		<g>
			<path fill="#FFFFFF" d="M26.617,2.905c-0.389,0.399-0.541,0.879-0.363,1.086c1.982,2.333,1.98,5.773-0.002,8.103
				c-0.176,0.206-0.023,0.69,0.365,1.09c0.385,0.401,0.926,0.504,1.17,0.214c2.621-3.08,2.625-7.627,0.004-10.711
				C27.543,2.398,27.004,2.505,26.617,2.905z"/>
		</g>
		<g>
			<path fill="#FFFFFF" d="M9.867,11.916c0.389-0.4,0.59-0.833,0.468-0.976c-1.388-1.633-1.387-4.042,0.002-5.673
				c0.121-0.144-0.082-0.578-0.471-0.978C9.479,3.89,8.989,3.738,8.798,3.963c-2.025,2.381-2.026,5.897-0.001,8.28
				C8.988,12.469,9.479,12.315,9.867,11.916z"/>
		</g>
		<g>
			<path fill="#FFFFFF" d="M22.207,11.857c0.387,0.401,0.875,0.552,1.066,0.327c2.027-2.382,2.027-5.897,0.002-8.281
				c-0.191-0.225-0.682-0.071-1.07,0.33c-0.387,0.399-0.59,0.831-0.467,0.975c1.387,1.633,1.387,4.041-0.002,5.672
				C21.615,11.022,21.818,11.456,22.207,11.857z"/>
		</g>
	</g>
</g>
</svg>
