<!-- Generated by IcoMoon.io -->
<svg version="1.1" xmlns="http://www.w3.org/2000/svg" width="32" height="32" viewBox="0 0 32 32">
<title>live</title>
<path fill="#fff" d="M9.636 10.115c-0.829 0.544-1.243 0.816-2.072 1.361-2.331-3.547-2.331-6.195 0-9.749 0.829 0.546 1.244 0.819 2.072 1.361-1.68 2.557-1.68 4.464 0 7.027z"></path>
<path fill="#fff" d="M4.374 11.662c-0.828 0.542-1.243 0.815-2.072 1.359-3.069-4.676-3.069-8.159 0-12.838 0.829 0.546 1.244 0.817 2.072 1.362-2.418 3.684-2.418 6.426 0 10.117z"></path>
<path fill="#fff" d="M22.365 10.115c0.826 0.544 1.242 0.816 2.070 1.361 2.334-3.547 2.334-6.195 0-9.749-0.828 0.546-1.244 0.819-2.070 1.361 1.677 2.557 1.677 4.464 0 7.027z"></path>
<path fill="#fff" d="M27.627 11.662c0.827 0.542 1.243 0.815 2.070 1.359 3.070-4.676 3.070-8.159 0-12.838-0.827 0.546-1.243 0.817-2.070 1.362 2.419 3.684 2.419 6.426 0 10.117z"></path>
<path fill="#fff" d="M25.211 31.982l2.611-0.95-8.172-22.45c0.32-0.589 0.502-1.263 0.502-1.979 0-2.293-1.859-4.152-4.152-4.152s-4.151 1.858-4.151 4.152c0 0.672 0.16 1.305 0.443 1.868l-8.212 22.561 2.612 0.95 1.952-5.362h14.616l1.951 5.362zM17.396 10.513l3.945 10.834-7.903-7.9 1.080-2.966c0.46 0.176 0.96 0.272 1.481 0.272 0.49 0.001 0.961-0.084 1.397-0.24zM12.39 16.329l7.51 7.512h-10.245l2.735-7.512z"></path>
</svg>
