<?xml version="1.0" encoding="utf-8"?>
<!-- Generator: Adobe Illustrator 16.0.0, SVG Export Plug-In . SVG Version: 6.00 Build 0)  -->
<!DOCTYPE svg PUBLIC "-//W3C//DTD SVG 1.1//EN" "http://www.w3.org/Graphics/SVG/1.1/DTD/svg11.dtd">
<svg version="1.1" xmlns="http://www.w3.org/2000/svg" xmlns:xlink="http://www.w3.org/1999/xlink" x="0px" y="0px" width="32px"
	 height="32px" viewBox="0 0 32 32" enable-background="new 0 0 32 32" xml:space="preserve">
<g id="Layer_4">
</g>
<g id="Layer_2">
	<g>
		<polygon fill="none" points="12.315,14.706 9.377,22.98 20.585,22.974 		"/>
		<path fill="none" d="M13.177,12.285l8.762,8.763l-4.119-11.6C17.269,9.716,16.657,9.881,16,9.881c-0.654,0-1.265-0.163-1.816-0.43
			L13.177,12.285z"/>
		<path fill="#FFFFFF" d="M19.657,7.688c0.326-0.595,0.525-1.265,0.525-1.989c0-2.311-1.875-4.183-4.183-4.183
			c-2.309,0-4.182,1.872-4.182,4.183c0,0.727,0.201,1.399,0.526,1.995l-7.49,21.095c-0.246,0.69,0.047,1.42,0.65,1.638
			c0.603,0.214,1.292-0.173,1.534-0.857L8.554,25.3l14.893-0.007l1.519,4.275c0.244,0.685,0.932,1.071,1.534,0.857
			c0.604-0.218,0.896-0.947,0.651-1.638L19.657,7.688z M17.82,9.448l4.119,11.6l-8.762-8.763l1.006-2.834
			c0.551,0.267,1.162,0.43,1.816,0.43C16.657,9.881,17.269,9.716,17.82,9.448z M12.315,14.706l8.27,8.268L9.377,22.98L12.315,14.706
			z"/>
		<g>
			<path fill="#FFFFFF" d="M3.781,0.931C3.336,0.472,2.717,0.353,2.435,0.686C-0.58,4.23-0.582,9.462,2.432,13.009
				c0.281,0.333,0.904,0.213,1.35-0.247c0.448-0.458,0.623-1.013,0.42-1.253C1.921,8.825,1.923,4.867,4.204,2.186
				C4.405,1.946,4.228,1.392,3.781,0.931z"/>
		</g>
		<g>
			<path fill="#FFFFFF" d="M28.217,0.933c-0.447,0.461-0.621,1.012-0.417,1.25c2.28,2.685,2.278,6.643-0.003,9.323
				c-0.203,0.237-0.027,0.794,0.42,1.254c0.443,0.462,1.065,0.58,1.348,0.247c3.016-3.544,3.018-8.777,0.003-12.325
				C29.283,0.351,28.662,0.473,28.217,0.933z"/>
		</g>
		<g>
			<path fill="#FFFFFF" d="M8.942,11.3c0.449-0.46,0.68-0.958,0.54-1.122c-1.597-1.879-1.597-4.65,0-6.528
				c0.139-0.165-0.094-0.665-0.541-1.126C8.497,2.065,7.933,1.891,7.714,2.15c-2.33,2.74-2.332,6.785-0.001,9.527
				C7.932,11.938,8.497,11.76,8.942,11.3z"/>
		</g>
		<g>
			<path fill="#FFFFFF" d="M23.143,11.233c0.446,0.462,1.008,0.637,1.229,0.376c2.331-2.741,2.332-6.786,0.001-9.528
				c-0.222-0.257-0.785-0.08-1.231,0.38c-0.445,0.458-0.678,0.957-0.536,1.12c1.597,1.879,1.595,4.65-0.002,6.527
				C22.462,10.272,22.695,10.772,23.143,11.233z"/>
		</g>
	</g>
</g>
</svg>
