<?xml version="1.0" encoding="utf-8"?>
<!-- Generator: Adobe Illustrator 16.0.0, SVG Export Plug-In . SVG Version: 6.00 Build 0)  -->
<!DOCTYPE svg PUBLIC "-//W3C//DTD SVG 1.1//EN" "http://www.w3.org/Graphics/SVG/1.1/DTD/svg11.dtd">
<svg version="1.1" id="Layer_2" xmlns="http://www.w3.org/2000/svg" xmlns:xlink="http://www.w3.org/1999/xlink" x="0px" y="0px"
	 width="32px" height="32px" viewBox="0 0 32 32" enable-background="new 0 0 32 32" xml:space="preserve">
<g>
	<polygon fill="none" points="12.252,15.364 9.287,23.717 20.6,23.709 	"/>
	<path fill="none" d="M13.122,12.92l8.846,8.846l-4.158-11.71c-0.558,0.271-1.175,0.437-1.839,0.437
		c-0.66,0-1.276-0.164-1.833-0.434L13.122,12.92z"/>
	<path fill="#FFFFFF" d="M19.663,8.28c0.33-0.601,0.529-1.277,0.529-2.008c0-2.333-1.892-4.223-4.222-4.223s-4.222,1.89-4.222,4.223
		c0,0.733,0.203,1.412,0.532,2.013l-7.56,21.292c-0.248,0.697,0.047,1.434,0.656,1.654c0.608,0.215,1.305-0.177,1.549-0.865
		l1.53-4.309l15.034-0.007l1.532,4.315c0.247,0.688,0.941,1.08,1.549,0.865c0.61-0.221,0.904-0.957,0.658-1.654L19.663,8.28z
		 M17.81,10.057l4.158,11.71l-8.846-8.846l1.016-2.861c0.557,0.27,1.173,0.434,1.833,0.434
		C16.635,10.493,17.252,10.328,17.81,10.057z M12.252,15.364l8.347,8.345L9.287,23.717L12.252,15.364z"/>
	<g>
		<path fill="#FFFFFF" d="M3.638,1.458C3.189,0.996,2.563,0.875,2.279,1.211c-3.043,3.578-3.045,8.859-0.002,12.44
			c0.284,0.335,0.913,0.214,1.362-0.25c0.452-0.462,0.628-1.022,0.424-1.264C1.76,9.428,1.762,5.433,4.064,2.726
			C4.267,2.484,4.089,1.924,3.638,1.458z"/>
	</g>
	<g>
		<path fill="#FFFFFF" d="M28.303,1.46c-0.45,0.464-0.626,1.021-0.421,1.261c2.303,2.71,2.3,6.707-0.003,9.412
			c-0.205,0.24-0.025,0.802,0.424,1.266c0.448,0.466,1.075,0.586,1.361,0.25c3.044-3.578,3.046-8.86,0.003-12.441
			C29.38,0.873,28.753,0.996,28.303,1.46z"/>
	</g>
	<g>
		<path fill="#FFFFFF" d="M8.847,11.926c0.453-0.465,0.687-0.966,0.546-1.132C7.78,8.897,7.781,6.1,9.392,4.205
			c0.141-0.167-0.094-0.672-0.545-1.138c-0.448-0.463-1.019-0.639-1.24-0.376c-2.351,2.766-2.353,6.848,0,9.616
			C7.826,12.569,8.398,12.39,8.847,11.926z"/>
	</g>
	<g>
		<path fill="#FFFFFF" d="M23.182,11.858c0.45,0.466,1.017,0.642,1.24,0.379c2.353-2.766,2.354-6.849,0.001-9.617
			C24.199,2.362,23.63,2.54,23.18,3.004c-0.449,0.464-0.685,0.967-0.542,1.132c1.611,1.896,1.61,4.692-0.001,6.587
			C22.495,10.888,22.73,11.393,23.182,11.858z"/>
	</g>
</g>
</svg>
