<!-- Generated by IcoMoon.io -->
<svg version="1.1" xmlns="http://www.w3.org/2000/svg" width="32" height="32" viewBox="0 0 32 32">
<title>movie</title>
<path fill="#fff" d="M0 1.416c10.695 0 21.315 0 32 0 0 9.719 0 19.417 0 29.168-10.635 0-21.293 0-32 0 0-9.699 0-19.399 0-29.168zM9.202 15.129c4.535 0 9.065 0 13.609 0 0-3.798 0-7.579 0-11.355-4.563 0-9.075 0-13.609 0 0 3.801 0 7.551 0 11.355zM9.215 28.909c4.581 0 9.093 0 13.61 0 0-3.818 0-7.585 0-11.382-4.549 0-9.062 0-13.61 0 0 3.803 0 7.57 0 11.382zM6.813 5.983c0-0.753 0-1.467 0-2.209-1.138 0-2.235 0-3.33 0 0 0.766 0 1.48 0 2.209 1.131 0 2.21 0 3.33 0zM25.231 3.754c0 0.783 0 1.494 0 2.219 1.141 0 2.235 0 3.33 0 0-0.763 0-1.476 0-2.219-1.12 0-2.198 0-3.33 0zM25.233 12.938c0 0.777 0 1.492 0 2.19 1.149 0 2.248 0 3.335 0 0-0.754 0-1.452 0-2.19-1.116 0-2.197 0-3.335 0zM25.227 22.074c0 0.783 0 1.496 0 2.218 1.139 0 2.235 0 3.335 0 0-0.758 0-1.471 0-2.218-1.119 0-2.196 0-3.335 0zM3.472 26.689c0 0.768 0 1.481 0 2.221 1.133 0 2.226 0 3.34 0 0-0.763 0-1.475 0-2.221-1.119 0-2.197 0-3.34 0zM28.579 26.711c-1.112 0-2.225 0-3.353 0 0 0.749 0 1.462 0 2.202 1.137 0 2.233 0 3.353 0 0-0.748 0-1.447 0-2.202zM6.817 15.155c0-0.774 0-1.468 0-2.21-1.133 0-2.229 0-3.338 0 0 0.761 0 1.473 0 2.21 1.127 0 2.207 0 3.338 0zM3.463 19.73c1.165 0 2.242 0 3.346 0 0-0.759 0-1.469 0-2.189-1.143 0-2.239 0-3.346 0 0 0.748 0 1.446 0 2.189zM28.559 19.733c0-0.764 0-1.479 0-2.188-1.144 0-2.241 0-3.34 0 0 0.752 0 1.448 0 2.188 1.114 0 2.195 0 3.34 0zM6.791 24.304c0-0.798 0-1.511 0-2.215-1.145 0-2.225 0-3.312 0 0 0.766 0 1.481 0 2.215 1.129 0 2.211 0 3.312 0zM3.489 8.378c0 0.771 0 1.464 0 2.145 1.138 0 2.219 0 3.319 0 0-0.74 0-1.431 0-2.145-1.129 0-2.211 0-3.319 0zM28.554 10.538c0-0.775 0-1.464 0-2.137-1.146 0-2.242 0-3.319 0 0 0.747 0 1.438 0 2.137 1.131 0 2.21 0 3.319 0z"></path>
</svg>
