<!-- Generated by IcoMoon.io -->
<svg version="1.1" xmlns="http://www.w3.org/2000/svg" width="32" height="32" viewBox="0 0 32 32">
<title>photo</title>
<path fill="#fff" d="M25.208 2.266c0 1.514 0 2.976 0 4.513 2.281 0 4.505 0 6.792 0 0 7.681 0 15.287 0 22.955-10.643 0-21.3 0-32 0 0-7.626 0-15.236 0-22.913 2.258 0 4.486 0 6.792 0 0-1.546 0-3.029 0-4.555 6.152 0 12.226 0 18.415 0zM16.008 9.209c-5.026-0.004-9.12 4.079-9.123 9.099-0.004 4.961 4.099 9.069 9.074 9.085 5.022 0.016 9.124-4.047 9.159-9.070 0.035-4.985-4.087-9.109-9.109-9.114z"></path>
<path fill="#fff" d="M20.601 18.292c0.003 2.551-2.070 4.626-4.61 4.613-2.558-0.013-4.595-2.069-4.591-4.634 0.003-2.524 2.038-4.557 4.577-4.572 2.562-0.015 4.621 2.030 4.624 4.593z"></path>
</svg>
