<?xml version="1.0" encoding="utf-8"?>
<!-- Generator: Adobe Illustrator 16.0.0, SVG Export Plug-In . SVG Version: 6.00 Build 0)  -->
<!DOCTYPE svg PUBLIC "-//W3C//DTD SVG 1.1//EN" "http://www.w3.org/Graphics/SVG/1.1/DTD/svg11.dtd">
<svg version="1.1" xmlns="http://www.w3.org/2000/svg" xmlns:xlink="http://www.w3.org/1999/xlink" x="0px" y="0px" width="32px"
	 height="32px" viewBox="0 0 32 32" enable-background="new 0 0 32 32" xml:space="preserve">
<g id="Layer_2">
</g>
<g id="Layer_3">
	<g>
		<path fill="#FFFFFF" d="M30.807,8.975c-0.587-0.596-1.388-0.933-2.224-0.934h-5.158l-0.855-2.599
			c-0.207-0.633-0.607-1.184-1.145-1.577c-0.536-0.389-1.18-0.6-1.84-0.6h-7.171c-0.661,0-1.306,0.211-1.84,0.602
			C10.037,4.259,9.637,4.811,9.43,5.442L8.573,8.041H3.416C2.579,8.042,1.779,8.379,1.192,8.975c-0.591,0.6-0.923,1.408-0.923,2.25
			V25.55c0,0.843,0.332,1.65,0.923,2.25c0.587,0.596,1.387,0.932,2.224,0.934h25.167c0.836-0.002,1.637-0.338,2.224-0.934
			c0.591-0.6,0.923-1.407,0.923-2.25V11.225C31.729,10.383,31.397,9.574,30.807,8.975z M29.482,25.55
			c0,0.258-0.103,0.497-0.273,0.672c-0.165,0.168-0.391,0.265-0.627,0.266H3.418c-0.237-0.001-0.462-0.098-0.628-0.266
			c-0.176-0.181-0.274-0.422-0.273-0.674v-14.32c0-0.258,0.103-0.499,0.273-0.673c0.172-0.173,0.396-0.266,0.627-0.267h6.782
			l1.365-4.144c0.063-0.189,0.181-0.351,0.334-0.463c0.152-0.11,0.332-0.169,0.514-0.169h7.175c0.182,0,0.361,0.059,0.514,0.169
			c0.153,0.112,0.271,0.273,0.335,0.463l1.363,4.144h6.783c0.23,0,0.456,0.094,0.627,0.267c0.171,0.174,0.272,0.413,0.273,0.671
			V25.55z"/>
		<path fill="#FFFFFF" d="M16,10.7c-3.764,0-6.813,3.049-6.813,6.812c0,3.765,3.05,6.815,6.813,6.815
			c3.763,0,6.813-3.051,6.813-6.815C22.813,13.749,19.763,10.7,16,10.7z M15.999,22.082c-2.523,0-4.568-2.045-4.568-4.568
			s2.045-4.569,4.568-4.569c2.524,0,4.569,2.046,4.569,4.569S18.523,22.082,15.999,22.082z"/>
	</g>
</g>
</svg>
