<!-- Generated by IcoMoon.io -->
<svg version="1.1" xmlns="http://www.w3.org/2000/svg" width="32" height="32" viewBox="0 0 32 32">
<title>show</title>
<path fill="#fff" d="M0 26.565c0-8.38 0-16.706 0-25.089 10.661 0 21.307 0 32 0 0 8.343 0 16.686 0 25.089-10.637 0-21.283 0-32 0zM3.514 4.937c0 5.355 0 10.634 0 15.901 8.375 0 16.691 0 24.994 0 0-5.331 0-10.612 0-15.901-8.356 0-16.656 0-24.994 0z"></path>
<path fill="#fff" d="M6.874 30.524c0-0.553 0-1.056 0-1.602 6.084 0 12.136 0 18.25 0 0 0.509 0 1.029 0 1.602-6.050 0-12.12 0-18.25 0z"></path>
</svg>
