<?xml version="1.0" encoding="utf-8"?>
<!-- Generator: Adobe Illustrator 16.0.0, SVG Export Plug-In . SVG Version: 6.00 Build 0)  -->
<!DOCTYPE svg PUBLIC "-//W3C//DTD SVG 1.1//EN" "http://www.w3.org/Graphics/SVG/1.1/DTD/svg11.dtd">
<svg version="1.1" id="Layer_1" xmlns="http://www.w3.org/2000/svg" xmlns:xlink="http://www.w3.org/1999/xlink" x="0px" y="0px"
	 width="32px" height="32px" viewBox="0 0 32 32" enable-background="new 0 0 32 32" xml:space="preserve">
<title>artist</title>
<path fill="#FFFFFF" d="M21.619,27.237H2.515c-1.241,0-2.247-1.006-2.247-2.247V7.011c0-1.242,1.006-2.248,2.247-2.248h19.104
	c1.24,0,2.247,1.006,2.247,2.248v4.562l6.091-4.349c0.506-0.36,1.207-0.242,1.568,0.263c0.134,0.19,0.206,0.415,0.207,0.647v15.732
	c-0.002,0.621-0.509,1.123-1.128,1.119c-0.232-0.001-0.458-0.075-0.647-0.209l-6.091-4.349v4.563
	C23.866,26.231,22.859,27.237,21.619,27.237z M2.515,7.011V24.99h19.104v-6.742c0.003-0.621,0.509-1.122,1.129-1.118
	c0.231,0,0.457,0.074,0.646,0.208l6.091,4.349V10.314l-6.091,4.349c-0.506,0.36-1.207,0.242-1.568-0.263
	c-0.133-0.189-0.206-0.415-0.207-0.647V7.011H2.515z"/>
</svg>
