<?xml version="1.0" encoding="utf-8"?>
<!-- Generator: Adobe Illustrator 16.0.0, SVG Export Plug-In . SVG Version: 6.00 Build 0)  -->
<!DOCTYPE svg PUBLIC "-//W3C//DTD SVG 1.1//EN" "http://www.w3.org/Graphics/SVG/1.1/DTD/svg11.dtd">
<svg version="1.1" id="Layer_1" xmlns="http://www.w3.org/2000/svg" xmlns:xlink="http://www.w3.org/1999/xlink" x="0px" y="0px"
	 width="120px" height="120px" viewBox="0 0 120 120" enable-background="new 0 0 120 120" xml:space="preserve">
<g>
	<path fill="#BEBEBE" d="M31.161,105.119c4.747-3.413,10.392-5.561,16.939-6.444c2.645,1.983,6.611,2.976,11.9,2.976
		c5.288,0,9.255-0.992,11.9-2.976c6.546,0.884,12.192,3.031,16.938,6.444c-8.325,5.336-18.223,8.431-28.838,8.431
		C49.385,113.55,39.487,110.455,31.161,105.119z"/>
	<path fill="#D6D6D6" d="M48.1,98.675l2.737-8.553C42.241,84.96,36.2,72.758,36.2,58.526c0-7.478,1.669-14.397,4.498-20.029
		c3.436,1.059,7.504,1.669,11.864,1.669c10.86,0,19.907-3.795,21.903-8.822c5.676,6.256,9.334,16.104,9.334,27.182
		c0,14.232-6.041,26.434-14.637,31.596l2.737,8.553c-2.646,1.983-6.612,2.976-11.9,2.976c-5.248,0-9.194-0.977-11.838-2.929
		L48.1,98.675z"/>
	<path fill="#A6A6A6" d="M38.763,73.994C33.496,68.09,30.25,60,30.25,51.075C30.25,33.002,43.57,18.35,60,18.35
		c16.431,0,29.75,14.65,29.75,32.724c0,8.925-3.247,17.016-8.514,22.92c1.64-4.647,2.563-9.901,2.563-15.468
		c0-11.078-3.658-20.925-9.334-27.182c-1.996,5.027-11.043,8.822-21.903,8.822c-4.36,0-8.428-0.611-11.864-1.669
		C37.868,44.128,36.2,51.048,36.2,58.526C36.2,64.093,37.124,69.348,38.763,73.994z"/>
	<path fill="#D6D6D6" d="M60,113.55c29.575,0,53.55-23.974,53.55-53.55c0-29.575-23.975-53.55-53.55-53.55
		C30.425,6.45,6.45,30.425,6.45,60C6.45,89.576,30.425,113.55,60,113.55z M60,119.5C27.138,119.5,0.5,92.86,0.5,60
		S27.138,0.5,60,0.5c32.86,0,59.5,26.64,59.5,59.499C119.5,92.86,92.86,119.5,60,119.5z"/>
</g>
</svg>
