<?xml version="1.0" encoding="utf-8"?>
<!-- Generator: Adobe Illustrator 16.0.0, SVG Export Plug-In . SVG Version: 6.00 Build 0)  -->
<!DOCTYPE svg PUBLIC "-//W3C//DTD SVG 1.1//EN" "http://www.w3.org/Graphics/SVG/1.1/DTD/svg11.dtd">
<svg version="1.1" id="Layer_1" xmlns="http://www.w3.org/2000/svg" xmlns:xlink="http://www.w3.org/1999/xlink" x="0px" y="0px"
	 width="298.961px" height="300px" viewBox="0 0 298.961 300" enable-background="new 0 0 298.961 300" xml:space="preserve">
<g>
	
		<image overflow="visible" opacity="0.2" width="289" height="224" xlink:href="93124B54.png"  transform="matrix(1 0 0 1 4.9805 70.5)">
	</image>
	<g>
		<path fill="#FFFFFF" d="M241.811,215.25c-10.935,0-20.375,6.382-24.809,15.623l-39.383-5.715
			c-0.139-15.068-12.393-27.242-27.493-27.242c-5.385,0-10.405,1.554-14.646,4.229l-55.963-63.414
			c3.224-4.505,5.127-10.02,5.127-15.981c0-15.188-12.312-27.5-27.5-27.5s-27.5,12.312-27.5,27.5s12.312,27.5,27.5,27.5
			c4.677,0,9.079-1.171,12.934-3.23l56.56,64.089c-2.544,4.168-4.012,9.064-4.012,14.307c0,15.188,12.312,27.5,27.5,27.5
			c10.872,0,20.269-6.311,24.731-15.467l39.463,5.727c0.229,14.99,12.443,27.074,27.49,27.074c15.188,0,27.5-12.313,27.5-27.5
			S256.998,215.25,241.811,215.25z"/>
	</g>
</g>
<g>
	
		<image overflow="visible" opacity="0.2" width="289" height="289" xlink:href="93124B55.png"  transform="matrix(1 0 0 1 4.9805 5.5)">
	</image>
	<g>
		<path fill="#E5A00D" d="M241.811,29.75c-15.188,0-27.5,12.312-27.5,27.5c0,7.48,2.99,14.258,7.836,19.216l-60.943,86.113
			c-3.389-1.493-7.135-2.329-11.076-2.329c-15.188,0-27.5,12.313-27.5,27.5c0,2.704,0.397,5.314,1.125,7.783l-46.306,28.668
			c-5.028-5.5-12.261-8.951-20.3-8.951c-15.188,0-27.5,12.313-27.5,27.5s12.312,27.5,27.5,27.5s27.5-12.313,27.5-27.5
			c0-2.627-0.376-5.165-1.064-7.57l46.396-28.724c5.022,5.407,12.189,8.794,20.15,8.794c15.188,0,27.5-12.313,27.5-27.5
			c0-6.701-2.399-12.84-6.382-17.611l61.515-86.92c2.837,0.988,5.88,1.532,9.052,1.532c15.188,0,27.5-12.312,27.5-27.5
			S256.998,29.75,241.811,29.75z"/>
	</g>
</g>
</svg>
