<?xml version="1.0" encoding="utf-8"?>
<!-- Generator: Adobe Illustrator 16.0.0, SVG Export Plug-In . SVG Version: 6.00 Build 0)  -->
<!DOCTYPE svg PUBLIC "-//W3C//DTD SVG 1.1//EN" "http://www.w3.org/Graphics/SVG/1.1/DTD/svg11.dtd">
<svg version="1.1" xmlns="http://www.w3.org/2000/svg" xmlns:xlink="http://www.w3.org/1999/xlink" x="0px" y="0px" width="900px"
	 height="300px" viewBox="-41.335 -35.197 900 300" enable-background="new -41.335 -35.197 900 300" xml:space="preserve">
<g id="Layer_1">
	<g id="Logo">
		
			<image overflow="visible" opacity="0.15" enable-background="new    " width="259" height="193" xlink:href="13AD46AC.png"  transform="matrix(0.9547 0 0 0.9547 -17.8804 54.1814)">
		</image>
		
			<image overflow="visible" opacity="0.15" enable-background="new    " width="259" height="258" xlink:href="13AD46AD.png"  transform="matrix(0.9547 0 0 0.9584 -17.8804 -8.8303)">
		</image>
	</g>
</g>
<g id="Layer_2">
	<g>
		<path fill="none" d="M349.343,165.396c7.493,0,14.836,0,22.407,0c-3.766-12.354-7.495-24.585-11.333-37.175
			C356.665,140.819,353.017,153.064,349.343,165.396z"/>
		<path fill="#FFFFFF" d="M103.83,174.477c-7.6,0-14.441-3.232-19.236-8.394l-4.595,2.845l1.406,1.593
			c-2.429,3.979-3.83,8.656-3.83,13.66c0,14.5,11.755,26.255,26.255,26.255c10.38,0,19.351-6.024,23.612-14.767l37.675,5.471
			c0.22,14.31,11.881,25.845,26.244,25.845c14.5,0,26.254-11.755,26.254-26.254c0-14.5-11.754-26.254-26.254-26.254
			c-10.438,0-19.453,6.092-23.685,14.915l-37.598-5.46c-0.064-6.86-2.759-13.089-7.125-17.73
			C118.165,171.293,111.371,174.477,103.83,174.477z"/>
		<path fill="#FFFFFF" d="M77.574,148.22c0-0.054,0.004-0.107,0.004-0.161l-41.163-46.637c3.078-4.301,4.895-9.564,4.895-15.257
			c0-14.5-11.754-26.254-26.254-26.254c-14.5,0-26.254,11.754-26.254,26.254S0.556,112.42,15.056,112.42
			c4.464,0,8.666-1.117,12.347-3.083l44.545,50.47l6.701-4.148C77.953,153.299,77.574,150.804,77.574,148.22z"/>
		<path fill="#E5A00D" d="M191.361,49.885c14.5,0,26.254-11.754,26.254-26.254c0-14.499-11.754-26.254-26.254-26.254
			s-26.254,11.755-26.254,26.254c0,7.145,2.858,13.619,7.488,18.353l-58.186,82.207c-3.237-1.427-6.814-2.226-10.58-2.226
			c-14.446,0-26.165,11.669-26.252,26.095c0,0.054-0.004,0.107-0.004,0.161c0,2.584,0.379,5.078,1.075,7.438l-6.701,4.148
			l-37.506,23.223c-4.801-5.255-11.708-8.552-19.386-8.552c-14.5,0-26.254,11.754-26.254,26.254
			c0,14.499,11.754,26.254,26.254,26.254c14.5,0,26.254-11.755,26.254-26.254c0-2.506-0.358-4.926-1.014-7.221l39.703-24.582
			l4.595-2.845c4.794,5.161,11.636,8.394,19.236,8.394c7.542,0,14.335-3.185,19.124-8.275c4.419-4.699,7.132-11.021,7.132-17.981
			c0-6.396-2.29-12.257-6.092-16.812l58.736-82.983C185.434,49.367,188.336,49.885,191.361,49.885z"/>
		<path fill="#FFFFFF" d="M384.772,151.627c-4.399-12.521-8.814-25.034-13.223-37.553c-7.552,0-15.106,0-22.657,0.002
			c-0.14,0.612-0.221,1.246-0.428,1.836c-8.502,24.335-17.017,48.666-25.526,72.996c-1.451,4.146-2.887,8.298-4.363,12.536
			c6.686,0,13.198,0,19.792,0c2.095-6.874,4.172-13.694,6.248-20.514c10.593,0,21.056,0,31.594,0
			c2.102,6.893,4.177,13.707,6.245,20.489c6.66,0,13.147,0,19.773,0c-0.229-0.676-0.409-1.213-0.597-1.747
			C396.014,183.656,390.4,167.638,384.772,151.627z M349.343,165.396c3.674-12.332,7.322-24.577,11.074-37.175
			c3.837,12.59,7.567,24.82,11.333,37.175C364.179,165.396,356.836,165.396,349.343,165.396z"/>
		<path fill="#FFFFFF" d="M319.072,114.459c-21.916,0-43.668,0-65.421,0c0,5.112,0,10.227,0,15.341c7.836,0,15.672,0,23.691,0
			c0,24.046,0,47.786,0,71.621c6.164,0,12.144,0,18.361,0c0-23.902,0-47.698,0-71.682c7.948,0,15.66,0,23.369,0
			C319.072,124.549,319.072,119.549,319.072,114.459z"/>
		<path fill="#FFFFFF" d="M480.615,114.554c-6.176,0-12.154,0-18.348,0c0,0.843,0,1.593,0,2.341c0,16.42,0.021,32.838-0.021,49.258
			c-0.006,2.674-0.119,5.373-0.494,8.017c-0.997,7.07-4.634,11.153-11.06,12.587c-3.731,0.83-7.491,0.754-11.238,0
			c-5.745-1.157-9.344-4.668-10.58-10.297c-0.678-3.088-0.958-6.318-0.976-9.488c-0.093-16.737-0.044-33.477-0.044-50.216
			c0-0.733,0-1.467,0-2.149c-6.296,0-12.276,0-18.33,0c0,0.591,0,1.036,0,1.481c0,18.209-0.012,36.416,0.018,54.625
			c0.003,1.908,0.127,3.835,0.396,5.726c1.632,11.409,7.683,19.563,18.562,23.516c11.146,4.052,22.489,3.83,33.593-0.392
			c7.936-3.017,13.483-8.627,16.483-16.618c1.474-3.93,2.044-8.024,2.042-12.21c-0.006-18.146-0.002-36.29-0.002-54.436
			C480.615,115.744,480.615,115.187,480.615,114.554z"/>
		<path fill="#FFFFFF" d="M636.532,114.554c-6.16,0-12.139,0-18.348,0c0,0.925,0,1.621,0,2.319c0,16.482,0.021,32.967-0.021,49.449
			c-0.006,2.609-0.125,5.244-0.49,7.825c-1.003,7.126-4.74,11.291-11.226,12.654c-3.674,0.771-7.373,0.702-11.055-0.038
			c-5.741-1.155-9.354-4.651-10.596-10.281c-0.682-3.086-0.964-6.317-0.979-9.487c-0.093-16.738-0.043-33.477-0.043-50.216
			c0-0.739,0-1.477,0-2.18c-6.279,0-12.26,0-18.332,0c0,0.582,0,1.025,0,1.467c0.002,18.272-0.011,36.544,0.02,54.816
			c0.002,1.846,0.132,3.707,0.391,5.533c1.626,11.411,7.669,19.567,18.546,23.533c11.212,4.09,22.621,3.836,33.771-0.445
			c7.851-3.018,13.345-8.613,16.315-16.541c1.521-4.052,2.06-8.275,2.056-12.592c-0.018-17.953-0.008-35.905-0.008-53.858
			C636.532,115.892,636.532,115.269,636.532,114.554z"/>
		<path fill="#FFFFFF" d="M490.405,129.793c7.813,0,15.523,0,23.479,0c0,23.979,0,47.771,0,71.649c6.172,0,12.101,0,18.425,0
			c0-23.949,0-47.739,0-71.729c7.947,0,15.655,0,23.378,0c0-5.158,0-10.115,0-15.116c-21.82,0-43.531,0-65.282,0
			C490.405,119.691,490.405,124.648,490.405,129.793z"/>
		<path fill="#FFFFFF" d="M673.407,114.58c-6.199,0-12.176,0-18.193,0c0,29.021,0,57.92,0,86.857c17.832,0,35.528,0,53.335,0
			c0-5.191,0-10.146,0-15.306c-11.72,0-23.322,0-35.142,0C673.407,162.143,673.407,138.362,673.407,114.58z"/>
		<path fill="#FFFFFF" d="M738.668,114.593c-6.197,0-12.172,0-18.216,0c0,28.985,0,57.833,0,86.831c17.905,0,35.6,0,53.371,0
			c0-5.106,0-10.107,0-15.316c-11.729,0-23.335,0-35.155,0C738.668,162.119,738.668,138.339,738.668,114.593z"/>
		<path fill="#FFFFFF" d="M786.183,201.464c6.083,0,12.02,0,18.095,0c0-29.09,0-57.987,0-86.879c-6.12,0-12.097,0-18.095,0
			C786.183,143.612,786.183,172.513,786.183,201.464z"/>
		<ellipse fill="#E5A00D" cx="795.229" cy="91.416" rx="12.458" ry="12.44"/>
	</g>
</g>
</svg>
