<?xml version="1.0" encoding="utf-8"?>
<!-- Generator: Adobe Illustrator 16.0.0, SVG Export Plug-In . SVG Version: 6.00 Build 0)  -->
<!DOCTYPE svg PUBLIC "-//W3C//DTD SVG 1.1//EN" "http://www.w3.org/Graphics/SVG/1.1/DTD/svg11.dtd">
<svg version="1.1" xmlns="http://www.w3.org/2000/svg" xmlns:xlink="http://www.w3.org/1999/xlink" x="0px" y="0px" width="900px"
	 height="300px" viewBox="0 0 900 300" enable-background="new 0 0 900 300" xml:space="preserve">
<g id="Layer_1">
	<g>
		<path fill="none" d="M401.343,203.396c7.493,0,14.836,0,22.407,0c-3.766-12.354-7.495-24.586-11.333-37.176
			C408.665,178.818,405.017,191.064,401.343,203.396z"/>
		<path fill="#FFFFFF" d="M436.772,189.627c-4.399-12.521-8.814-25.034-13.224-37.553c-7.552,0-15.105,0-22.657,0.002
			c-0.14,0.611-0.221,1.246-0.428,1.836c-8.502,24.335-17.017,48.666-25.526,72.996c-1.45,4.146-2.887,8.298-4.362,12.535
			c6.686,0,13.198,0,19.792,0c2.095-6.873,4.172-13.693,6.248-20.514c10.593,0,21.056,0,31.594,0
			c2.102,6.894,4.177,13.707,6.245,20.489c6.66,0,13.146,0,19.772,0c-0.229-0.676-0.408-1.213-0.597-1.747
			C448.014,221.656,442.4,205.639,436.772,189.627z M401.343,203.396c3.674-12.332,7.322-24.578,11.074-37.176
			c3.837,12.59,7.567,24.82,11.333,37.176C416.179,203.396,408.836,203.396,401.343,203.396z"/>
		<path fill="#FFFFFF" d="M371.072,152.459c-21.916,0-43.668,0-65.421,0c0,5.111,0,10.227,0,15.341c7.836,0,15.672,0,23.691,0
			c0,24.046,0,47.786,0,71.621c6.164,0,12.144,0,18.361,0c0-23.901,0-47.698,0-71.682c7.948,0,15.66,0,23.369,0
			C371.072,162.549,371.072,157.549,371.072,152.459z"/>
		<path fill="#FFFFFF" d="M532.615,152.555c-6.176,0-12.154,0-18.349,0c0,0.842,0,1.592,0,2.34c0,16.42,0.021,32.838-0.021,49.258
			c-0.006,2.675-0.119,5.373-0.494,8.018c-0.997,7.07-4.634,11.153-11.06,12.587c-3.731,0.83-7.491,0.754-11.238,0
			c-5.745-1.157-9.344-4.668-10.58-10.297c-0.678-3.088-0.958-6.317-0.976-9.487c-0.094-16.738-0.045-33.478-0.045-50.217
			c0-0.732,0-1.467,0-2.148c-6.296,0-12.275,0-18.329,0c0,0.591,0,1.035,0,1.48c0,18.209-0.013,36.416,0.018,54.625
			c0.003,1.908,0.127,3.835,0.396,5.727c1.632,11.408,7.683,19.563,18.562,23.516c11.146,4.052,22.489,3.83,33.593-0.393
			c7.937-3.017,13.483-8.627,16.483-16.617c1.474-3.93,2.044-8.024,2.042-12.211c-0.006-18.146-0.002-36.289-0.002-54.436
			C532.615,153.744,532.615,153.188,532.615,152.555z"/>
		<path fill="#FFFFFF" d="M688.532,152.555c-6.16,0-12.14,0-18.349,0c0,0.924,0,1.62,0,2.318c0,16.482,0.021,32.967-0.021,49.449
			c-0.006,2.609-0.125,5.244-0.49,7.824c-1.003,7.127-4.74,11.291-11.226,12.654c-3.674,0.771-7.373,0.702-11.056-0.037
			c-5.74-1.156-9.354-4.652-10.596-10.281c-0.682-3.086-0.964-6.317-0.979-9.487c-0.094-16.738-0.044-33.478-0.044-50.216
			c0-0.739,0-1.478,0-2.18c-6.278,0-12.26,0-18.332,0c0,0.582,0,1.024,0,1.467c0.003,18.271-0.011,36.543,0.021,54.815
			c0.002,1.847,0.132,3.707,0.391,5.533c1.626,11.411,7.669,19.567,18.546,23.533c11.213,4.09,22.621,3.836,33.771-0.445
			c7.851-3.019,13.345-8.612,16.315-16.541c1.521-4.052,2.06-8.274,2.056-12.592c-0.018-17.953-0.008-35.905-0.008-53.858
			C688.532,153.893,688.532,153.27,688.532,152.555z"/>
		<path fill="#FFFFFF" d="M542.405,167.793c7.813,0,15.522,0,23.479,0c0,23.979,0,47.771,0,71.648c6.172,0,12.102,0,18.425,0
			c0-23.948,0-47.738,0-71.729c7.947,0,15.655,0,23.378,0c0-5.158,0-10.115,0-15.115c-21.819,0-43.53,0-65.281,0
			C542.405,157.691,542.405,162.648,542.405,167.793z"/>
		<path fill="#FFFFFF" d="M725.407,152.58c-6.199,0-12.177,0-18.193,0c0,29.021,0,57.92,0,86.857c17.832,0,35.528,0,53.335,0
			c0-5.191,0-10.146,0-15.307c-11.72,0-23.322,0-35.142,0C725.407,200.143,725.407,176.361,725.407,152.58z"/>
		<path fill="#FFFFFF" d="M790.668,152.593c-6.197,0-12.172,0-18.216,0c0,28.985,0,57.833,0,86.831c17.905,0,35.6,0,53.371,0
			c0-5.105,0-10.107,0-15.316c-11.729,0-23.335,0-35.155,0C790.668,200.119,790.668,176.339,790.668,152.593z"/>
		<path fill="#FFFFFF" d="M838.183,239.464c6.083,0,12.021,0,18.096,0c0-29.09,0-57.987,0-86.879c-6.12,0-12.098,0-18.096,0
			C838.183,181.611,838.183,210.514,838.183,239.464z"/>
		<ellipse fill="#E5A00D" cx="847.229" cy="129.416" rx="12.459" ry="12.44"/>
	</g>
</g>
<g id="Layer_2_1_">
	<g>
		
			<image overflow="visible" opacity="0.2" width="279" height="216" xlink:href="13AD46AC.png"  transform="matrix(1 0 0 1 15.5 73.5)">
		</image>
		<g>
			<path fill="#FFFFFF" d="M243.77,212.601c-10.482,0-19.533,6.118-23.783,14.977l-37.755-5.478
				c-0.133-14.445-11.881-26.114-26.356-26.114c-5.163,0-9.975,1.489-14.041,4.051l-53.649-60.787
				c3.091-4.319,4.914-9.605,4.914-15.319c0-14.56-11.802-26.362-26.363-26.362c-14.56,0-26.363,11.803-26.363,26.362
				c0,14.559,11.803,26.361,26.363,26.361c4.484,0,8.704-1.122,12.399-3.096l54.223,61.438c-2.439,3.994-3.846,8.688-3.846,13.712
				c0,14.56,11.803,26.363,26.364,26.363c10.422,0,19.43-6.05,23.708-14.828l37.832,5.491c0.22,14.369,11.929,25.953,26.354,25.953
				c14.56,0,26.363-11.804,26.363-26.362S258.33,212.601,243.77,212.601z"/>
		</g>
	</g>
	<g>
		
			<image overflow="visible" opacity="0.2" width="279" height="279" xlink:href="13AD46AD.png"  transform="matrix(1 0 0 1 15.5 10.5)">
		</image>
		<g>
			<path fill="#E5A00D" d="M243.77,34.779c-14.56,0-26.363,11.802-26.363,26.362c0,7.17,2.867,13.667,7.512,18.42l-58.424,82.548
				c-3.25-1.431-6.84-2.23-10.619-2.23c-14.56,0-26.363,11.8-26.363,26.36c0,2.592,0.38,5.094,1.078,7.46L86.2,221.181
				c-4.82-5.271-11.754-8.58-19.461-8.58c-14.56,0-26.363,11.803-26.363,26.361s11.803,26.362,26.363,26.362
				c14.561,0,26.363-11.804,26.363-26.362c0-2.518-0.36-4.951-1.019-7.256l44.477-27.534c4.815,5.183,11.686,8.429,19.318,8.429
				c14.561,0,26.364-11.803,26.364-26.361c0-6.424-2.301-12.31-6.119-16.883l58.973-83.322c2.72,0.948,5.637,1.468,8.677,1.468
				c14.561,0,26.363-11.802,26.363-26.361C270.135,46.582,258.33,34.779,243.77,34.779z"/>
		</g>
	</g>
</g>
</svg>
