<?xml version="1.0" encoding="utf-8"?>
<svg width="275pt" height="275pt" viewBox="0 0 275 275" version="1.1" xmlns="http://www.w3.org/2000/svg">
  <path opacity="1.00" d="M 204.48 217.9 C 209.29 207.2 221.42 200.44 233.06 202.18 C 246.96 203.67 258.24 217.17 256.91 231.15 C 256.45 245.3 243.28 257.71 229.05 256.79 C 215 257.22 202.46 244.76 202.02 230.86 C 196.75 229.97 162.944 223.762 162.779 223.736 C 158.157 234.518 146.146 241.489 134.478 239.952 C 121.83 238.819 111.171 227.741 110.137 215.227 C 109.881 212.802 109.949 210.34 110.37 207.92 C 110.633 204.446 112.657 201.502 113.54 198.25 C 97.843 180.543 69.78 147.495 54.035 129.995 C 50.765 132.685 46.105 133.265 41.955 133.335 C 33.155 133.785 24.415 129.315 19.305 122.195 C 13.535 114.575 12.325 103.775 16.245 95.065 C 19.435 87.585 26.115 81.775 33.915 79.545 C 45.215 76.125 58.295 81.055 64.575 91.045 C 70.645 100.085 70.315 112.675 64.155 121.595 C 75.906 135.294 105.069 168.898 122.609 189.551 C 126.994 186.661 132.172 185.028 137.534 185.281 C 145.432 184.901 152.923 188.607 158.088 194.395 C 159.685 196.106 161.015 198.049 162.069 200.137 C 163.779 203.406 164.83 207.011 165.013 210.735 C 165.179 210.76 191.471 215.661 204.48 217.9 Z" style="fill: rgb(255, 255, 255);"/>
  <path opacity="1.00" d="M 221.21 18.17 C 234.11 13.78 249.45 20.8 254.69 33.35 C 260.36 45.44 255.44 61.12 243.96 67.91 C 236.87 72.37 227.74 72.98 219.89 70.34 C 199.63 99.27 179.12 128.04 158.91 157.01 C 167.55 167.49 166.84 183.94 157.38 193.67 C 148.09 203.92 130.88 205.2 120.26 196.29 C 117.91 194.03 114.66 195.79 112.32 197.13 C 98.39 205.06 84.85 213.68 71.08 221.89 C 73.55 231.14 71.16 241.59 64.41 248.48 C 56.39 257.22 42.49 259.38 32.02 254.01 C 23.12 249.58 17.05 239.99 16.98 230.03 C 16.21 215.25 29.31 201.8 44.05 201.86 C 51.43 201.69 58.72 204.75 64.01 209.85 C 64.43 209.84 65.27 209.81 65.69 209.8 C 78.39 202.25 90.97 194.48 103.64 186.86 C 106.02 185.42 108.38 183.96 110.81 182.61 C 110.26 179.97 109.56 177.31 109.78 174.59 C 109.97 166.88 113.11 159.17 118.98 154.05 C 126.75 146.75 138.63 145.16 148.44 148.95 C 168.62 120.29 188.79 91.63 209.02 63.01 C 204.03 57.26 201.31 49.57 202.08 41.95 C 202.82 31.09 210.87 21.37 221.21 18.17 Z" style="fill: rgb(229, 160, 13);"/>
</svg>