<svg width="1937" height="390" viewBox="0 0 1937 390" fill="none" xmlns="http://www.w3.org/2000/svg">
<rect width="1936.55" height="389.623"/>
<path d="M355.75 117.05C355.681 67.3013 316.935 26.5278 271.476 11.8159C215.023 -6.45309 140.569 -3.80509 86.6641 21.6287C21.3299 52.4595 0.806127 119.994 0.0413094 187.349C-0.586418 242.726 4.94047 388.579 87.2088 389.618C148.336 390.393 157.439 311.628 185.722 273.694C205.846 246.705 231.756 239.082 263.651 231.189C318.469 217.62 355.829 174.358 355.75 117.05Z" fill="black"/>
<path d="M514.75 98.6117C514.75 88.6117 522.15 81.8117 533.75 81.8117H589.25C639.55 81.8117 673.75 109.512 673.75 150.212C673.75 190.212 639.85 219.912 589.25 219.912H581.55C562.15 219.912 552.15 229.912 552.15 246.012V291.612C552.15 304.512 544.75 312.612 533.45 312.612C522.15 312.612 514.75 304.512 514.75 291.612V98.6117ZM552.15 156.412C552.15 176.712 562.45 186.412 582.15 186.412H586.95C614.65 186.412 635.05 175.112 635.05 150.312C635.05 125.512 614.75 114.212 586.95 114.212H582.25C562.55 114.212 552.25 123.912 552.25 144.212V156.412H552.15ZM673.85 294.812C673.85 305.412 681.25 312.512 692.55 312.512C699.95 312.512 706.75 307.712 710.65 297.712L717.45 279.612C722.95 265.112 732.65 258.312 743.25 258.312H804.55C815.15 258.312 824.85 265.112 830.35 279.612L837.15 297.712C841.05 307.712 847.75 312.512 855.25 312.512C866.55 312.512 873.95 305.412 873.95 294.812C873.95 291.912 873.35 288.312 872.05 284.812L798.85 94.4117C794.35 82.8117 784.05 77.0117 774.05 77.0117C764.05 77.0117 753.75 82.8117 749.25 94.4117L676.05 284.812C674.45 288.412 673.85 291.912 673.85 294.812ZM745.15 208.312C745.15 204.812 746.15 201.512 747.75 196.712L761.65 158.312C764.25 150.912 768.75 147.312 773.95 147.312C779.15 147.312 783.65 150.812 786.25 158.312L800.15 196.712C801.75 201.512 802.75 204.812 802.75 208.312C802.75 218.012 797.25 224.812 782.75 224.812H765.35C750.65 224.812 745.15 218.012 745.15 208.312ZM861.65 99.3117C861.65 89.0117 869.05 81.9117 881.05 81.9117H1029.45C1041.35 81.9117 1048.85 89.0117 1048.85 99.3117C1048.85 109.612 1041.45 116.712 1029.45 116.712H1004.65C984.95 116.712 974.35 126.712 974.35 149.612V291.312C974.35 304.512 966.95 312.612 955.35 312.612C943.75 312.612 936.35 304.512 936.35 291.312V149.612C936.35 126.712 925.75 116.712 906.05 116.712H881.25C869.05 116.712 861.65 109.612 861.65 99.3117ZM1083.65 291.612C1083.65 304.512 1091.05 312.612 1102.35 312.612C1113.65 312.612 1121.05 304.512 1121.05 291.612V240.312C1121.05 225.812 1129.45 219.612 1139.75 219.612H1142.35C1149.15 219.612 1155.95 223.812 1160.05 229.912L1209.05 301.912C1213.55 308.712 1219.35 312.512 1226.75 312.512C1236.45 312.512 1244.15 304.412 1244.15 294.812C1244.15 290.912 1242.85 286.712 1239.95 282.512L1207.35 236.712C1203.45 231.212 1201.85 226.712 1201.85 222.812C1201.85 214.712 1208.95 208.912 1217.35 202.812C1232.55 191.512 1248.95 176.712 1248.95 148.312C1248.95 108.612 1217.95 81.8117 1166.95 81.8117H1102.05C1090.45 81.8117 1083.35 88.6117 1083.35 98.6117V291.612H1083.65ZM1121.05 153.512V143.812C1121.05 122.812 1132.05 114.112 1148.75 114.112H1164.85C1192.55 114.112 1210.35 124.412 1210.35 148.312C1210.35 172.212 1191.65 183.112 1163.85 183.112H1148.65C1132.05 183.212 1121.05 174.512 1121.05 153.512ZM1296.95 290.912V98.6117C1296.95 88.6117 1304.05 81.8117 1315.65 81.8117H1437.65C1449.25 81.8117 1456.35 88.6117 1456.35 98.6117C1456.35 108.612 1449.25 115.412 1437.65 115.412H1360.55C1345.35 115.412 1334.45 124.412 1334.45 141.512V148.612C1334.45 165.712 1345.45 174.712 1360.55 174.712H1420.25C1431.85 174.712 1438.95 181.512 1438.95 191.512C1438.95 201.512 1431.85 208.312 1420.25 208.312H1362.85C1347.65 208.312 1334.45 217.712 1334.45 236.712V245.712C1334.45 264.712 1347.65 274.112 1362.85 274.112H1437.75C1449.35 274.112 1456.45 280.912 1456.45 290.912C1456.45 300.912 1449.35 307.712 1437.75 307.712H1315.75C1304.05 307.712 1296.95 300.912 1296.95 290.912ZM1478.55 194.812C1478.55 125.112 1530.85 77.0117 1592.15 77.0117C1653.45 77.0117 1705.75 125.112 1705.75 194.812C1705.75 264.512 1653.45 312.612 1592.15 312.612C1530.85 312.612 1478.55 264.512 1478.55 194.812ZM1521.15 194.812C1521.15 243.812 1550.15 275.112 1592.15 275.112C1634.05 275.112 1663.15 243.812 1663.15 194.812C1663.15 145.412 1634.15 114.512 1592.15 114.512C1550.25 114.412 1521.15 145.412 1521.15 194.812ZM1750.55 291.612C1750.55 304.512 1757.95 312.612 1769.25 312.612C1780.55 312.612 1787.95 304.512 1787.95 291.612V192.912C1787.95 181.012 1795.05 175.212 1802.45 175.212C1808.25 175.212 1813.05 178.412 1816.65 184.212L1878.55 287.812C1886.95 302.012 1894.65 312.612 1910.45 312.612C1925.65 312.612 1936.55 301.612 1936.55 283.912V98.0117C1936.55 85.1117 1929.15 77.0117 1917.85 77.0117C1906.55 77.0117 1899.15 85.1117 1899.15 98.0117V196.712C1899.15 208.612 1892.05 214.412 1884.65 214.412C1878.85 214.412 1873.95 211.212 1870.45 205.412L1808.55 101.812C1800.15 87.6117 1792.45 77.0117 1776.65 77.0117C1761.45 77.0117 1750.55 88.0117 1750.55 105.712V291.612Z" fill="black"/>
</svg>
