<?xml version="1.0" encoding="utf-8"?>
<!-- Generator: Adobe Illustrator 27.0.1, SVG Export Plug-In . SVG Version: 6.00 Build 0)  -->
<svg version="1.1" id="Layer_1" xmlns="http://www.w3.org/2000/svg" xmlns:xlink="http://www.w3.org/1999/xlink" x="0px" y="0px"
	 viewBox="0 0 970 451" style="enable-background:new 0 0 970 451;" xml:space="preserve">
<style type="text/css">
	.st0{fill:#FFFBF8;}
	.st1{fill:#EBAF00;}
</style>
<path class="st0" d="M159.4,83C121,83,96,94.2,74.6,120.3V91.5H0v355c0,0,1.5,0.7,5.1,1.5c5.5,1.2,32.8,7.5,53.2-10
	C75.9,422.9,80,405.5,80,385.4V334c21.3,22.9,45.8,32.5,80,32.5c73.6,0,130.1-59.7,130.1-139.1C290,142.7,235.6,83,159.4,83
	L159.4,83z M144.8,299.7c-41,0-73.9-34-73.9-75.6c0-41.6,38.4-73.3,73.9-73.3c41.6,0,73.9,32.2,73.9,73.9
	C218.7,266.3,186.5,299.7,144.8,299.7z"/>
<path class="st0" d="M396.1,219.7c0,30.7,3.4,68,33.7,108.8c0.6,0.8,2.2,2.8,2.2,2.8c-12.3,21-27.7,35.2-47.9,35.2
	c-16,0-31.5-8.4-44.5-23.1c-13.9-15.7-20.5-36.3-20.5-57.6V0.5h77L396.1,219.7L396.1,219.7z"/>
<path class="st1" d="M775.1,358h-92.6l89.9-133.2L682.6,91.5h92.6L865,224.8L775.1,358z"/>
<path class="st0" d="M889.7,209.7L970,91.5h-92.9l-33.9,49.3L889.7,209.7z"/>
<path class="st0" d="M843.2,309.4c0,0.1,15.8,21.9,15.8,21.9c15.2,23.8,34.7,35.1,57.9,35.2c24.1-0.4,41.2-21.8,47.5-29.3
	c0,0-11.9-10.5-26.6-28c-20.1-23.8-47.1-67.1-48.1-69L843.2,309.4L843.2,309.4z"/>
<path class="st0" d="M613.4,281.4c-15.5,14.3-26,22.5-48,22.5c-39,0-60.8-27.2-64-57.6h205.3c1.3-4.2,2.1-9.3,2.1-17.9
	C708.7,145.3,648,83,568,83s-138.6,63.4-138.6,142.9s62.4,140.7,140.2,140.7c54.3,0,101.3-31.1,127.1-85.2L613.4,281.4L613.4,281.4z
	 M568.5,145.9c34,0,59.4,22.4,65.3,51.7h-130C510.8,166.6,534.5,145.9,568.5,145.9L568.5,145.9z"/>
</svg>
