<?xml version="1.0" encoding="utf-8"?>
<!-- Generator: Adobe Illustrator 16.0.0, SVG Export Plug-In . SVG Version: 6.00 Build 0)  -->
<!DOCTYPE svg PUBLIC "-//W3C//DTD SVG 1.1//EN" "http://www.w3.org/Graphics/SVG/1.1/DTD/svg11.dtd">
<svg version="1.1" id="Layer_1" xmlns="http://www.w3.org/2000/svg" xmlns:xlink="http://www.w3.org/1999/xlink" x="0px" y="0px"
	 width="956.251px" height="214.137px" viewBox="0 -12.083 956.251 214.137" enable-background="new 0 -12.083 956.251 214.137"
	 xml:space="preserve">
<g>
	<path fill="none" d="M165.163,137.282c12.933,0,25.607,0,38.673,0c-6.5-21.354-12.936-42.492-19.56-64.253
		C177.798,94.804,171.503,115.967,165.163,137.282z"/>
	<path fill="#FFFFFF" d="M226.314,113.482c-7.594-21.64-15.215-43.269-22.824-64.903c-13.035,0-26.072,0-39.106,0.002
		c-0.241,1.061-0.381,2.153-0.737,3.174c-14.675,42.061-29.37,84.111-44.058,126.164c-2.503,7.166-4.984,14.34-7.53,21.666
		c11.54,0,22.78,0,34.162,0c3.614-11.881,7.2-23.67,10.784-35.455c18.283,0,36.34,0,54.529,0
		c3.627,11.914,7.212,23.691,10.781,35.412c11.493,0,22.693,0,34.128,0c-0.397-1.166-0.705-2.094-1.029-3.02
		C245.716,168.84,236.026,141.157,226.314,113.482z M165.163,137.282c6.34-21.314,12.635-42.478,19.113-64.253
		c6.624,21.761,13.06,42.899,19.56,64.253C190.77,137.282,178.096,137.282,165.163,137.282z"/>
	<path fill="#FFFFFF" d="M112.916,49.243c-37.826,0-75.371,0-112.916,0c0,8.836,0,17.674,0.001,26.514c13.525,0,27.05,0,40.889,0
		c0,41.563,0,82.594,0,123.787c10.64,0,20.961,0,31.692,0c0-41.311,0-82.438,0-123.892c13.718,0,27.028,0,40.334,0
		C112.916,66.68,112.916,58.04,112.916,49.243z"/>
	<path fill="#FFFFFF" d="M391.734,49.409c-10.657,0-20.976,0-31.667,0c0,1.457,0,2.752,0,4.045c0,28.379,0.037,56.758-0.037,85.135
		c-0.012,4.623-0.206,9.287-0.851,13.857c-1.723,12.219-7.998,19.277-19.089,21.752c-6.441,1.436-12.932,1.305-19.396,0.002
		c-9.917-2-16.129-8.066-18.262-17.797c-1.171-5.336-1.655-10.92-1.685-16.398c-0.158-28.928-0.074-57.859-0.074-86.791
		c0-1.268,0-2.534,0-3.717c-10.869,0-21.188,0-31.639,0c0,1.023,0,1.793,0,2.563c0,31.471-0.018,62.939,0.032,94.41
		c0.005,3.301,0.217,6.629,0.683,9.896c2.816,19.719,13.26,33.813,32.036,40.645c19.239,7.002,38.813,6.619,57.978-0.678
		c13.699-5.215,23.273-14.91,28.45-28.723c2.545-6.791,3.528-13.869,3.526-21.104c-0.011-31.363-0.005-62.723-0.005-94.082
		C391.734,51.463,391.734,50.502,391.734,49.409z"/>
	<path fill="#FFFFFF" d="M660.845,52.793c0-1.073,0-2.149,0-3.385c-10.631,0-20.953,0-31.668,0c0,1.598,0,2.803,0,4.008
		c0,28.487,0.035,56.979-0.037,85.467c-0.012,4.51-0.215,9.064-0.844,13.525c-1.734,12.313-8.184,19.514-19.379,21.869
		c-6.34,1.332-12.723,1.215-19.076-0.064c-9.912-1.996-16.146-8.039-18.291-17.77c-1.174-5.334-1.662-10.92-1.689-16.398
		c-0.16-28.928-0.076-57.86-0.076-86.791c0-1.277,0-2.553,0-3.77c-10.834,0-21.158,0-31.641,0c0,1.01,0,1.771,0,2.537
		c0.004,31.581-0.016,63.16,0.033,94.742c0.006,3.189,0.23,6.406,0.678,9.564c2.805,19.723,13.236,33.82,32.006,40.674
		c19.354,7.068,39.047,6.631,58.289-0.77c13.549-5.217,23.031-14.889,28.16-28.59c2.623-7.006,3.557-14.305,3.551-21.764
		C660.828,114.852,660.845,83.823,660.845,52.793z"/>
	<path fill="#FFFFFF" d="M408.633,75.745c13.484,0,26.794,0,40.523,0c0,41.445,0,82.566,0,123.836c10.655,0,20.887,0,31.802,0
		c0-41.391,0-82.51,0-123.974c13.717,0,27.02,0,40.35,0c0-8.916,0-17.481,0-26.125c-37.66,0-75.133,0-112.675,0
		C408.633,58.288,408.633,66.853,408.633,75.745z"/>
	<path fill="#FFFFFF" d="M724.49,49.454c-10.699,0-21.014,0-31.4,0c0,50.158,0,100.104,0,150.119c30.779,0,61.322,0,92.055,0
		c0-8.973,0-17.535,0-26.453c-20.227,0-40.254,0-60.652,0C724.49,131.659,724.49,90.556,724.49,49.454z"/>
	<path fill="#FFFFFF" d="M837.128,49.476c-10.697,0-21.01,0-31.441,0c0,50.094,0,99.954,0,150.073c30.904,0,61.445,0,92.119,0
		c0-8.826,0-17.469,0-26.473c-20.246,0-40.273,0-60.678,0C837.128,131.618,837.128,90.515,837.128,49.476z"/>
	<path fill="#FFFFFF" d="M919.136,199.62c10.502,0,20.748,0,31.232,0c0-50.277,0-100.226,0-150.158c-10.564,0-20.879,0-31.232,0
		C919.136,99.631,919.136,149.583,919.136,199.62z"/>
	<circle fill="#E5A00D" cx="934.751" cy="9.417" r="21.5"/>
</g>
</svg>
